<svg width="30" height="30" viewBox="0 0 30 30" fill="none" xmlns="http://www.w3.org/2000/svg">
<g clip-path="url(#clip0)">
<path d="M6.63768 1.91316L5.20629 1.28223H3.31576C1.72723 1.28223 0.439453 2.57 0.439453 4.15853V4.9635C0.439453 5.2349 0.659473 5.45486 0.93082 5.45486H6.19201L7.96102 2.83139L6.63768 1.91316Z" fill="#F59E18"/>
<path d="M9.06835 28.718C7.47982 28.718 6.19204 27.4303 6.19204 25.8417V9.06787V5.45486V4.15854C6.19204 2.57 4.90427 1.28223 3.31573 1.28223H23.8293C25.4179 1.28223 26.7057 2.57 26.7057 4.15854V27.4773L9.30572 28.718H9.06835Z" fill="#FAB659"/>
<path d="M29.0693 24.5454H12.4361C12.1647 24.5454 11.9447 24.7654 11.9447 25.0368V25.8417C11.9447 27.4303 10.6569 28.718 9.06839 28.718H26.6843C28.2728 28.718 29.5606 27.4303 29.5606 25.8417V25.0368C29.5606 24.7654 29.3406 24.5454 29.0693 24.5454Z" fill="#F8E86A"/>
<path d="M11.9003 7.03068V6.12793C11.9003 5.88523 11.7035 5.68848 11.4608 5.68848C11.2182 5.68848 11.0214 5.88523 11.0214 6.12793V7.03068C11.0214 7.27338 11.2182 7.47014 11.4608 7.47014C11.7035 7.47014 11.9003 7.27344 11.9003 7.03068Z" fill="black"/>
<path d="M21.8763 7.03068V6.12793C21.8763 5.88523 21.6796 5.68848 21.4369 5.68848C21.1942 5.68848 20.9974 5.88523 20.9974 6.12793V7.03068C20.9974 7.27338 21.1942 7.47014 21.4369 7.47014C21.6796 7.47014 21.8763 7.27344 21.8763 7.03068Z" fill="black"/>
<path d="M16.4489 7.95218C17.0555 7.95218 17.6248 7.69888 18.0109 7.25726C18.1706 7.0745 18.152 6.79689 17.9692 6.63716C17.7865 6.47743 17.5089 6.49606 17.3491 6.67882C17.13 6.92948 16.8019 7.07327 16.4489 7.07327C16.0958 7.07327 15.7677 6.92948 15.5486 6.67882C15.3888 6.49606 15.1112 6.47743 14.9285 6.63716C14.7457 6.79689 14.7271 7.0745 14.8869 7.25726C15.2729 7.69888 15.8422 7.95218 16.4489 7.95218Z" fill="black"/>
<path d="M9.94025 11.9868C9.94025 12.2296 10.137 12.4263 10.3797 12.4263H22.5181C22.7608 12.4263 22.9576 12.2296 22.9576 11.9868C22.9576 11.7441 22.7608 11.5474 22.5181 11.5474H10.3797C10.137 11.5474 9.94025 11.7442 9.94025 11.9868Z" fill="black"/>
<path d="M10.3797 15.0596H22.5181C22.7608 15.0596 22.9576 14.8629 22.9576 14.6201C22.9576 14.3774 22.7608 14.1807 22.5181 14.1807H10.3797C10.137 14.1807 9.94025 14.3774 9.94025 14.6201C9.94025 14.8628 10.137 15.0596 10.3797 15.0596Z" fill="black"/>
<path d="M10.3797 17.6926H22.5181C22.7608 17.6926 22.9576 17.4959 22.9576 17.2532C22.9576 17.0105 22.7608 16.8137 22.5181 16.8137H10.3797C10.137 16.8137 9.94025 17.0105 9.94025 17.2532C9.94025 17.4959 10.137 17.6926 10.3797 17.6926Z" fill="black"/>
<path d="M22.518 21.7651H17.9136C17.6709 21.7651 17.4742 21.9619 17.4742 22.2046C17.4742 22.4473 17.6709 22.644 17.9136 22.644H22.518C22.7607 22.644 22.9575 22.4473 22.9575 22.2046C22.9575 21.9619 22.7607 21.7651 22.518 21.7651Z" fill="black"/>
</g>
<defs>
<clipPath id="clip0">
<rect width="30" height="30" fill="white"/>
</clipPath>
</defs>
</svg>
