<svg width="30" height="30" viewBox="0 0 30 30" fill="none" xmlns="http://www.w3.org/2000/svg">
<g clip-path="url(#clip0)">
<path d="M27.734 25.2207C27.6546 26.7401 26.1484 27.7726 24.7064 27.287C22.2775 26.4689 19.947 25.3581 17.7836 23.9835C17.453 23.7734 17.1095 23.5382 16.9499 23.1804C16.7046 22.6305 16.9722 21.9946 17.2772 21.4755C18.3799 19.5987 20.0369 18.0521 21.9852 17.0813C23.0301 16.5606 24.1569 16.2067 25.3104 16.0289C25.9952 15.9233 27.5147 15.5717 28.0203 16.2608C28.3015 16.6441 28.149 17.2777 28.1264 17.7094C28.103 18.1583 27.8894 22.2476 27.734 25.2207Z" fill="#FCD2A5"/>
<path d="M29.5598 14.214C29.5598 7.79779 23.031 2.59644 14.9773 2.59644C6.92358 2.59644 0.394775 7.79779 0.394775 14.214C0.394775 20.6303 6.92358 25.8317 14.9773 25.8317C17.5165 25.8317 20.2165 25.3398 22.4985 24.1644C22.8566 23.98 23.2946 24.0901 23.5341 24.414C24.2906 25.4372 25.1079 26.4154 25.9809 27.3411C26.9234 27.1084 27.6784 26.2842 27.734 25.2206C27.8296 23.3914 27.9473 21.1397 28.0291 19.5733C28.0356 19.4482 28.0731 19.3274 28.1357 19.2189C28.9967 17.7252 29.5598 15.9411 29.5598 14.214Z" fill="#FFF1CE"/>
<path d="M5.93831 5.09668C2.56156 7.22444 0.394775 10.5176 0.394775 14.2138C0.394775 19.2595 4.43258 23.5549 10.074 25.1593C1.88349 18.6587 3.93971 7.81332 5.93831 5.09668Z" fill="#FCD2A5"/>
<path d="M6.57637 11.4645C6.57678 12.2531 5.77436 12.8927 4.78416 12.8932C3.79396 12.8937 2.99089 12.2548 2.99048 11.4663C2.99007 10.6778 3.79249 10.0381 4.78269 10.0376C5.77296 10.0371 6.57596 10.6759 6.57637 11.4645Z" fill="#FFA1AC"/>
<path d="M15.5865 11.4615C15.5869 12.25 16.3899 12.8888 17.3802 12.8883C18.3704 12.8878 19.1728 12.2482 19.1724 11.4596C19.172 10.6711 18.369 10.0322 17.3787 10.0327C16.3885 10.0332 15.5861 10.6729 15.5865 11.4615Z" fill="#FFA1AC"/>
<path d="M12.8834 10.9376C12.8829 9.85141 12.096 9.74972 11.1253 9.75025C10.1547 9.75072 9.36782 9.85317 9.36841 10.9393C9.36894 12.0255 10.1563 12.9055 11.1269 12.9051C12.0975 12.9046 12.8839 12.0237 12.8834 10.9376Z" fill="#333942"/>
<path d="M6.5483 8.73877C5.8437 8.73877 5.25441 9.32841 5.25482 10.0329C5.25494 10.2759 5.45194 10.4728 5.69494 10.4728H5.69517C5.93829 10.4727 6.13523 10.2755 6.13506 10.0325C6.13494 9.81207 6.32812 9.619 6.5483 9.619C6.7761 9.619 6.96148 9.80426 6.9616 10.0321C6.96171 10.2751 7.15871 10.472 7.40171 10.472H7.40195C7.64501 10.4719 7.84201 10.2747 7.84183 10.0317C7.84142 9.31855 7.26129 8.73877 6.5483 8.73877Z" fill="black"/>
<path d="M16.5562 10.468C16.7992 10.4679 16.9962 10.2708 16.9961 10.0278C16.9957 9.32339 16.4055 8.73486 15.7019 8.73486C14.9887 8.73527 14.4086 9.31582 14.409 10.029C14.4091 10.2721 14.6061 10.469 14.8491 10.469H14.8493C15.0924 10.4689 15.2893 10.2718 15.2892 10.0287C15.2891 9.80077 15.4744 9.61527 15.7023 9.61516C15.9222 9.61516 16.1157 9.80816 16.1158 10.0282C16.1159 10.2712 16.3129 10.4682 16.5559 10.4682C16.556 10.468 16.5561 10.468 16.5562 10.468Z" fill="black"/>
</g>
<defs>
<clipPath id="clip0">
<rect width="30" height="30" fill="white"/>
</clipPath>
</defs>
</svg>
