<svg width="16" height="16" viewBox="0 0 16 16" fill="none" xmlns="http://www.w3.org/2000/svg">
<g clip-path="url(#clip0)">
<path d="M1.73917 9.39143C2.50755 9.39143 3.13045 8.76854 3.13045 8.00016C3.13045 7.23178 2.50755 6.60889 1.73917 6.60889C0.970795 6.60889 0.3479 7.23178 0.3479 8.00016C0.3479 8.76854 0.970795 9.39143 1.73917 9.39143Z" fill="#87D646"/>
<path d="M1.73917 9.73898C0.780165 9.73898 0 8.95881 0 7.99991C0 7.04101 0.780165 6.26074 1.73917 6.26074C2.69817 6.26074 3.47834 7.04091 3.47834 7.99991C3.47834 8.95892 2.69807 9.73898 1.73917 9.73898ZM1.73917 6.95643C1.16373 6.95643 0.695688 7.42447 0.695688 7.99991C0.695688 8.57535 1.16373 9.04339 1.73917 9.04339C2.31461 9.04339 2.78265 8.57535 2.78265 7.99991C2.78265 7.42447 2.31461 6.95643 1.73917 6.95643Z" fill="black"/>
<path d="M8.00004 9.39143C8.76842 9.39143 9.39131 8.76854 9.39131 8.00016C9.39131 7.23178 8.76842 6.60889 8.00004 6.60889C7.23166 6.60889 6.60876 7.23178 6.60876 8.00016C6.60876 8.76854 7.23166 9.39143 8.00004 9.39143Z" fill="#87D646"/>
<path d="M8.00006 9.73898C7.04106 9.73898 6.26089 8.95881 6.26089 7.99981C6.26089 7.04081 7.04106 6.26074 8.00006 6.26074C8.95907 6.26074 9.73923 7.04091 9.73923 7.99991C9.73923 8.95892 8.95896 9.73898 8.00006 9.73898ZM8.00006 6.95643C7.42462 6.95643 6.95658 7.42447 6.95658 7.99991C6.95658 8.57535 7.42462 9.04339 8.00006 9.04339C8.57551 9.04339 9.04354 8.57535 9.04354 7.99991C9.04354 7.42447 8.57551 6.95643 8.00006 6.95643Z" fill="black"/>
<path d="M14.2609 9.39143C15.0293 9.39143 15.6522 8.76854 15.6522 8.00016C15.6522 7.23178 15.0293 6.60889 14.2609 6.60889C13.4926 6.60889 12.8697 7.23178 12.8697 8.00016C12.8697 8.76854 13.4926 9.39143 14.2609 9.39143Z" fill="#87D646"/>
<path d="M14.2609 9.73908C13.3019 9.73908 12.5218 8.95891 12.5218 7.99991C12.5218 7.04091 13.3019 6.26074 14.2609 6.26074C15.2199 6.26074 16.0001 7.04091 16.0001 7.99991C16.0001 8.95891 15.2198 9.73908 14.2609 9.73908ZM14.2609 6.95653C13.6855 6.95653 13.2174 7.42457 13.2174 8.00001C13.2174 8.57546 13.6855 9.04349 14.2609 9.04349C14.8364 9.04349 15.3044 8.57546 15.3044 8.00001C15.3044 7.42457 14.8364 6.95653 14.2609 6.95653Z" fill="black"/>
</g>
<defs>
<clipPath id="clip0">
<rect width="16" height="16" fill="white"/>
</clipPath>
</defs>
</svg>
