<svg width="107" height="107" viewBox="0 0 107 107" fill="none" xmlns="http://www.w3.org/2000/svg">
<g clip-path="url(#clip0)">
<path d="M54.3653 51.1587L43.7659 54.7498L33.1134 65.4023L39.5062 69.1665L50.0811 65.4023L60.7344 54.7498L54.3653 51.1587Z" fill="#E8AFE5"/>
<path d="M35.3175 71.9436L22.4609 76.0555L11.8101 86.7064L16.1824 91.0787L28.7778 86.7064L39.4295 76.0555L35.3175 71.9436Z" fill="#E8AFE5"/>
<path d="M16.1827 91.0786L1.68031 97.3588C1.3301 98.4763 1.59867 99.7457 2.48441 100.631L6.3694 104.516C7.63881 105.785 9.69764 105.787 10.9671 104.517L18.1264 97.3588L16.1827 91.0786Z" fill="#E8AFE5"/>
<path d="M54.3653 51.1587L52.1465 51.9105L54.0535 52.5032C54.2649 52.5693 54.4306 52.7351 54.4967 52.9465L56.4037 59.0805L60.7344 54.7498L54.3653 51.1587Z" fill="#E894E4"/>
<path d="M67.4129 48.0712L60.7344 54.7497H43.7659L58.9287 39.5869L67.4129 48.0712Z" fill="#6EE4FF"/>
<path d="M50.0812 65.4023L39.4295 76.0556H22.4609L33.1134 65.4023H50.0812Z" fill="#6EE4FF"/>
<path d="M28.7777 86.7063L18.1252 97.3588H1.67993C1.83014 96.8747 2.09872 96.4167 2.4824 96.033L11.81 86.7063H28.7777Z" fill="#6EE4FF"/>
<path d="M67.4129 48.0712L58.9287 39.5869L47.9194 50.5961L54.0535 52.5031C54.2649 52.5693 54.4306 52.735 54.4967 52.9464L55.0576 54.7497H60.7344L67.4129 48.0712Z" fill="#61CAFF"/>
<path d="M104.076 40.5986L97.7366 32.1053C96.3692 30.2726 95.9913 27.884 96.7252 25.7182L100.129 15.6821C101.978 10.2281 96.7717 5.02145 91.3185 6.87128L81.2815 10.2746C79.1158 11.0085 76.7272 10.6306 74.8945 9.26317L66.4012 2.92425C61.7856 -0.519906 55.2254 2.82303 55.2989 8.58153L55.4344 19.1785C55.4638 21.4651 54.3658 23.6194 52.4988 24.9395L43.8456 31.0596C39.1443 34.3846 40.2961 41.6566 45.795 43.366L55.9161 46.5122C58.099 47.1906 59.8092 48.9008 60.4876 51.0845L63.6338 61.2048C65.3432 66.7037 72.616 67.8555 75.941 63.1542L82.0603 54.5009C83.3804 52.634 85.5347 51.5368 87.8213 51.5654L98.4191 51.7009C104.177 51.7743 107.52 45.2142 104.076 40.5986Z" fill="#FFE176"/>
<path d="M67.5329 17.9734L65.7884 19.7179C65.1762 20.3301 65.1762 21.3236 65.7884 21.9359C66.0945 22.242 66.4962 22.3955 66.8978 22.3955C67.2987 22.3955 67.7003 22.242 68.0064 21.9359L69.751 20.1914C70.364 19.5791 70.364 18.5856 69.751 17.9734C69.1387 17.3611 68.1452 17.3611 67.5329 17.9734Z" fill="black"/>
<path d="M85.0665 41.214C85.3726 41.5201 85.7743 41.6728 86.1751 41.6728C86.5767 41.6728 86.9784 41.5201 87.2845 41.214L89.029 39.4694C89.6413 38.8572 89.6413 37.8637 89.029 37.2514C88.4168 36.6392 87.4233 36.6392 86.811 37.2514L85.0665 38.996C84.4534 39.6082 84.4534 40.6009 85.0665 41.214Z" fill="black"/>
<path d="M74.3836 26.4006C73.5174 26.3419 72.7721 26.9958 72.7133 27.8603C72.599 29.5656 73.2489 31.2587 74.4962 32.5061C75.7093 33.7192 77.4236 34.4033 79.1412 34.2882C80.0057 34.2302 80.6596 33.4824 80.6009 32.6187C80.5429 31.7542 79.7943 31.1003 78.9314 31.1583C78.1298 31.2122 77.3216 30.8954 76.7142 30.2881C76.1069 29.6807 75.7893 28.8725 75.8432 28.0709C75.902 27.2064 75.2481 26.4586 74.3836 26.4006Z" fill="black"/>
<path d="M1.39509 101.723C1.39509 101.723 5.27843 105.606 5.28006 105.608C7.13643 107.464 10.2418 107.463 12.0957 105.609L60.7081 56.9969C60.7081 56.9969 62.1547 61.65 62.1563 61.6533C64.2061 68.2501 73.2447 69.6943 77.2407 64.0427L83.3608 55.3895C84.3829 53.9437 86.0466 53.0939 87.8213 53.1168L98.4183 53.2515C98.4566 53.2523 98.4934 53.2523 98.5309 53.2523C105.391 53.2523 109.463 45.1517 105.352 39.6438L99.0134 31.1498C97.9546 29.7302 97.6615 27.882 98.2305 26.2052C98.2305 26.2052 101.632 16.1724 101.634 16.1675C103.858 9.61141 97.3831 3.1476 90.8344 5.36806L88.9511 6.00644C88.1307 6.28481 87.6915 7.17544 87.9691 7.99586C88.2475 8.81629 89.1381 9.25548 89.9585 8.97711C89.9585 8.97711 91.8394 8.33954 91.8418 8.33873C95.9847 6.9338 100.068 11.0171 98.6632 15.1601L95.2598 25.1978C94.3594 27.8526 94.8231 30.7784 96.499 33.0258L102.838 41.5198C105.463 45.0374 102.826 50.1698 98.4583 50.1151L87.8605 49.9796C85.0637 49.9436 82.4179 51.289 80.7991 53.578C80.7991 53.578 74.688 62.219 74.679 62.2312C72.1443 65.8158 66.4478 64.8942 65.1507 60.7218L62.0053 50.6016C61.1726 47.924 59.0779 45.8293 56.4011 44.9966C56.4011 44.9966 46.294 41.8553 46.2801 41.8512C42.0947 40.55 41.1959 34.8511 44.7707 32.3229L53.4239 26.2036C55.7129 24.5848 57.0583 21.9447 57.0223 19.1414C57.0223 19.1414 56.8868 8.55751 56.8868 8.54363C56.8305 4.16477 61.971 1.54349 65.4821 4.16395L73.9761 10.5029C76.2227 12.1796 79.1493 12.6425 81.8041 11.7421L84.2539 10.9118C85.0743 10.6335 85.5135 9.74284 85.2351 8.92241C84.9568 8.10281 84.067 7.6628 83.2465 7.94117L80.7967 8.77139C79.1199 9.34038 77.2717 9.04731 75.8521 7.98852C75.8521 7.98852 67.3629 1.65288 67.3589 1.64961C61.7988 -2.49904 53.6614 1.67982 53.7496 8.58363L53.8851 19.1814C53.908 20.952 53.0582 22.619 51.6124 23.6419C51.6124 23.6419 42.9657 29.7571 42.9592 29.7612C37.3036 33.7613 38.7575 42.7974 45.3486 44.8464L50.0059 46.2938C50.0059 46.2938 1.40243 94.8972 1.39264 94.9062C-0.465358 96.7658 -0.461277 99.8663 1.39509 101.723ZM9.87771 103.391C9.22871 104.039 8.14543 104.037 7.49807 103.39L3.61309 99.5047C3.44084 99.3324 3.31104 99.1291 3.22778 98.9095H14.3586C14.3586 98.9095 9.88261 103.386 9.87771 103.391ZM23.1302 77.6063H35.6627L28.1483 85.1207H15.6158L23.1302 77.6063ZM38.7991 74.469H26.2674L33.7827 66.9538H46.3144L38.7991 74.469ZM53.3904 47.346L55.4696 47.9926C57.1309 48.5077 58.4893 49.8579 59.0101 51.5323C59.1791 52.0768 59.3481 52.6204 59.5171 53.1641H47.5723L53.3904 47.346ZM44.4351 56.3013H56.9676L49.4516 63.8166H36.9199L44.4351 56.3013ZM12.4794 88.2571H25.0111L17.4958 95.7731H4.96414L12.4794 88.2571Z" fill="black"/>
</g>
<defs>
<clipPath id="clip0">
<rect width="107" height="107" fill="white"/>
</clipPath>
</defs>
</svg>
