<svg width="100" height="100" viewBox="0 0 100 100" fill="none" xmlns="http://www.w3.org/2000/svg">
<g clip-path="url(#clip0)">
<path d="M9.52391 98.5341C11.586 98.5341 13.6479 97.7476 15.221 96.1742L47.2708 64.1246C50.4173 60.9781 50.4173 55.8767 47.2706 52.73C44.1241 49.5835 39.0227 49.5837 35.8762 52.73L3.82684 84.7794C0.680355 87.9259 0.680359 93.0273 3.82704 96.174C5.39989 97.7474 7.462 98.5341 9.52391 98.5341Z" fill="#5B9675"/>
<path opacity="0.15" d="M2.53835 94.4924C15.3909 90.5643 25.2268 79.1643 28.78 72.741C29.3036 71.7944 29.1651 70.6121 28.4217 69.826C26.852 68.1655 25.4104 66.3824 24.1128 64.4932L35.7635 52.8424C38.9581 49.6479 44.2475 49.5869 47.3805 52.8422C50.4165 55.9967 50.3799 61.0153 47.2706 64.1244L15.221 96.1741C13.6477 97.7473 11.5858 98.534 9.5239 98.534C7.46199 98.534 5.39988 97.7475 3.82683 96.1741C3.31277 95.6602 2.88444 95.0936 2.53835 94.4924Z" fill="#2C6245"/>
<path d="M15.2211 96.1743C13.6479 97.7475 11.5859 98.5342 9.52402 98.5342C7.46211 98.5342 5.4 97.7477 3.82695 96.1743C0.680275 93.0278 0.680273 87.9264 3.82676 84.7797L9.79492 78.8118C13.5709 82.5877 17.743 86.7596 21.1895 90.2063L15.2211 96.1743Z" fill="#F8E47C"/>
<path opacity="0.15" d="M21.1895 90.206L15.2215 96.174C13.6482 97.7472 11.5863 98.534 9.52442 98.534C7.46251 98.534 5.4004 97.7474 3.82735 96.174C3.31349 95.6601 2.88516 95.0933 2.53907 94.4924C8.08223 92.7982 13.0637 89.714 17.2225 86.2386C18.6037 87.6203 19.9443 88.9609 21.1895 90.206Z" fill="#C97B00"/>
<path d="M60.3172 77.9026C39.21 77.9026 22.0992 60.7918 22.0992 39.6846C22.0992 18.5774 39.21 1.46667 60.3172 1.46667C81.4244 1.46667 98.5352 18.5774 98.5352 39.6846C98.5352 60.7918 81.4244 77.9026 60.3172 77.9026Z" fill="#72CDA2"/>
<path opacity="0.15" d="M60.3172 77.9017C46.1147 77.9017 33.7221 70.1542 27.1338 58.6552C74.1391 79.438 90.2078 25.7146 66.0633 1.89563C84.4443 4.66731 98.5352 20.5296 98.5352 39.6837C98.5352 60.7909 81.4244 77.9017 60.3172 77.9017Z" fill="#2C6245"/>
<path d="M60.3172 67.0141C45.2236 67.0141 32.9877 54.7783 32.9877 39.6846C32.9877 24.5909 45.2236 12.3551 60.3172 12.3551C75.4109 12.3551 87.6467 24.5909 87.6467 39.6846C87.6467 54.7783 75.4109 67.0141 60.3172 67.0141Z" fill="white"/>
<path d="M60.3168 12.3538C65.5264 12.3538 70.3952 13.812 74.5383 16.3417C58.045 12.234 35.2018 21.0084 34.3079 48.0965C33.4512 45.4461 32.9866 42.6198 32.9866 39.6842C32.9868 24.5899 45.2229 12.3538 60.3168 12.3538Z" fill="#F0F2FF"/>
<path d="M64.6422 23.2217C75.7177 23.2217 85.0172 30.8221 87.6117 41.0916C86.8791 55.5312 74.939 67.0139 60.3172 67.0139C56.1535 67.0139 52.2082 66.0812 48.6761 64.4158C43.9293 60.0832 40.9506 53.8461 40.9506 46.9129C40.951 33.8285 51.5578 23.2217 64.6422 23.2217Z" fill="#F8E47C"/>
<path d="M78.5962 55.4154C75.7528 55.4154 73.4478 53.5796 73.4478 51.3152C73.4478 49.0507 75.7528 47.215 78.5962 47.215C81.4396 47.215 83.7446 49.0507 83.7446 51.3152C83.7446 53.5796 81.4396 55.4154 78.5962 55.4154Z" fill="#E38892"/>
<path d="M50.689 55.4154C47.8456 55.4154 45.5405 53.5796 45.5405 51.3152C45.5405 49.0507 47.8456 47.215 50.689 47.215C53.5324 47.215 55.8374 49.0507 55.8374 51.3152C55.8374 53.5796 53.5324 55.4154 50.689 55.4154Z" fill="#E38892"/>
<path d="M64.6422 51.8948C66.7023 51.8948 68.3724 50.2246 68.3724 48.1645V45.4526C68.3724 44.8903 67.9166 44.4342 67.3541 44.4342H61.9303C61.3679 44.4342 60.9119 44.8901 60.9119 45.4526V48.1645C60.9119 50.2246 62.582 51.8948 64.6422 51.8948Z" fill="#495059"/>
<path opacity="0.15" d="M73.6802 25.0084C80.5355 27.8403 85.7683 33.7967 87.6111 41.1022C86.8732 55.5369 74.9355 67.0139 60.3173 67.0139C56.1568 67.0139 52.2144 66.0826 48.6845 64.4195C48.4687 64.2229 48.2556 64.0233 48.0472 63.8188C87.3595 70.6041 87.9019 36.691 73.6802 25.0084Z" fill="#C97B00"/>
<path d="M51.549 47.939C50.74 47.939 50.0842 47.2831 50.0842 46.4742V44.2644C50.0842 43.4554 50.74 42.7996 51.549 42.7996C52.358 42.7996 53.0139 43.4554 53.0139 44.2644V46.4744C53.0139 47.2831 52.358 47.939 51.549 47.939ZM1.30859 85.6601C1.71817 84.9622 2.61601 84.7287 3.31348 85.1386C4.01113 85.5482 4.24473 86.4458 3.83496 87.1435C2.31719 89.7285 2.73985 93.0162 4.86289 95.139C6.10801 96.3843 7.76348 97.0699 9.52422 97.0699C11.2852 97.0699 12.9406 96.3841 14.1855 95.139L37.3189 72.0058C33.7191 69.4369 30.5648 66.2828 27.9961 62.683L8.05235 82.6267C7.7664 82.9126 7.3914 83.0558 7.0166 83.0558C6.64179 83.0558 6.2668 82.9128 5.98086 82.6267C5.40879 82.0546 5.40879 81.1271 5.98086 80.5552L26.3516 60.1845C22.7246 54.1978 20.6348 47.1806 20.6348 39.6845C20.6348 17.8033 38.4365 0.00170898 60.3176 0.00170898C82.1986 0.00170898 100 17.8035 100 39.6845C100 49.2453 96.5518 58.4812 90.2908 65.6912C89.7605 66.3019 88.8354 66.3671 88.2244 65.8369C87.6137 65.3064 87.5484 64.3812 88.0787 63.7703C93.8771 57.0931 97.0703 48.5394 97.0703 39.6845C97.0703 19.4189 80.5828 2.9314 60.3172 2.9314C40.0516 2.9314 23.5641 19.4189 23.5641 39.6845C23.5641 59.9501 40.0516 76.4376 60.3172 76.4376C68.7758 76.4376 76.7256 73.6447 83.3072 68.3611C83.9381 67.8546 84.8602 67.9554 85.3666 68.5863C85.873 69.2171 85.7723 70.1392 85.1414 70.6456C78.1355 76.2699 69.3195 79.3673 60.3172 79.3673C52.8211 79.3673 45.8041 77.2773 39.8172 73.6505L16.257 97.2107C14.4586 99.0091 12.0674 99.9997 9.52402 99.9997C6.98067 99.9997 4.58945 99.0093 2.79102 97.2107C-0.275002 94.1447 -0.884567 89.3951 1.30859 85.6601ZM64.642 53.3603C61.7773 53.3603 59.4471 51.0298 59.4471 48.1654V45.4535C59.4471 44.0843 60.5609 42.9703 61.9301 42.9703H67.3539C68.723 42.9703 69.8371 44.0843 69.8371 45.4535V48.1654C69.8369 51.0298 67.5066 53.3603 64.642 53.3603ZM66.9074 45.8999H62.3768V48.1654C62.3768 49.4146 63.393 50.4308 64.6422 50.4308C65.8914 50.4308 66.9076 49.4146 66.9076 48.1654V45.8999H66.9074ZM60.3172 68.4794C55.9877 68.4794 51.8797 67.5171 48.1922 65.7982C48.098 65.7654 48.0064 65.7234 47.9191 65.6705C38.2301 61.029 31.5223 51.1257 31.5223 39.6845C31.5223 23.807 44.4397 10.8896 60.3172 10.8896C76.1947 10.8896 89.1121 23.807 89.1121 39.6845C89.1121 40.1794 89.0996 40.6714 89.0748 41.1603C89.0744 41.1691 89.0738 41.1777 89.0732 41.1865C88.2893 56.3685 75.691 68.4794 60.3172 68.4794ZM60.3172 13.8193C46.0551 13.8193 34.452 25.4224 34.452 39.6845C34.452 46.8314 37.366 53.3101 42.0676 57.996C40.39 54.5777 39.4857 50.7882 39.4857 46.9134C39.4857 33.0425 50.7707 21.7574 64.6418 21.7574C72.9465 21.7574 80.4697 25.8007 85.0865 32.2332C81.8797 21.5921 71.9898 13.8193 60.3172 13.8193ZM64.642 24.6873C52.3861 24.6873 42.4154 34.658 42.4154 46.9138C42.4154 53.0656 44.9914 58.9761 49.4889 63.1712C52.7848 64.6968 56.4527 65.5501 60.317 65.5501C74.0557 65.5501 85.3252 54.7826 86.134 41.2435C83.5687 31.4849 74.7639 24.6873 64.642 24.6873ZM76.2703 46.4744V44.2644C76.2703 43.4554 76.9262 42.7996 77.7352 42.7996C78.5441 42.7996 79.2 43.4554 79.2 44.2644V46.4744C79.2 47.2833 78.5441 47.9392 77.7352 47.9392C76.926 47.939 76.2703 47.2831 76.2703 46.4744Z" fill="black"/>
</g>
<defs>
<clipPath id="clip0">
<rect width="100" height="100" transform="matrix(-1 0 0 1 100 0)" fill="white"/>
</clipPath>
</defs>
</svg>
