<svg width="16" height="16" viewBox="0 0 16 16" fill="none" xmlns="http://www.w3.org/2000/svg">
<g clip-path="url(#clip0)">
<path d="M4.61872 13.2933C4.66794 13.9182 5.12566 14.5632 5.84931 14.9261C6.57294 15.289 7.36366 15.27 7.89388 14.9357C7.84466 14.3108 7.38694 13.6658 6.66328 13.3029C5.93963 12.94 5.14897 12.959 4.61872 13.2933Z" fill="#2FC8B4"/>
<path d="M7.89369 15.1773C7.85732 15.1773 7.82038 15.1691 7.78566 15.1517L5.80913 14.1605C5.68991 14.1007 5.64175 13.9556 5.70153 13.8364C5.76128 13.7172 5.90644 13.669 6.02559 13.7288L8.00213 14.72C8.12135 14.7798 8.16951 14.9249 8.10973 15.0441C8.06735 15.1285 7.98213 15.1773 7.89369 15.1773Z" fill="#00AE95"/>
<path d="M11.3813 13.2933C11.3321 13.9182 10.8743 14.5632 10.1507 14.9261C9.42706 15.289 8.63634 15.27 8.10612 14.9357C8.15534 14.3108 8.61306 13.6658 9.33672 13.3029C10.0603 12.94 10.851 12.959 11.3813 13.2933Z" fill="#2FC8B4"/>
<path d="M8.10628 15.1773C8.01781 15.1773 7.93263 15.1285 7.89025 15.0441C7.83047 14.9248 7.87862 14.7798 7.99784 14.72L9.97438 13.7288C10.0937 13.669 10.2387 13.7172 10.2984 13.8364C10.3582 13.9556 10.3101 14.1007 10.1909 14.1605L8.21431 15.1517C8.17963 15.1691 8.14266 15.1773 8.10628 15.1773Z" fill="#00AE95"/>
<path d="M8.47531 10.6694H7.52481V16H8.47531V10.6694Z" fill="#00AE95"/>
<path d="M13.2138 7.2128C14.8467 6.34905 14.4147 3.89955 12.5849 3.64634C13.2806 1.93512 11.3752 0.336305 9.81071 1.31852C9.24362 -0.439508 6.75634 -0.439508 6.18925 1.31852C4.62478 0.336305 2.7194 1.93512 3.41503 3.64634C1.58525 3.89952 1.15334 6.34905 2.78615 7.2128C1.54718 8.5829 2.79084 10.737 4.5969 10.3491C4.5285 12.1951 6.86581 13.0457 7.99996 11.5877C9.13412 13.0458 11.4714 12.1951 11.403 10.3491C13.2091 10.737 14.4527 8.58293 13.2138 7.2128Z" fill="#FF5E6B"/>
<path d="M8 2.61482C7.86665 2.61482 7.75856 2.50672 7.75856 2.37338V1.60472C7.75856 1.47138 7.86665 1.36328 8 1.36328C8.13335 1.36328 8.24145 1.47138 8.24145 1.60472V2.37338C8.24145 2.50672 8.13335 2.61482 8 2.61482Z" fill="#E63E4C"/>
<path d="M10.5518 3.53574C10.5037 3.53574 10.455 3.52139 10.4127 3.49145C10.3038 3.41452 10.2779 3.26386 10.3549 3.15495L10.7984 2.52717C10.8754 2.41826 11.026 2.39239 11.1349 2.46933C11.2438 2.54626 11.2697 2.69692 11.1928 2.80583L10.7492 3.43361C10.7022 3.50017 10.6276 3.53574 10.5518 3.53574Z" fill="#E63E4C"/>
<path d="M12.0417 5.8644C11.9296 5.8644 11.8291 5.78587 11.8055 5.67174C11.7785 5.54118 11.8625 5.41343 11.9931 5.38643L12.7458 5.23087C12.8763 5.2039 13.0041 5.28787 13.0311 5.41846C13.0581 5.54902 12.9741 5.67677 12.8435 5.70377L12.0908 5.85933C12.0743 5.86277 12.0579 5.8644 12.0417 5.8644Z" fill="#E63E4C"/>
<path d="M12.118 8.88852C12.0764 8.88852 12.0343 8.87777 11.9958 8.85517L11.3333 8.46548C11.2184 8.39789 11.18 8.24989 11.2476 8.13495C11.3152 8.01998 11.4632 7.98163 11.5781 8.04926L12.2406 8.43895C12.3556 8.50654 12.394 8.65455 12.3264 8.76948C12.2814 8.84592 12.2008 8.88852 12.118 8.88852Z" fill="#E63E4C"/>
<path d="M9.58224 10.6495C9.47864 10.6495 9.38286 10.5823 9.35124 10.478L9.12837 9.74239C9.08971 9.61477 9.1618 9.47999 9.28943 9.44133C9.41702 9.40271 9.55183 9.47477 9.59052 9.60239L9.81339 10.338C9.85204 10.4656 9.77995 10.6004 9.65233 10.6391C9.62902 10.6461 9.60542 10.6495 9.58224 10.6495Z" fill="#E63E4C"/>
<path d="M5.44813 3.53574C5.37234 3.53574 5.29778 3.5002 5.25075 3.43358L4.80719 2.80583C4.73022 2.69692 4.75613 2.54626 4.86503 2.46933C4.97397 2.39239 5.12459 2.41826 5.20153 2.52717L5.64506 3.15495C5.72203 3.26386 5.69613 3.41452 5.58722 3.49145C5.54494 3.52136 5.49628 3.53574 5.44813 3.53574Z" fill="#E63E4C"/>
<path d="M3.9583 5.86416C3.94211 5.86416 3.92564 5.86251 3.90921 5.8591L3.15646 5.70354C3.02587 5.67657 2.94187 5.54882 2.96887 5.41823C2.99584 5.28766 3.12368 5.20363 3.25415 5.23063L4.00689 5.3862C4.13749 5.41316 4.22149 5.54091 4.19449 5.67151C4.17089 5.78566 4.07039 5.86416 3.9583 5.86416Z" fill="#E63E4C"/>
<path d="M3.88192 8.88854C3.79917 8.88854 3.71858 8.84595 3.67358 8.76945C3.60599 8.65451 3.64436 8.50654 3.7593 8.43892L4.42183 8.04923C4.5367 7.98164 4.6847 8.02001 4.75236 8.13492C4.81995 8.24986 4.78158 8.39782 4.66664 8.46545L4.00411 8.85514C3.96567 8.87776 3.92352 8.88854 3.88192 8.88854Z" fill="#E63E4C"/>
<path d="M6.41772 10.6498C6.39453 10.6498 6.37094 10.6464 6.34759 10.6393C6.21997 10.6007 6.14787 10.4659 6.18653 10.3383L6.40941 9.60265C6.44806 9.47502 6.58281 9.40293 6.7105 9.44159C6.83813 9.48024 6.91022 9.61505 6.87156 9.74265L6.64869 10.4783C6.61709 10.5825 6.52131 10.6498 6.41772 10.6498Z" fill="#E63E4C"/>
<path d="M8 9.95348C10.3386 9.95348 12.2344 8.2566 12.2344 6.16338C12.2344 4.07017 10.3386 2.37329 8 2.37329C5.66142 2.37329 3.76562 4.07017 3.76562 6.16338C3.76562 8.2566 5.66142 9.95348 8 9.95348Z" fill="#FFCE1C"/>
<path d="M4.73146 6.16311C4.73146 4.21611 6.37177 2.6123 8.48287 2.39773C8.32434 2.38164 8.16327 2.37305 7.99996 2.37305C5.66143 2.37305 3.76565 4.06992 3.76565 6.16311C3.76565 8.2563 5.66143 9.95317 7.99999 9.95317C8.1633 9.95317 8.32437 9.94461 8.4829 9.92848C6.37177 9.71392 4.73146 8.11011 4.73146 6.16311Z" fill="#FAA330"/>
<path d="M5.95569 6.49106C5.82234 6.49106 5.71425 6.38296 5.71425 6.24962V5.87962C5.71425 5.74628 5.82234 5.63818 5.95569 5.63818C6.08903 5.63818 6.19712 5.74628 6.19712 5.87962V6.24962C6.19712 6.383 6.08903 6.49106 5.95569 6.49106Z" fill="#3B484A"/>
<path d="M10.0443 6.49106C9.91094 6.49106 9.80284 6.38296 9.80284 6.24962V5.87962C9.80284 5.74628 9.91094 5.63818 10.0443 5.63818C10.1776 5.63818 10.2857 5.74628 10.2857 5.87962V6.24962C10.2858 6.383 10.1776 6.49106 10.0443 6.49106Z" fill="#3B484A"/>
<path d="M8.00001 6.6886C7.73369 6.6886 7.48356 6.57716 7.31369 6.38282C7.22594 6.28241 7.23616 6.12988 7.33653 6.04213C7.43694 5.95438 7.58944 5.9646 7.67722 6.06498C7.75538 6.15438 7.87307 6.20566 8.00001 6.20566C8.12698 6.20566 8.24463 6.15438 8.32279 6.06498C8.41057 5.96457 8.56307 5.95432 8.66348 6.0421C8.76389 6.12985 8.77414 6.28238 8.68635 6.38279C8.51648 6.57716 8.26629 6.6886 8.00001 6.6886Z" fill="#3B484A"/>
</g>
<defs>
<clipPath id="clip0">
<rect width="16" height="16" fill="white"/>
</clipPath>
</defs>
</svg>
