<svg width="24" height="24" viewBox="0 0 24 24" fill="none" xmlns="http://www.w3.org/2000/svg">
<g clip-path="url(#clip0)">
<path d="M4.32607 3.64166C4.17256 3.48815 4.07764 3.27609 4.07764 3.04185C4.07764 2.57338 4.45742 2.1936 4.92589 2.1936H12.4115C12.8801 2.1936 13.2598 2.57334 13.2598 3.04185C13.2598 3.51032 12.88 3.8901 12.4115 3.8901H4.92584C4.69161 3.8901 4.47959 3.79518 4.32607 3.64166Z" fill="#81D4FA"/>
<path d="M8.85866 23.3579L0.636881 15.1362C-0.212212 14.2871 -0.212212 12.9105 0.636881 12.0614L10.7015 1.99683L21.998 13.2934L11.9334 23.3579C11.0843 24.207 9.70766 24.207 8.85866 23.3579Z" fill="#B3E5FC"/>
<path d="M5.62701 7.07103L16.9232 18.3672L17.4203 17.87L6.12419 6.57385L5.62701 7.07103Z" fill="#85D3FA"/>
<path d="M10.7015 1.99683L6.94568 5.75269C6.95599 6.26114 7.1539 6.76392 7.54568 7.14098C8.32952 7.89539 9.57654 7.8862 10.3492 7.11361L10.7174 6.7454C10.9868 6.47597 11.4236 6.47597 11.6931 6.7454L13.3818 8.43408C13.6512 8.70351 13.6512 9.14034 13.3818 9.40978L11.1864 11.6051C10.3926 12.3989 10.3774 13.7133 11.1862 14.4918C11.97 15.2462 13.2171 15.2371 13.9898 14.4645L16.2131 12.2412C16.4825 11.9717 16.9194 11.9717 17.1888 12.2412L17.9723 13.0596C17.9755 13.063 17.9787 13.0663 17.9819 13.0697C18.5013 13.615 18.481 14.479 17.9485 15.0116L10.3119 22.6482C9.71459 23.2455 8.74624 23.2455 8.14896 22.6482L8.85869 23.3579C9.70779 24.207 11.0844 24.207 11.9335 23.3579L21.998 13.2934L10.7015 1.99683Z" fill="#81D4FA"/>
<path d="M19.9959 21.4401C19.9959 21.993 20.22 22.4935 20.5823 22.8559C20.9446 23.2182 21.4451 23.4422 21.998 23.4423C23.1038 23.4422 24.0001 22.5459 24.0001 21.4401V15.2666C24.0001 13.4763 23.2891 11.7592 22.0235 10.4928L12.145 0.608885C11.349 -0.1871 10.0434 -0.203506 9.26119 0.606072C8.78973 1.09399 8.61535 1.76224 8.73746 2.38385C8.80819 2.7439 8.68487 3.11496 8.42541 3.37442L8.00846 3.79137C7.21463 4.5852 7.19954 5.89962 8.00841 6.67812C8.79226 7.43253 10.0393 7.42334 10.8119 6.65074L11.1801 6.28254C11.4496 6.0131 11.8864 6.0131 12.1558 6.28254L13.8445 7.97121C14.1139 8.24065 14.1139 8.67748 13.8445 8.94692L11.6491 11.1423C10.8553 11.9361 10.8402 13.2505 11.649 14.029C12.4328 14.7834 13.6799 14.7743 14.4525 14.0017L16.6758 11.7784C16.9453 11.5089 17.3821 11.5089 17.6515 11.7784L18.435 12.5968C19.4358 13.6423 19.9946 15.0336 19.9949 16.4809L19.9959 21.4401Z" fill="#7024D4"/>
<path opacity="0.1" d="M12.1318 6.26088L11.4547 5.58391C11.1853 5.31448 10.7485 5.31448 10.479 5.58391L10.1815 5.88143C9.4746 6.5883 8.37088 6.65566 7.58783 6.08435C7.68688 6.30129 7.82661 6.50327 8.0083 6.67812C8.79214 7.43252 10.0392 7.42338 10.8118 6.65074L11.18 6.28254C11.4418 6.02084 11.8611 6.01413 12.1318 6.26088ZM22.1416 10.6141C22.9355 11.7437 23.3697 13.0981 23.3697 14.4974V20.6709C23.3697 21.7766 22.4733 22.6729 21.3677 22.6729C20.924 22.6729 20.5143 22.5284 20.1825 22.2842C20.282 22.4979 20.4176 22.6912 20.5823 22.8559C20.9446 23.2182 21.4451 23.4423 21.9979 23.4423C23.1037 23.4423 24 22.5459 24 21.4402V15.2667C24 13.5328 23.3332 11.8677 22.1416 10.6141ZM15.9894 11.0651L13.8222 13.2323C13.1153 13.9392 12.0116 14.0066 11.2285 13.4352C11.3276 13.6522 11.4673 13.8541 11.6489 14.029C12.4327 14.7834 13.6799 14.7743 14.4525 14.0017L16.6758 11.7784C16.9366 11.5175 17.3539 11.51 17.6248 11.7542L16.9651 11.0651C16.6957 10.7956 16.2588 10.7956 15.9894 11.0651Z" fill="black"/>
<path d="M6.43316 12.8419C6.34316 12.8419 6.2532 12.8076 6.18458 12.7389C6.04728 12.6016 6.04728 12.3791 6.18458 12.2418L6.61705 11.8093C6.75435 11.672 6.97696 11.6719 7.11421 11.8093C7.2515 11.9466 7.2515 12.1691 7.11421 12.3065L6.68174 12.739C6.61311 12.8076 6.52311 12.8419 6.43316 12.8419Z" fill="#404B58"/>
<path d="M7.90828 16.0864C7.5051 15.6832 7.5051 15.0296 7.90828 14.6264L8.44303 14.0917C8.5506 13.9841 8.72503 13.9841 8.83256 14.0917L9.90295 15.1621C10.0105 15.2696 10.0105 15.4441 9.90295 15.5516L9.3682 16.0863C8.96507 16.4896 8.31145 16.4896 7.90828 16.0864Z" fill="#404B58"/>
<path d="M11.5042 17.913C11.4142 17.913 11.3242 17.8786 11.2556 17.81C11.1183 17.6727 11.1183 17.4501 11.2556 17.3128L11.6881 16.8803C11.8254 16.743 12.048 16.743 12.1852 16.8803C12.3226 17.0176 12.3226 17.2402 12.1853 17.3775L11.7528 17.81C11.6842 17.8786 11.5942 17.913 11.5042 17.913Z" fill="#404B58"/>
<path d="M0.853978 11.844L0.636759 12.0612C-0.212334 12.9103 -0.212334 14.2869 0.636759 15.136L8.85854 23.3578C9.70763 24.2069 11.0843 24.2069 11.9333 23.3578L12.1505 23.1405L0.853978 11.844Z" fill="#81D4FA"/>
</g>
<defs>
<clipPath id="clip0">
<rect width="24" height="24" fill="white"/>
</clipPath>
</defs>
</svg>
