<svg width="24" height="24" viewBox="0 0 24 24" fill="none" xmlns="http://www.w3.org/2000/svg">
<g clip-path="url(#clip0)">
<path d="M10.0357 6.17761C10.0357 5.14856 8.86414 4.55767 8.03669 5.16943L0.720704 10.5782C-0.240235 11.2886 -0.240235 12.7258 0.720704 13.4363L8.03669 18.845C8.86414 19.4568 10.0357 18.8659 10.0357 17.8369C10.0357 17.8369 9.84156 16.3724 11.0336 16.1404C13.825 15.5973 18.8837 15.3171 22.3001 18.783C22.9673 19.4601 24.109 18.9152 23.9916 17.9718C23.523 14.2015 21.171 8.276 11.1535 7.38885C9.91773 7.27936 10.0357 6.17761 10.0357 6.17761Z" fill="#ABEBF4"/>
<path d="M10.0356 13.8515V17.3772C10.0803 16.9268 10.2795 16.2874 11.0335 16.1405C13.825 15.5974 18.8836 15.3173 22.3 18.7831C22.9672 19.4602 24.1089 18.9153 23.9915 17.9719C20.6826 12.4746 14.4543 12.0877 11.5715 12.2334C10.7105 12.277 10.0356 12.9893 10.0356 13.8515Z" fill="#8ED7E8"/>
</g>
<defs>
<clipPath id="clip0">
<rect width="24" height="24" fill="white"/>
</clipPath>
</defs>
</svg>
