<svg width="24" height="24" viewBox="0 0 24 24" fill="none" xmlns="http://www.w3.org/2000/svg">
<g clip-path="url(#clip0)">
<path d="M20.1655 20.6396L11.3318 23.8548C10.0882 24.3074 8.71303 23.6662 8.26021 22.4225L2.44021 6.4319C1.98757 5.18825 2.6288 3.81295 3.87246 3.36031L12.7062 0.145161C13.95 -0.307476 15.3252 0.33376 15.7778 1.57741L21.598 17.568C22.0506 18.8117 21.4092 20.187 20.1655 20.6396Z" fill="#495059"/>
<path d="M11.3318 23.8548L17.076 21.7641C8.52242 18.2111 6.78695 7.98523 5.86483 2.63525L3.87246 3.36035C2.6288 3.81299 1.98757 5.18829 2.44021 6.43195L8.26021 22.4225C8.71303 23.6662 10.0882 24.3074 11.3318 23.8548Z" fill="#41464F"/>
<path d="M13.0618 1.61986L11.0848 2.33928C10.8945 2.40868 10.7642 2.58537 10.7547 2.78789L10.7277 3.3546C10.7162 3.59465 10.5618 3.80431 10.3361 3.8867L8.09285 4.70299C7.86708 4.7852 7.61384 4.72386 7.45088 4.54717L7.06581 4.13042C6.92848 3.98155 6.71498 3.92973 6.52455 3.99913L4.54774 4.71855C3.99806 4.91869 3.71461 5.52641 3.91456 6.0761L9.6183 21.747C9.81843 22.2967 10.4262 22.5801 10.9758 22.38L19.4901 19.2813C20.0397 19.0812 20.323 18.4734 20.1231 17.9238L14.4193 2.25285C14.2192 1.70317 13.6115 1.41972 13.0618 1.61986Z" fill="#7E9BDE"/>
<path d="M10.9759 22.38L15.2243 20.8339C8.92031 17.065 7.05721 9.25372 6.12923 4.14307L4.54774 4.71875C3.99806 4.9187 3.71461 5.52643 3.91456 6.07629L9.61831 21.747C9.81844 22.2967 10.4264 22.5801 10.9759 22.38Z" fill="#5A7CCC"/>
<path d="M10.6322 16.7216L9.80093 17.0241C9.52389 17.125 9.21774 16.9822 9.11703 16.7053L8.81435 15.8738C8.71346 15.5968 8.85629 15.2906 9.13314 15.1899L9.96462 14.8873C10.2417 14.7865 10.5478 14.9294 10.6485 15.2062L10.9512 16.0377C11.0519 16.3146 10.9093 16.6207 10.6322 16.7216Z" fill="#F2D073"/>
<path d="M10.7485 16.6619C10.3596 16.123 10.0027 15.5648 9.67495 14.9929L9.13332 15.1901C8.85628 15.2908 8.71346 15.597 8.81435 15.874L9.11703 16.7055C9.21774 16.9824 9.52389 17.1252 9.80093 17.0243L10.6324 16.7218C10.6743 16.7064 10.713 16.6859 10.7485 16.6619Z" fill="#E3A554"/>
<path d="M13.7902 15.5728L12.9587 15.8755C12.6818 15.9762 12.3755 15.8334 12.2748 15.5566L11.9721 14.7251C11.8714 14.4482 12.0142 14.1421 12.2911 14.0412L13.1226 13.7387C13.3994 13.6378 13.7056 13.7806 13.8065 14.0575L14.1089 14.8889C14.2098 15.1658 14.067 15.472 13.7902 15.5728Z" fill="#AAD7EF"/>
<path d="M16.9477 14.4234L16.1163 14.7261C15.8394 14.8268 15.5333 14.6842 15.4324 14.4071L15.1297 13.5756C15.029 13.2988 15.1718 12.9926 15.4487 12.8917L16.2801 12.5893C16.557 12.4884 16.8633 12.6312 16.964 12.908L17.2667 13.7395C17.3674 14.0166 17.2248 14.3227 16.9477 14.4234Z" fill="#F8EED1"/>
<path d="M11.7703 19.8478L10.9388 20.1505C10.6618 20.2512 10.3556 20.1084 10.2549 19.8315L9.95222 19C9.85151 18.7232 9.99415 18.4169 10.271 18.3161L11.1025 18.0135C11.3795 17.9128 11.6857 18.0556 11.7864 18.3324L12.0891 19.1639C12.1899 19.4408 12.0471 19.7469 11.7703 19.8478Z" fill="#97D1C2"/>
<path d="M14.928 18.6984L14.0965 19.0011C13.8195 19.1018 13.5133 18.959 13.4126 18.6821L13.1099 17.8506C13.0092 17.5738 13.1519 17.2676 13.4289 17.1667L14.2604 16.8641C14.5372 16.7634 14.8434 16.9062 14.9443 17.183L15.2468 18.0145C15.3477 18.2914 15.2048 18.5977 14.928 18.6984Z" fill="#F19A87"/>
<path d="M18.0855 17.5494L17.254 17.8521C16.9771 17.9528 16.671 17.81 16.5701 17.5331L16.2676 16.7016C16.1667 16.4248 16.3095 16.1186 16.5864 16.0177L17.4179 15.7152C17.6947 15.6143 18.0011 15.7572 18.1018 16.034L18.4045 16.8655C18.5052 17.1425 18.3623 17.4487 18.0855 17.5494Z" fill="#97D1C2"/>
<path d="M9.15508 10.8567C8.95275 10.3008 8.22271 10.056 7.52471 10.3102C6.82653 10.5641 6.42461 11.2207 6.62694 11.7766C6.82928 12.3327 7.55932 12.5774 8.25731 12.3232C8.95549 12.0692 9.35741 11.4126 9.15508 10.8567Z" fill="#F19A87"/>
<path d="M13.4785 9.2827C13.6808 9.83861 14.4107 10.0832 15.1089 9.82927C15.8069 9.57512 16.2088 8.9185 16.0065 8.36259C15.8041 7.80668 15.0743 7.56187 14.3761 7.81602C13.6781 8.07017 13.2762 8.72679 13.4785 9.2827Z" fill="#F19A87"/>
<path d="M8.26187 10.3957C8.11831 10.3957 7.98354 10.3071 7.93154 10.1643L7.76913 9.71785C7.70266 9.53548 7.79678 9.3337 7.97915 9.26742C8.16152 9.20095 8.36331 9.29507 8.42977 9.47744L8.59237 9.92385C8.65866 10.1062 8.56472 10.308 8.38217 10.3745C8.34243 10.3889 8.30178 10.3957 8.26187 10.3957Z" fill="#495059"/>
<path d="M13.6399 8.43843C13.4964 8.43843 13.3616 8.34981 13.3096 8.20699L13.1472 7.76058C13.0807 7.57821 13.1748 7.37643 13.3572 7.31014C13.5397 7.24368 13.7413 7.33779 13.8078 7.52016L13.9702 7.96657C14.0367 8.14894 13.9426 8.35072 13.7602 8.41701C13.7205 8.43166 13.6798 8.43843 13.6399 8.43843Z" fill="#495059"/>
<path d="M10.7339 9.82034C10.5076 9.82034 10.282 9.76339 10.0789 9.65115C9.90902 9.55721 9.84749 9.34335 9.94143 9.17342C10.0354 9.0035 10.2492 8.94198 10.4191 9.03591C10.5838 9.12692 10.7791 9.1423 10.9553 9.07803C11.1314 9.01394 11.2713 8.87661 11.3389 8.70101C11.4086 8.51992 11.6123 8.42965 11.7934 8.49941C11.9744 8.56917 12.0647 8.77261 11.995 8.95388C11.8541 9.31899 11.563 9.60519 11.1957 9.73886C11.0461 9.79324 10.8897 9.82034 10.7339 9.82034Z" fill="#495059"/>
<path d="M20.426 11.1761C20.4108 11.1761 20.3956 11.175 20.3804 11.1732C20.1878 11.1483 20.0519 10.9719 20.0768 10.7795C20.1489 10.2208 20.087 9.66712 19.893 9.13391C19.6989 8.60053 19.3903 8.13672 18.976 7.75513C18.8331 7.62366 18.824 7.40119 18.9555 7.25837C19.0869 7.11573 19.3094 7.10639 19.4522 7.23786C19.9431 7.68995 20.324 8.26233 20.5536 8.89331C20.7834 9.52429 20.8596 10.2076 20.7741 10.8696C20.7512 11.0468 20.5999 11.1761 20.426 11.1761Z" fill="#495059"/>
<path d="M21.9514 11.6481C21.9364 11.6481 21.9212 11.6472 21.9058 11.6451C21.7134 11.6202 21.5773 11.4439 21.6023 11.2515C21.7178 10.3576 21.6189 9.47187 21.3084 8.61878C20.998 7.76569 20.5043 7.02357 19.8413 6.41309C19.6985 6.28162 19.6893 6.05933 19.8208 5.91633C19.9523 5.77369 20.1746 5.76435 20.3176 5.89582C21.0537 6.57349 21.6248 7.43208 21.9692 8.37818C22.3136 9.32465 22.4279 10.3491 22.2995 11.3416C22.2766 11.5188 22.1254 11.6481 21.9514 11.6481Z" fill="#495059"/>
<path d="M4.8238 16.8545C4.73866 16.8545 4.65333 16.8237 4.58577 16.7616C4.09486 16.3097 3.714 15.7372 3.48439 15.1062C3.25459 14.4752 3.17842 13.7919 3.26393 13.1301C3.28883 12.9375 3.46498 12.8018 3.6576 12.8264C3.85023 12.8513 3.98628 13.0276 3.96138 13.22C3.88905 13.7787 3.95094 14.3324 4.14503 14.8658C4.33912 15.399 4.64766 15.8628 5.06202 16.2444C5.20485 16.3758 5.214 16.5981 5.08253 16.7411C5.01313 16.8164 4.91865 16.8545 4.8238 16.8545Z" fill="#495059"/>
<path d="M3.95859 18.1967C3.87344 18.1967 3.78812 18.1659 3.72055 18.1038C2.98447 17.4261 2.41336 16.5678 2.06894 15.6213C1.72452 14.675 1.61026 13.6503 1.73843 12.6581C1.76333 12.4655 1.9393 12.3296 2.13211 12.3545C2.32474 12.3794 2.4606 12.5556 2.4357 12.7482C2.32034 13.6419 2.41904 14.5278 2.72958 15.3809C3.04013 16.234 3.53378 16.9761 4.19663 17.5864C4.33963 17.718 4.34879 17.9403 4.21713 18.0831C4.14792 18.1586 4.05344 18.1967 3.95859 18.1967Z" fill="#495059"/>
<path d="M9.19208 3.29486C9.19208 3.48328 9.03918 3.63617 8.85059 3.63617C8.66199 3.63617 8.50928 3.48328 8.50928 3.29486C8.50928 3.10626 8.66199 2.95337 8.85059 2.95337C9.03918 2.95337 9.19208 3.10626 9.19208 3.29486Z" fill="#F8EED1"/>
</g>
<defs>
<clipPath id="clip0">
<rect width="24" height="24" fill="white"/>
</clipPath>
</defs>
</svg>
