<svg width="9" height="9" viewBox="0 0 9 9" fill="none" xmlns="http://www.w3.org/2000/svg">
<path d="M6.87174 2.22192C7.01738 2.22192 7.13541 2.10381 7.13541 1.95824V0.263672C7.13541 0.118034 7.01738 0 6.87174 0H4.89468C3.97066 0 3.21893 0.75174 3.21893 1.67576V3.38908H2.12695C1.98132 3.38908 1.86328 3.50711 1.86328 3.65275V5.34725C1.86328 5.49289 1.98132 5.61092 2.12695 5.61092H3.21893V8.73633C3.21893 8.88197 3.33696 9 3.4826 9H5.17717C5.32281 9 5.44084 8.88197 5.44084 8.73633V5.61092H6.53281C6.65854 5.61092 6.76675 5.52221 6.7914 5.39896L7.13026 3.70445C7.14578 3.627 7.12573 3.54666 7.07568 3.48555C7.02555 3.42451 6.95071 3.38908 6.87174 3.38908H5.44084V2.22192H6.87174Z" fill="white"/>
<path d="M6.87174 2.22192C7.01738 2.22192 7.13541 2.10381 7.13541 1.95824V0.263672C7.13541 0.118034 7.01738 0 6.87174 0H4.89468C4.69652 0 4.50632 0.0346756 4.32971 0.0981216V9H5.17717C5.32281 9 5.44084 8.88197 5.44084 8.73633V5.61092H6.53281C6.65854 5.61092 6.76675 5.52221 6.7914 5.39896L7.13026 3.70445C7.14578 3.627 7.12573 3.54666 7.07568 3.48555C7.02555 3.42451 6.95071 3.38908 6.87174 3.38908H5.44084V2.22192H6.87174Z" fill="white"/>
</svg>
