<svg width="128" height="119" viewBox="0 0 128 119" fill="none" xmlns="http://www.w3.org/2000/svg">
<path d="M46.2066 59.7194C46.9666 60.1581 46.6484 62.2522 45.5411 65.0524C44.8297 66.851 45.3818 68.9113 46.897 70.1132C49.2566 71.9848 50.5801 73.6398 50.1412 74.4C49.7024 75.1599 47.6072 74.8413 44.8067 73.7337C43.0083 73.0223 40.9479 73.5746 39.7459 75.0899C37.8746 77.449 36.2201 78.7716 35.4602 78.3328C34.7002 77.8941 35.0184 75.8 36.126 72.9998C36.8373 71.2011 36.2855 69.1409 34.7703 67.939C32.4114 66.0678 31.089 64.4134 31.5278 63.6535C31.9665 62.8935 34.0606 63.2114 36.8605 64.3187C38.659 65.0299 40.7191 64.4777 41.9211 62.9624C43.7922 60.6032 45.4467 59.2806 46.2066 59.7194Z" fill="#E84393"/>
<path d="M48.6524 22.2905C49.2024 22.6081 48.9722 24.1234 48.1707 26.1496C47.6559 27.451 48.0553 28.942 49.1518 29.8117C50.8592 31.166 51.817 32.3637 51.4995 32.9137C51.1819 33.4637 49.6658 33.233 47.6392 32.4315C46.3378 31.9167 44.8469 32.3164 43.9772 33.4129C42.6233 35.1201 41.426 36.0771 40.876 35.7596C40.3262 35.4422 40.5564 33.9268 41.3578 31.9004C41.8726 30.5989 41.4731 29.1081 40.3769 28.2384C38.67 26.8843 37.713 25.6871 38.0305 25.1371C38.348 24.5871 39.8632 24.8172 41.8895 25.6185C43.1908 26.133 44.6816 25.7336 45.5513 24.637C46.9053 22.9302 48.1026 21.9731 48.6524 22.2905Z" fill="#E84393"/>
<path d="M25.603 56.5684C26.5229 54.975 25.977 52.9375 24.3836 52.0176C22.7902 51.0976 20.7527 51.6435 19.8327 53.237C18.9128 54.8304 19.4587 56.8678 21.0521 57.7878C22.6455 58.7077 24.683 58.1618 25.603 56.5684Z" fill="#E84393"/>
<path d="M65.0347 13.2493C65.9547 11.6559 65.4087 9.61842 63.8153 8.69846C62.2219 7.77851 60.1844 8.32445 59.2645 9.91786C58.3445 11.5113 58.8905 13.5487 60.4839 14.4687C62.0773 15.3887 64.1148 14.8427 65.0347 13.2493Z" fill="#E84393"/>
<path d="M28.6834 86.1899C29.2334 86.5075 29.0032 88.0228 28.2017 90.049C27.6869 91.3504 28.0863 92.8414 29.1828 93.7111C30.8902 95.0654 31.848 96.2631 31.5305 96.8131C31.2129 97.3631 29.6968 97.1324 27.6703 96.331C26.3688 95.8161 24.8779 96.2158 24.0082 97.3124C22.6543 99.0195 21.457 99.9765 20.907 99.659C20.3572 99.3416 20.5874 97.8262 21.3888 95.7998C21.9036 94.4984 21.5042 93.0075 20.4079 92.1378C18.701 90.7838 17.744 89.5865 18.0615 89.0365C18.379 88.4865 19.8942 88.7167 21.9205 89.5179C23.2218 90.0324 24.7126 89.633 25.5823 88.5364C26.9363 86.8296 28.1336 85.8725 28.6834 86.1899Z" fill="#E84393"/>
<g clip-path="url(#clip0)">
<path d="M80.7993 68.8379L71.0098 72.1543L61.1704 81.9937L67.0752 85.4697L76.8435 81.9937L86.6821 72.1543L80.7993 68.8379Z" fill="#E8AFE5"/>
<path d="M63.2063 88.0352L51.3315 91.832L41.4937 101.67L45.5322 105.709L57.1667 101.67L67.0039 91.832L63.2063 88.0352Z" fill="#E8AFE5"/>
<path d="M45.5323 105.709L32.137 111.509C31.814 112.541 32.0623 113.714 32.8804 114.532L36.4685 118.12C37.6411 119.292 39.5432 119.293 40.7151 118.121L47.3274 111.509L45.5323 105.709Z" fill="#E8AFE5"/>
<path d="M80.7991 68.8379L78.7505 69.5315L80.5112 70.0793C80.7068 70.1401 80.8599 70.2932 80.9207 70.4888L82.6821 76.1548L86.6819 72.1543L80.7991 68.8379Z" fill="#E894E4"/>
<path d="M92.8513 65.9846L86.6821 72.1538H71.0098L85.0151 58.1484L92.8513 65.9846Z" fill="#6EE4FF"/>
<path d="M76.8433 81.9941L67.0039 91.8328H51.3315L61.1702 81.9941H76.8433Z" fill="#6EE4FF"/>
<path d="M57.1675 101.67L47.3281 111.509H32.1377C32.2769 111.062 32.5251 110.639 32.8796 110.285L41.4944 101.67H57.1675Z" fill="#6EE4FF"/>
<path d="M92.8508 65.9846L85.0146 58.1484L74.8457 68.3174L80.511 70.0789C80.7073 70.1397 80.8596 70.2927 80.9211 70.4883L81.439 72.1538H86.6816L92.8508 65.9846Z" fill="#61CAFF"/>
<path d="M126.713 59.0843L120.858 51.2386C119.596 49.546 119.246 47.3399 119.924 45.3397L123.068 36.0694C124.776 31.0326 119.967 26.2235 114.93 27.9315L105.66 31.075C103.66 31.7533 101.454 31.4046 99.7609 30.1412L91.9159 24.2862C87.6532 21.1053 81.5932 24.1932 81.6613 29.5113L81.7866 39.2994C81.8137 41.411 80.8 43.401 79.0751 44.6205L71.083 50.2726C66.7404 53.3436 67.8047 60.0606 72.8833 61.6397L82.2311 64.5453C84.2482 65.1722 85.8273 66.7513 86.4543 68.7684L89.3598 78.1163C90.9389 83.1956 97.6559 84.2591 100.727 79.9166L106.379 71.9244C107.599 70.2003 109.589 69.1866 111.7 69.213L121.489 69.3382C126.806 69.4063 129.894 63.3463 126.713 59.0843Z" fill="#FFE176"/>
<path d="M92.3574 42.2859C91.9868 42.2859 91.6155 42.1446 91.3328 41.8619C90.7673 41.2957 90.7673 40.3787 91.3328 39.8133L92.9441 38.202C93.5095 37.6358 94.4272 37.6358 94.9927 38.202C95.5581 38.7674 95.5581 39.6844 94.9927 40.2505L93.3813 41.8619C93.0986 42.1446 92.728 42.2859 92.3574 42.2859Z" fill="#4B3F4E"/>
<path d="M110.162 60.0923C109.792 60.0923 109.421 59.951 109.138 59.6675C108.572 59.1021 108.572 58.1844 109.138 57.619L110.75 56.0076C111.315 55.4415 112.232 55.4415 112.798 56.0076C113.364 56.5731 113.364 57.4908 112.798 58.0562L111.187 59.6675C110.904 59.951 110.533 60.0923 110.162 60.0923Z" fill="#4B3F4E"/>
<path d="M103.311 53.2829C101.859 53.2829 100.441 52.6897 99.3765 51.6247C98.2244 50.4726 97.6246 48.9089 97.7308 47.3342C97.7843 46.5358 98.4735 45.9316 99.2733 45.9858C100.072 46.0393 100.675 46.7299 100.621 47.5283C100.572 48.2688 100.865 49.0151 101.425 49.5761C101.986 50.1372 102.732 50.4301 103.474 50.3803C104.271 50.3261 104.962 50.9304 105.015 51.7287C105.07 52.5271 104.465 53.2177 103.668 53.2712C103.548 53.2793 103.429 53.2829 103.311 53.2829Z" fill="#4B3F4E"/>
</g>
<defs>
<clipPath id="clip0">
<rect x="32" y="23" width="96" height="96" fill="white"/>
</clipPath>
</defs>
</svg>
