<svg width="4" height="10" viewBox="0 0 4 10" fill="none" xmlns="http://www.w3.org/2000/svg">
<path d="M2.86512 8.54498V3.59107C2.86512 3.16743 2.48676 2.88164 2.14636 3.04815C1.76931 3.23255 1.36667 3.33888 0.957115 3.36212L0.281864 3.40047C0.123978 3.40942 0 3.55852 0 3.73938V4.22274C0 4.41014 0.132776 4.56208 0.296547 4.56208H0.889099C1.02482 4.56208 1.13485 4.68799 1.13485 4.84329V8.54501H0.52822C0.236501 8.54501 0 8.81564 0 9.14945V9.39556C0 9.72937 0.236501 10 0.52822 10H3.47178C3.7635 10 4 9.72937 4 9.39556V9.14945C4 8.81564 3.7635 8.54501 3.47178 8.54501L2.86512 8.54498Z" fill="white"/>
<path d="M2 2C2.55228 2 3 1.55228 3 1C3 0.447715 2.55228 0 2 0C1.44771 0 1 0.447715 1 1C1 1.55228 1.44771 2 2 2Z" fill="white"/>
</svg>
