<svg width="32" height="30" viewBox="0 0 32 30" fill="none" xmlns="http://www.w3.org/2000/svg">
<path d="M11.5697 15.3455C11.76 15.4554 11.6803 15.9797 11.4031 16.6808C11.225 17.1312 11.3632 17.6471 11.7426 17.948C12.3334 18.4167 12.6648 18.8311 12.5549 19.0214C12.445 19.2117 11.9204 19.1319 11.2192 18.8546C10.7689 18.6764 10.253 18.8147 9.95201 19.1941C9.48346 19.7848 9.0692 20.116 8.87892 20.0061C8.68864 19.8963 8.7683 19.3719 9.04564 18.6708C9.22375 18.2204 9.08557 17.7046 8.70618 17.4036C8.11555 16.9351 7.78443 16.5209 7.89429 16.3306C8.00415 16.1403 8.52847 16.2199 9.22954 16.4971C9.67987 16.6752 10.1957 16.537 10.4967 16.1575C10.9652 15.5668 11.3794 15.2357 11.5697 15.3455Z" fill="#E84393"/>
<path d="M12.1821 5.97375C12.3198 6.05326 12.2622 6.43269 12.0615 6.94001C11.9326 7.26587 12.0326 7.6392 12.3071 7.85696C12.7346 8.19607 12.9745 8.49595 12.895 8.63367C12.8155 8.77138 12.4358 8.71363 11.9284 8.51295C11.6025 8.38405 11.2292 8.48411 11.0115 8.75868C10.6725 9.18613 10.3727 9.42577 10.235 9.34626C10.0973 9.26678 10.1549 8.88734 10.3556 8.37995C10.4845 8.05409 10.3845 7.6808 10.11 7.46302C9.68261 7.12399 9.44297 6.82421 9.52248 6.6865C9.60198 6.54879 9.98137 6.60641 10.4887 6.80703C10.8146 6.93587 11.1879 6.83585 11.4056 6.56128C11.7446 6.13391 12.0444 5.89426 12.1821 5.97375Z" fill="#E84393"/>
<path d="M6.41078 14.5566C6.64112 14.1576 6.50442 13.6474 6.10545 13.4171C5.70648 13.1868 5.19632 13.3234 4.96597 13.7224C4.73562 14.1214 4.87232 14.6316 5.27129 14.8619C5.67026 15.0923 6.18043 14.9556 6.41078 14.5566Z" fill="#E84393"/>
<path d="M16.2841 3.7099C16.5145 3.31093 16.3778 2.80076 15.9788 2.57042C15.5798 2.34007 15.0697 2.47677 14.8393 2.87574C14.609 3.27471 14.7457 3.78488 15.1446 4.01522C15.5436 4.24557 16.0538 4.10887 16.2841 3.7099Z" fill="#E84393"/>
<path d="M7.18208 21.9735C7.3198 22.053 7.26215 22.4324 7.06148 22.9398C6.93258 23.2656 7.03257 23.639 7.30714 23.8567C7.73465 24.1958 7.97447 24.4957 7.89496 24.6334C7.81545 24.7711 7.43584 24.7134 6.9284 24.5127C6.60254 24.3838 6.22922 24.4839 6.01147 24.7584C5.67245 25.1859 5.37268 25.4255 5.23496 25.346C5.0973 25.2665 5.15494 24.8871 5.35559 24.3797C5.4845 24.0538 5.38448 23.6806 5.10998 23.4628C4.68261 23.1237 4.44297 22.824 4.52248 22.6863C4.60198 22.5485 4.98137 22.6062 5.48872 22.8068C5.81456 22.9356 6.18785 22.8356 6.40561 22.561C6.74464 22.1337 7.04442 21.894 7.18208 21.9735Z" fill="#E84393"/>
<g clip-path="url(#clip0)">
<path d="M20.1998 17.4595L17.7524 18.2886L15.2926 20.7484L16.7688 21.6174L19.2109 20.7484L21.6705 18.2886L20.1998 17.4595Z" fill="#E8AFE5"/>
<path d="M15.8016 22.2588L12.8329 23.208L10.3735 25.6675L11.3831 26.6773L14.2917 25.6675L16.751 23.208L15.8016 22.2588Z" fill="#E8AFE5"/>
<path d="M11.3831 26.6772L8.03431 28.1273C7.95356 28.3853 8.01563 28.6784 8.22016 28.8829L9.1172 29.78C9.41035 30.0731 9.88587 30.0733 10.1788 29.7803L11.8319 28.1273L11.3831 26.6772Z" fill="#E8AFE5"/>
<path d="M20.1998 17.4595L19.6877 17.6329L20.1279 17.7698C20.1768 17.785 20.215 17.8233 20.2302 17.8722L20.6706 19.2887L21.6705 18.2886L20.1998 17.4595Z" fill="#E894E4"/>
<path d="M23.2128 16.7462L21.6705 18.2885H17.7524L21.2538 14.7871L23.2128 16.7462Z" fill="#6EE4FF"/>
<path d="M19.2109 20.7485L16.751 23.2082H12.8329L15.2926 20.7485H19.2109Z" fill="#6EE4FF"/>
<path d="M14.2919 25.6675L11.8321 28.1273H8.03448C8.06927 28.0154 8.13135 27.9098 8.21997 27.8212L10.3737 25.6675H14.2919Z" fill="#6EE4FF"/>
<path d="M23.2128 16.7462L21.2538 14.7871L18.7115 17.3293L20.1279 17.7697C20.1769 17.7849 20.215 17.8232 20.2304 17.8721L20.3599 18.2885H21.6705L23.2128 16.7462Z" fill="#61CAFF"/>
<path d="M31.6784 15.0211L30.2146 13.0597C29.899 12.6365 29.8116 12.085 29.9812 11.5849L30.7671 9.26736C31.1941 8.00814 29.9918 6.80587 28.7326 7.23287L26.415 8.01876C25.915 8.18832 25.3634 8.10116 24.9403 7.7853L22.979 6.32156C21.9134 5.52633 20.3984 6.2983 20.4154 7.62783L20.4467 10.0749C20.4535 10.6027 20.2001 11.1002 19.7688 11.4051L17.7708 12.8181C16.6852 13.5859 16.9512 15.2652 18.2209 15.6599L20.5578 16.3863C21.0621 16.5431 21.4569 16.9378 21.6136 17.4421L22.34 19.7791C22.7348 21.0489 24.414 21.3148 25.1818 20.2291L26.5948 18.2311C26.8997 17.8001 27.3972 17.5467 27.9251 17.5532L30.3723 17.5846C31.7016 17.6016 32.4736 16.0866 31.6784 15.0211Z" fill="#FFE176"/>
<path d="M23.0894 10.8215C22.9968 10.8215 22.9039 10.7861 22.8333 10.7155C22.6919 10.5739 22.6919 10.3447 22.8333 10.2033L23.2361 9.80049C23.3774 9.65895 23.6069 9.65895 23.7482 9.80049C23.8896 9.94185 23.8896 10.1711 23.7482 10.3126L23.3454 10.7155C23.2747 10.7861 23.1821 10.8215 23.0894 10.8215Z" fill="#4B3F4E"/>
<path d="M27.5407 15.2731C27.4481 15.2731 27.3554 15.2377 27.2847 15.1669C27.1432 15.0255 27.1432 14.7961 27.2847 14.6547L27.6876 14.2519C27.8289 14.1104 28.0582 14.1104 28.1997 14.2519C28.3411 14.3933 28.3411 14.6227 28.1997 14.7641L27.7969 15.1669C27.726 15.2377 27.6334 15.2731 27.5407 15.2731Z" fill="#4B3F4E"/>
<path d="M25.8278 13.5707C25.4647 13.5707 25.1104 13.4224 24.8441 13.1562C24.5561 12.8682 24.4061 12.4772 24.4327 12.0835C24.4461 11.884 24.6184 11.7329 24.8183 11.7465C25.0179 11.7598 25.1688 11.9325 25.1552 12.1321C25.143 12.3172 25.2162 12.5038 25.3563 12.644C25.4965 12.7843 25.6831 12.8575 25.8684 12.8451C26.0676 12.8315 26.2405 12.9826 26.2539 13.1822C26.2674 13.3818 26.1164 13.5544 25.9169 13.5678C25.8871 13.5698 25.8573 13.5707 25.8278 13.5707Z" fill="#4B3F4E"/>
</g>
<defs>
<clipPath id="clip0">
<rect x="8.00006" y="6" width="24" height="24" fill="white"/>
</clipPath>
</defs>
</svg>
