<svg width="96" height="96" viewBox="0 0 96 96" fill="none" xmlns="http://www.w3.org/2000/svg">
<g clip-path="url(#clip0)">
<path d="M47.959 16.2488C47.959 24.4453 32.4177 31.0906 24.2197 31.0906C16.0225 31.0906 9.37793 24.4453 9.37793 16.2488C9.37793 8.05151 16.0232 1.40625 24.2205 1.40625C32.4177 1.40625 47.959 8.05151 47.959 16.2488Z" fill="#FFCD00"/>
<path d="M86.5393 16.2488C86.5393 24.4453 79.894 31.0906 71.6975 31.0906C63.5002 31.0906 47.959 24.4453 47.959 16.2488C47.959 8.05151 63.5002 1.40625 71.6975 1.40625C79.894 1.40625 86.5393 8.05151 86.5393 16.2488Z" fill="#FFCD00"/>
<path d="M58.0605 34.9197H37.8574V16.5088C37.8574 10.9299 42.3801 6.40723 47.959 6.40723C53.5378 6.40723 58.0605 10.9299 58.0605 16.5088V34.9197Z" fill="#FFEB99"/>
<path d="M58.0605 16.5088C58.0605 16.3162 58.054 16.125 58.043 15.9346H37.8743C37.864 16.125 37.8574 16.3162 37.8574 16.5088V34.9189H58.0605V16.5088Z" fill="#FFDE55"/>
<path d="M84.3787 94.5938H11.5386C9.82764 94.5938 8.44043 93.2065 8.44043 91.4956V38.0171C8.44043 36.3062 9.82764 34.9189 11.5386 34.9189H84.3787C86.0896 34.9189 87.4768 36.3062 87.4768 38.0171V91.4956C87.4768 93.2065 86.0896 94.5938 84.3787 94.5938Z" fill="#FF7956"/>
<path d="M84.3787 34.9197H11.5386C9.82764 34.9197 8.44043 36.3062 8.44043 38.0171V50.3862H87.4768V38.0171C87.4768 36.3062 86.0896 34.9197 84.3787 34.9197Z" fill="#FF6243"/>
<path d="M68.5605 78.75C62.7612 78.75 58.0605 83.4507 58.0605 89.25C58.0605 91.2019 58.5945 93.0278 59.5225 94.5938H77.5979C78.5259 93.0278 79.0598 91.2019 79.0598 89.25C79.0598 83.4507 74.3591 78.75 68.5605 78.75Z" fill="#D7F3FF"/>
<path d="M87.4768 42.769C85.998 41.9744 84.3076 41.5217 82.5117 41.5217C76.7124 41.5217 72.0117 46.2231 72.0117 52.0217C72.0117 57.821 76.7124 62.5217 82.5117 62.5217C84.3076 62.5217 85.998 62.0698 87.4768 61.2751V42.769Z" fill="#D7F3FF"/>
<path d="M72.1392 50.3862H87.4768V42.769C85.998 41.9744 84.3076 41.5217 82.5117 41.5217C77.269 41.5217 72.9243 45.3647 72.1392 50.3862Z" fill="#BDEBFF"/>
<path d="M33.1289 34.9197H62.7891V94.5938H33.1289V34.9197Z" fill="#FFEB99"/>
<path d="M33.1289 34.9197H62.7891V50.3862H33.1289V34.9197Z" fill="#FFDE55"/>
<path d="M33.1289 34.9197H42.5039V94.5938H33.1289V34.9197Z" fill="#FFDE55"/>
<path d="M17.8154 91.4956V38.0171C17.8154 36.3062 19.2026 34.9189 20.9136 34.9189H11.5386C9.82764 34.9189 8.44043 36.3062 8.44043 38.0171V91.4956C8.44043 93.2065 9.82764 94.5938 11.5386 94.5938H20.9136C19.2026 94.5938 17.8154 93.2065 17.8154 91.4956Z" fill="#FF6243"/>
<path d="M89.9136 44.7612H6.00439C4.29346 44.7612 2.90625 43.3748 2.90625 41.6631V28.1865C2.90625 26.4756 4.29272 25.0884 6.00439 25.0884H89.9136C91.6245 25.0884 93.0117 26.4749 93.0117 28.1865V41.6631C93.0117 43.3748 91.6245 44.7612 89.9136 44.7612Z" fill="#FF9478"/>
<path d="M12.2812 41.6638V28.1865C12.2812 26.4756 13.6677 25.0884 15.3794 25.0884H6.00439C4.29346 25.0884 2.90625 26.4756 2.90625 28.1865V41.6638C2.90625 43.3748 4.29272 44.7612 6.00439 44.7612H15.3794C13.6685 44.7612 12.2812 43.3748 12.2812 41.6638Z" fill="#FF7956"/>
<path d="M71.521 44.7612H24.3962V24.9675C24.3962 23.0852 25.9219 21.5596 27.8042 21.5596H68.1138C69.9954 21.5596 71.5217 23.0852 71.5217 24.9675V44.7612H71.521Z" fill="#FFEB99"/>
<path d="M47.959 37.6106C46.1777 37.6106 44.7341 36.1663 44.7341 34.3857V32.5247C44.7341 32.2163 44.9839 31.9673 45.2915 31.9673H50.6257C50.9341 31.9673 51.1831 32.2163 51.1831 32.5247V34.3857C51.1831 36.1663 49.7395 37.6106 47.959 37.6106Z" fill="#444346"/>
<path d="M36.5493 21.5596H27.1743C25.6399 21.5596 24.3962 22.8032 24.3962 24.3376V44.7612H33.7712V24.3376C33.7712 22.8032 35.0149 21.5596 36.5493 21.5596Z" fill="#FFDE55"/>
<path d="M15.3794 57C12.7185 57 10.2913 57.991 8.44116 59.6221V75.3772C10.2913 77.0083 12.7185 78 15.3794 78C21.178 78 25.8794 73.2986 25.8794 67.5C25.8794 61.7007 21.178 57 15.3794 57Z" fill="#D7F3FF"/>
<path d="M17.8154 77.7129V57.2871C17.0332 57.1011 16.218 57 15.3794 57C12.7185 57 10.2913 57.991 8.44116 59.6221V75.3772C10.2913 77.0083 12.7185 78 15.3794 78C16.218 78 17.0332 77.8989 17.8154 77.7129Z" fill="#BDEBFF"/>
<path d="M89.9136 23.6821H86.1504C87.3303 21.3984 87.9456 18.8708 87.9456 16.2488C87.9456 7.28906 80.6565 0 71.6975 0C66.2021 0 58.4385 2.66455 53.2229 6.28125C51.6438 5.46533 49.8552 5.00171 47.959 5.00171C46.062 5.00171 44.2734 5.46533 42.6943 6.28125C37.4795 2.66455 29.7144 0 24.2205 0C19.5747 0 15.1414 1.99512 12.0579 5.47412C11.5422 6.05566 11.5957 6.94409 12.1772 7.45898C12.7581 7.97461 13.6472 7.92041 14.1621 7.3396C16.7124 4.46265 20.3789 2.8125 24.2205 2.8125C28.3037 2.8125 35.0815 4.73291 40.2144 8.00464C37.9036 10.1111 36.4512 13.1433 36.4512 16.5088V20.1533H27.8042C25.5945 20.1533 23.7297 21.6497 23.1658 23.6821H13.0283C11.5591 21.4783 10.7842 18.9236 10.7842 16.2488C10.7842 14.6748 11.0537 13.1338 11.5847 11.6689C11.8491 10.9387 11.4719 10.1323 10.7417 9.86719C10.0115 9.60278 9.20508 9.97998 8.94067 10.7102C8.29761 12.4834 7.97168 14.3467 7.97168 16.2488C7.97168 18.8708 8.58691 21.3984 9.76685 23.6821H6.00439C3.52075 23.6821 1.5 25.7029 1.5 28.1865V41.6638C1.5 44.1475 3.52075 46.1682 6.00439 46.1682H7.03491V91.4956C7.03418 93.9792 9.05493 96 11.5386 96H77.5942H77.5964H77.5994H84.3787C86.8623 96 88.8831 93.9792 88.8831 91.4956V61.2847C88.8831 61.281 88.8831 61.2773 88.8831 61.2737V46.1675H89.9136C92.3972 46.1675 94.418 44.1475 94.418 41.6638V28.1865C94.418 25.7029 92.3972 23.6821 89.9136 23.6821ZM71.6975 2.8125C79.106 2.8125 85.1331 8.8396 85.1331 16.2488C85.1331 18.9236 84.3582 21.4783 82.8889 23.6821H72.7515C72.1875 21.6497 70.3228 20.1533 68.113 20.1533H59.4668V16.5088C59.4668 13.1433 58.0144 10.1111 55.7036 8.00464C60.8357 4.73291 67.6121 2.8125 71.6975 2.8125ZM39.2637 16.5088C39.2637 11.7144 43.1646 7.81348 47.959 7.81348C49.6084 7.81348 51.1523 8.27563 52.4678 9.0769C52.5198 9.11572 52.5732 9.15015 52.6296 9.18018C55.0466 10.7263 56.6543 13.4326 56.6543 16.5088V20.1533H39.2637V16.5088ZM25.8025 24.9675C25.8025 23.8638 26.7004 22.9658 27.8042 22.9658H37.8552H37.8574H37.8589H58.0583H58.0605H58.062H68.1138C69.2175 22.9658 70.1155 23.8638 70.1155 24.9675V43.355H25.8025V24.9675ZM6.00439 43.355C5.07129 43.355 4.3125 42.5962 4.3125 41.6638V28.1865C4.3125 27.2534 5.07129 26.4946 6.00439 26.4946H12.2915C12.2937 26.4946 12.2959 26.4954 12.2981 26.4954C12.2996 26.4954 12.301 26.4946 12.3025 26.4946H22.99V43.355H6.00439ZM9.84668 60.2878C11.4309 59.072 13.3718 58.4062 15.3787 58.4062C20.3936 58.4062 24.4724 62.4858 24.4724 67.5C24.4724 72.5142 20.3936 76.5938 15.3787 76.5938C13.3718 76.5938 11.4309 75.928 9.84668 74.7114V60.2878ZM31.7227 93.1875H11.5386C10.6062 93.1875 9.84668 92.4287 9.84668 91.4956V78.0388C11.5415 78.9294 13.4363 79.4062 15.3787 79.4062C21.9441 79.4062 27.2849 74.0647 27.2849 67.5C27.2849 60.9346 21.9441 55.5938 15.3787 55.5938C13.4363 55.5938 11.5415 56.0706 9.84668 56.9604V46.1675H31.7227V93.1875ZM76.7527 93.1875H64.1953V81.271C65.5276 80.5408 67.0225 80.1562 68.5605 80.1562C73.5747 80.1562 77.6543 84.2358 77.6543 89.25C77.6536 90.6182 77.3416 91.9636 76.7527 93.1875ZM86.0706 91.4956C86.0706 92.4287 85.3118 93.1875 84.3787 93.1875H79.7959C80.2375 91.9277 80.4661 90.5962 80.4661 89.25C80.4661 82.6846 75.1252 77.3438 68.5605 77.3438C67.0518 77.3438 65.5752 77.6272 64.1946 78.1714V62.5217C64.1946 61.7454 63.5654 61.1155 62.7883 61.1155C62.012 61.1155 61.3821 61.7454 61.3821 62.5217V80.4551V80.4741V93.1875H34.5352V46.1675H61.3828V57.2717C61.3828 58.0488 62.012 58.678 62.7891 58.678C63.5654 58.678 64.1953 58.0488 64.1953 57.2717V46.1675H72.1428C71.1409 47.937 70.6047 49.9431 70.6047 52.0217C70.6047 58.5872 75.9463 63.928 82.511 63.928C83.7202 63.928 84.9229 63.7419 86.0706 63.3831V91.4956ZM86.0706 60.3867C84.9507 60.8628 83.7363 61.1155 82.5117 61.1155C77.4968 61.1155 73.418 57.0366 73.418 52.0217C73.418 49.8618 74.1738 47.8052 75.5552 46.1675H86.0706V60.3867ZM91.6055 41.6638C91.6055 42.5962 90.8467 43.355 89.9136 43.355H87.479C87.4783 43.355 87.4775 43.355 87.4768 43.355C87.4761 43.355 87.4761 43.355 87.4746 43.355H72.9272V26.4946H83.6147C83.6169 26.4946 83.6184 26.4954 83.6199 26.4954C83.6221 26.4954 83.6243 26.4946 83.6265 26.4946H89.9136C90.8459 26.4946 91.6047 27.2534 91.6047 28.1865L91.6055 41.6638Z" fill="black"/>
<path d="M59.9004 27.3047C58.21 27.3047 56.636 28.2158 55.793 29.6821C55.4063 30.356 55.6384 31.2151 56.3115 31.6025C56.9846 31.99 57.8445 31.7578 58.2312 31.084C58.574 30.4878 59.2134 30.1172 59.9004 30.1172C60.5874 30.1172 61.2268 30.4878 61.5696 31.084C61.8296 31.5366 62.3028 31.79 62.7898 31.79C63.0279 31.79 63.2688 31.73 63.4893 31.6025C64.1631 31.2158 64.3946 30.356 64.0078 29.6829C63.1648 28.2158 61.5908 27.3047 59.9004 27.3047Z" fill="black"/>
<path d="M36.0169 27.3047C34.3264 27.3047 32.7532 28.2158 31.9094 29.6821C31.5227 30.356 31.7549 31.2151 32.428 31.6025C33.1011 31.99 33.961 31.7578 34.3477 31.084C34.6912 30.4878 35.3306 30.1172 36.0169 30.1172C36.7039 30.1172 37.3433 30.4878 37.6861 31.084C37.9461 31.5366 38.4192 31.79 38.9063 31.79C39.1443 31.79 39.3853 31.73 39.6057 31.6025C40.2796 31.2158 40.5117 30.356 40.1243 29.6829C39.2813 28.2158 37.7073 27.3047 36.0169 27.3047Z" fill="black"/>
<path d="M50.6257 30.561H45.2915C44.209 30.561 43.3279 31.4414 43.3279 32.5247V34.3857C43.3279 36.939 45.405 39.0168 47.959 39.0168C50.5122 39.0168 52.5901 36.939 52.5901 34.3857V32.5247C52.5894 31.4414 51.709 30.561 50.6257 30.561ZM49.7769 34.3857C49.7769 35.3884 48.9617 36.2043 47.959 36.2043C46.9556 36.2043 46.1404 35.3884 46.1404 34.3857V33.3735H49.7769V34.3857Z" fill="black"/>
<path d="M60.9653 37.552H58.8362C58.0598 37.552 57.4299 36.9221 57.4299 36.1458C57.4299 35.3687 58.0598 34.7395 58.8362 34.7395H60.9653C61.7417 34.7395 62.3716 35.3687 62.3716 36.1458C62.3716 36.9221 61.7417 37.552 60.9653 37.552Z" fill="#F46262"/>
<path d="M37.0818 37.552H34.9526C34.1763 37.552 33.5464 36.9221 33.5464 36.1458C33.5464 35.3687 34.1763 34.7395 34.9526 34.7395H37.0818C37.8582 34.7395 38.488 35.3687 38.488 36.1458C38.488 36.9221 37.8582 37.552 37.0818 37.552Z" fill="#F46262"/>
</g>
<defs>
<clipPath id="clip0">
<rect width="96" height="96" fill="white"/>
</clipPath>
</defs>
</svg>
