<svg width="101" height="101" viewBox="0 0 101 101" fill="none" xmlns="http://www.w3.org/2000/svg">
<g clip-path="url(#clip0)">
<path d="M31.9871 39.5834L23.8445 93.6835C23.4269 96.4575 25.3371 99.0459 28.1119 99.4635C30.8868 99.8812 33.4743 97.9701 33.892 95.1953L42.2627 39.5834H31.9871Z" fill="#E7896E"/>
<path d="M42.2626 39.5834H31.987L27.0508 72.378C30.3619 71.5219 33.9073 70.8423 37.6292 70.3645L42.2626 39.5834Z" fill="#DD6642"/>
<path d="M69.0814 39.5834L77.2241 93.6835C77.6417 96.4575 75.7315 99.0459 72.9566 99.4635C70.1818 99.8812 67.5943 97.9701 67.1766 95.1953L58.8059 39.5834H69.0814Z" fill="#E7896E"/>
<path d="M69.0814 39.5834H58.8059L63.4393 70.3645C67.1612 70.8423 70.7058 71.5227 74.0177 72.378L69.0814 39.5834Z" fill="#DD6642"/>
<path d="M50.5346 95.0951C47.7282 95.0951 45.4535 92.8204 45.4535 90.0148V6.55985C45.4535 3.75421 47.7282 1.47949 50.5346 1.47949C53.3403 1.47949 55.615 3.75421 55.615 6.55985V90.0148C55.615 92.8204 53.3403 95.0951 50.5346 95.0951Z" fill="#DD6642"/>
<path d="M55.615 69.6748V6.55985C55.615 3.75421 53.3403 1.47949 50.5346 1.47949C47.7282 1.47949 45.4535 3.75421 45.4535 6.55985V69.6748C47.1241 69.5939 48.8186 69.5515 50.5346 69.5515C52.2499 69.5515 53.9444 69.5939 55.615 69.6748Z" fill="#B24E2F"/>
<path d="M81.1987 57.7209H19.8699V17.1382C19.8699 14.0636 22.3627 11.5708 25.4372 11.5708H75.6313C78.7059 11.5708 81.1987 14.0636 81.1987 17.1382V57.7209Z" fill="#C2EAFB"/>
<path d="M64.1522 42.6564C64.1522 48.1197 59.7237 52.5482 54.2611 52.5482C48.7986 52.5482 44.3701 48.1197 44.3701 42.6564C44.3701 37.1938 48.7986 32.7654 54.2611 32.7654C59.7237 32.7654 64.1522 37.1938 64.1522 42.6564Z" fill="#F9EE80"/>
<path d="M50.5347 48.2869L62.8514 39.5302C65.8944 37.3664 70.0262 37.5776 72.8326 40.0403L81.1987 47.3823V57.721H50.5347V48.2869Z" fill="#29CE69"/>
<path d="M19.8699 48.2869L35.3398 37.3749C38.7188 34.9915 43.3352 35.4462 46.184 38.4429L64.3764 57.5784H19.8699V48.2869Z" fill="#73DA8C"/>
<path d="M82.2305 63.4648H18.8381C16.333 63.4648 14.3018 61.4335 14.3018 58.9284C14.3018 56.4233 16.333 54.3921 18.8381 54.3921H82.2305C84.7364 54.3921 86.7668 56.4233 86.7668 58.9284C86.7668 61.4335 84.7364 63.4648 82.2305 63.4648Z" fill="#F2AD9A"/>
<path d="M25.0142 58.9284C25.0142 56.4233 27.0454 54.3921 29.5505 54.3921H18.8381C16.333 54.3921 14.3018 56.4233 14.3018 58.9284C14.3018 61.4335 16.333 63.4648 18.8381 63.4648H29.5505C27.0454 63.4648 25.0142 61.4335 25.0142 58.9284Z" fill="#E7896E"/>
<path d="M39.5233 25.3256C39.5233 23.5348 37.7009 22.083 35.4516 22.083C33.203 22.083 31.3799 23.5348 31.3799 25.3256C31.3799 27.1164 33.203 28.5681 35.4516 28.5681C37.7009 28.5681 39.5233 27.1164 39.5233 25.3256Z" fill="#FFB3C2"/>
<path d="M69.6887 25.3256C69.6887 23.5348 67.8655 22.083 65.617 22.083C63.3677 22.083 61.5453 23.5348 61.5453 25.3256C61.5453 27.1164 63.3677 28.5681 65.617 28.5681C67.8655 28.5681 69.6887 27.1164 69.6887 25.3256Z" fill="#FFB3C2"/>
<path d="M61.2471 20.8431V23.2989C61.2471 24.1165 61.909 24.7784 62.7266 24.7784C63.5434 24.7784 64.2061 24.1165 64.2061 23.2989V20.8431C64.2061 20.0263 63.5434 19.3636 62.7266 19.3636C61.909 19.3636 61.2471 20.0263 61.2471 20.8431Z" fill="black"/>
<path d="M36.8624 20.8431V23.2989C36.8624 24.1165 37.5251 24.7784 38.3419 24.7784C39.1595 24.7784 39.8214 24.1165 39.8214 23.2989V20.8431C39.8214 20.0263 39.1595 19.3636 38.3419 19.3636C37.5251 19.3636 36.8624 20.0263 36.8624 20.8431Z" fill="black"/>
<path d="M51.5449 21.821C51.2136 22.308 50.7304 22.3665 50.5347 22.3665C50.3382 22.3665 49.8473 22.3134 49.5237 21.821C49.0752 21.1383 48.1575 20.9487 47.4748 21.3972C46.792 21.8456 46.6017 22.7626 47.051 23.4461C47.8238 24.6228 49.1261 25.3255 50.5347 25.3255C51.9425 25.3255 53.2448 24.6228 54.0184 23.4461C54.4669 22.7626 54.2766 21.8456 53.5938 21.3972C53.3434 21.2323 52.2361 20.8069 51.5449 21.821Z" fill="black"/>
<path d="M82.6782 52.9311V27.3367C82.6782 26.5191 82.0163 25.8572 81.1987 25.8572C80.3811 25.8572 79.7192 26.5191 79.7192 27.3367V44.1151L73.8082 38.9284C71.115 36.565 67.4309 35.9486 64.2076 37.1499C62.225 33.5891 58.4045 31.2859 54.2611 31.2859C50.6857 31.2859 47.3368 32.9773 45.2031 35.7829C41.9421 33.8349 37.7039 33.8966 34.4868 36.1659L21.3494 45.4327V17.1382C21.3494 14.8843 23.1833 13.0504 25.4372 13.0504H75.6313C77.8852 13.0504 79.7192 14.8843 79.7192 17.1382V21.1537C79.7192 21.9712 80.3819 22.6331 81.1987 22.6331C82.0163 22.6331 82.6782 21.9712 82.6782 21.1537V17.1382C82.6782 13.253 79.5173 10.0914 75.6313 10.0914H57.0945V6.55985C57.0945 2.9428 54.1517 0 50.5347 0C46.9169 0 43.9741 2.9428 43.9741 6.55985V10.0914H25.4372C21.552 10.0914 18.3904 13.253 18.3904 17.1382V52.9311C15.2819 53.1608 12.8223 55.7622 12.8223 58.9285C12.8223 62.2458 15.5208 64.9443 18.8381 64.9443H26.674L23.6857 84.7972C23.564 85.6056 24.1157 86.3931 24.9279 86.4809C25.8757 86.5827 26.5014 85.9716 26.6116 85.238L29.6661 64.9443H36.9495L32.4294 94.9757C32.1335 96.9391 30.2941 98.3038 28.3323 98.0002C25.2916 97.5301 25.1637 94.8547 25.307 93.9031L25.7147 91.1922C25.8364 90.3846 25.2801 89.631 24.4725 89.5093C23.6642 89.3852 22.9106 89.9439 22.7888 90.7522L22.3812 93.4631C21.8425 97.04 24.0148 101 28.8724 101C32.0611 101 34.8659 98.6629 35.3552 95.4157L39.9417 64.9443H43.9741V90.0148C43.9741 93.6318 46.9169 96.5746 50.5347 96.5746C54.1517 96.5746 57.0945 93.6318 57.0945 90.0148V64.9443H61.1269L65.7141 95.4157C66.2027 98.6629 69.0075 101 72.1961 101C78.6342 101 78.9486 95.1953 78.6874 93.4631L74.3946 64.9443H82.2305C85.5478 64.9443 88.2463 62.2458 88.2463 58.9285C88.2463 55.7622 85.7867 53.1608 82.6782 52.9311ZM46.933 6.55985C46.933 4.57487 48.5489 2.95898 50.5347 2.95898C52.5197 2.95898 54.1355 4.57487 54.1355 6.55985V10.0914H46.933V6.55985ZM71.8571 41.1522L79.7192 48.0519V52.9127H61.9815L55.7707 46.3798L63.7091 40.7361C66.205 38.9615 69.5554 39.1326 71.8571 41.1522ZM54.2611 34.2449C57.3288 34.2449 60.1568 35.9509 61.6232 38.5885L53.711 44.2137L47.4902 37.67C49.0652 35.5371 51.5757 34.2449 54.2611 34.2449ZM36.1928 38.5839C38.9515 36.6375 42.7858 37.0158 45.1122 39.4624L57.899 52.9127H21.3494V49.0544L36.1928 38.5839ZM54.1355 90.0148C54.1355 92.0005 52.5197 93.6156 50.5347 93.6156C48.5489 93.6156 46.933 92.0005 46.933 90.0148V64.9443H54.1355V90.0148ZM75.7616 93.9031C76.0575 95.8665 74.7005 97.705 72.7363 98.0002C70.7744 98.2945 68.9351 96.9391 68.64 94.9757L64.119 64.9443H71.4025L75.7616 93.9031ZM82.2305 61.9853H18.8381C17.1521 61.9853 15.7812 60.6137 15.7812 58.9285C15.7812 57.2432 17.1521 55.8716 18.8381 55.8716H82.2305C83.9157 55.8716 85.2873 57.2432 85.2873 58.9285C85.2873 60.6137 83.9165 61.9853 82.2305 61.9853Z" fill="black"/>
</g>
<defs>
<clipPath id="clip0">
<rect width="101" height="101" fill="white"/>
</clipPath>
</defs>
</svg>
