<svg width="24" height="24" viewBox="0 0 24 24" fill="none" xmlns="http://www.w3.org/2000/svg">
<path d="M21.8316 15.081C21.8316 15.081 21.1609 16.9721 18.6159 17.4905C16.0709 18.0089 15.3169 13.8244 15.3169 13.8244L17.022 12L19.6584 12.2592L21.8316 13.9087V15.081Z" fill="#3A484A"/>
<path d="M19.0773 6.28516L16.8249 7.82908L15.3167 13.8244H17.0128C19.8961 13.324 21.5017 14.6213 22.2443 15.525C22.5491 15.8959 23.135 15.8191 23.3297 15.3802C24.5882 12.5441 24.5306 6.28516 19.0773 6.28516Z" fill="#506366"/>
<path d="M12.7719 2.31494C13.4555 3.37849 12.1188 4.38091 11.5742 4.7298L11.358 4.85983L11.359 5.8503L12.7819 7.32404L15.7771 7.74967L18.3538 7.60454C18.7502 6.78587 19.0773 6.28492 19.0773 6.28492C18.2747 4.25524 16.5258 2.31494 12.7719 2.31494Z" fill="#7CB777"/>
<path d="M18.3539 7.60479C18.3539 7.60479 15.9767 3.5404 11.3581 4.86003L9.69993 6.8832L8.01852 14.7675L10.0232 14.9371C10.0233 14.9371 10.0233 14.9372 10.0233 14.9373L9.27407 18.6473L13.3172 19.5165L17.5316 18.6473L18.6159 17.4905C15.7335 14.265 17.293 9.79676 18.3539 7.60479Z" fill="#EFEDEE"/>
<path d="M12.7719 2.31494C5.81052 2.31494 1.1721 9.32013 0.193207 18.1455L1.78911 19.3232L7.34244 12.6781L11.358 4.85988C11.358 4.85988 11.3585 4.85988 11.359 4.85941C11.417 4.82786 13.609 3.61713 12.7719 2.31494Z" fill="#85E7FF"/>
<path d="M2.04022 19.023C2.06446 18.7287 2.09268 18.4362 2.12488 18.1457C3.01475 10.1223 6.92961 3.60406 12.8645 2.48553C12.853 2.45984 12.8401 2.43415 12.8263 2.40837C12.8238 2.40369 12.8213 2.39895 12.8187 2.39426C12.8043 2.36797 12.7889 2.34158 12.7719 2.31519C5.81052 2.31519 1.1721 9.32037 0.193207 18.1457L1.78911 19.3234L2.04022 19.023Z" fill="#57D0E6"/>
<path d="M18.4491 20.2859L11.9783 17.9711L10.2398 15.7619L10.0234 14.937L10.0229 14.937V14.937H10.0234C9.4875 13.8691 9.60863 12.5282 10.4532 11.5649C10.4617 11.5554 10.4697 11.546 10.4782 11.5366C13.149 8.52038 13.7772 4.85986 11.3581 4.85986C3.71517 7.04339 5.00555 17.4339 0.193219 18.1455C0.0655313 19.2978 0 20.4817 0 21.6849H16.59H19.4642L18.4491 20.2859Z" fill="#FADC60"/>
<path d="M19.4642 21.6849C9.75568 21.6849 10.0229 14.937 10.0229 14.937H10.0234C10.2298 15.3494 10.5342 15.7212 10.9329 16.0149C12.4156 17.1073 14.8847 18.1436 18.6159 17.4904C18.6159 17.4904 19.4642 18.0089 19.4642 21.6849Z" fill="#506366"/>
<path d="M13.4548 10.3355C13.405 10.3355 13.3543 10.3252 13.3059 10.3033C13.1237 10.221 13.0426 10.0064 13.125 9.82422C13.2998 9.43718 13.6408 9.14234 14.0607 9.01521C14.4804 8.88813 14.9279 8.94424 15.288 9.16924C15.4577 9.27523 15.5093 9.49868 15.4033 9.66827C15.2974 9.83796 15.0738 9.88947 14.9043 9.78354C14.7214 9.66926 14.4904 9.64183 14.2707 9.70844C14.0509 9.775 13.8739 9.92585 13.7851 10.1224C13.7246 10.2562 13.5927 10.3355 13.4548 10.3355Z" fill="#3A484A"/>
<path d="M2.28562 16.9255C1.72734 17.5761 1.05905 18.0174 0.193219 18.1454C0.0655313 19.2978 0 20.4817 0 21.6849H1.93158C1.93158 20.4817 1.99711 19.2978 2.1248 18.1455C2.17036 17.7346 2.22431 17.328 2.28562 16.9255Z" fill="#F2C42C"/>
</svg>
