<svg width="24" height="24" viewBox="0 0 24 24" fill="none" xmlns="http://www.w3.org/2000/svg">
<path d="M12.0249 3.82251C12.0249 5.93372 8.0224 7.6452 5.91119 7.6452C3.79999 7.6452 2.08868 5.93372 2.08868 3.82251C2.08868 1.71149 3.80017 0 5.91119 0C8.0224 0 12.0249 1.71149 12.0249 3.82251Z" fill="#FFCD00"/>
<path d="M21.9613 3.82251C21.9613 5.93372 20.2498 7.6452 18.1388 7.6452C16.0276 7.6452 12.0249 5.93372 12.0249 3.82251C12.0249 1.71149 16.0276 0 18.1388 0C20.2498 0 21.9613 1.71149 21.9613 3.82251Z" fill="#FFCD00"/>
<path d="M14.6266 8.63135H9.42334V3.88983C9.42334 2.453 10.5881 1.28809 12.0249 1.28809C13.4617 1.28809 14.6266 2.45282 14.6266 3.88983V8.63135Z" fill="#FFEB99"/>
<path d="M14.6266 3.88965C14.6266 3.84003 14.6248 3.79059 14.6221 3.7417H9.42792C9.42499 3.79059 9.42334 3.84003 9.42334 3.88965V8.63116H14.6265V3.88965H14.6266Z" fill="#FFDE55"/>
<path d="M21.4048 24.0001H2.64514C2.20441 24.0001 1.84735 23.6429 1.84735 23.2023V9.42914C1.84735 8.9884 2.20459 8.63135 2.64514 8.63135H21.4048C21.8454 8.63135 22.2026 8.98859 22.2026 9.42914V23.2021C22.2026 23.6429 21.8454 24.0001 21.4048 24.0001Z" fill="#FF7956"/>
<path d="M21.4048 8.63135H2.64514C2.20441 8.63135 1.84735 8.98859 1.84735 9.42914V12.6148H22.2026V9.42914C22.2026 8.98859 21.8454 8.63135 21.4048 8.63135Z" fill="#FF6243"/>
<path d="M17.3307 19.9194C15.8373 19.9194 14.6266 21.1301 14.6266 22.6237C14.6266 23.1263 14.7642 23.5967 15.0031 23.9999H19.6586C19.8973 23.5967 20.035 23.1263 20.035 22.6237C20.035 21.1301 18.8243 19.9194 17.3307 19.9194Z" fill="#D7F3FF"/>
<path d="M22.2026 10.653C21.822 10.4481 21.3865 10.3318 20.9238 10.3318C19.4304 10.3318 18.2197 11.5425 18.2197 13.0359C18.2197 14.5295 19.4304 15.7402 20.9238 15.7402C21.3865 15.7402 21.822 15.6237 22.2026 15.419V10.653Z" fill="#D7F3FF"/>
<path d="M18.2525 12.6147H22.2026V10.653C21.822 10.4481 21.3865 10.3318 20.924 10.3318C19.5736 10.3318 18.4548 11.3213 18.2525 12.6147Z" fill="#BDEBFF"/>
<path d="M8.20569 8.63135H15.8445V24.0001H8.20569V8.63135Z" fill="#FFEB99"/>
<path d="M8.20569 8.63135H15.8445V12.6148H8.20569V8.63135Z" fill="#FFDE55"/>
<path d="M8.20569 8.63135H10.6201V24.0001H8.20569V8.63135Z" fill="#FFDE55"/>
<path d="M4.26178 23.2023V9.42914C4.26178 8.9884 4.61902 8.63135 5.05957 8.63135H2.64514C2.20441 8.63135 1.84735 8.98859 1.84735 9.42914V23.2021C1.84735 23.6429 2.20459 24.0001 2.64514 24.0001H5.05957C4.61902 24.0001 4.26178 23.6429 4.26178 23.2023Z" fill="#FF6243"/>
<path d="M22.8303 11.1658H1.21967C0.779114 11.1658 0.421875 10.8086 0.421875 10.368V6.89709C0.421875 6.45636 0.779114 6.09912 1.21967 6.09912H22.8303C23.2709 6.09912 23.6281 6.45636 23.6281 6.89709V10.368C23.6281 10.8086 23.2709 11.1658 22.8303 11.1658Z" fill="#FF9478"/>
<path d="M2.8363 10.368V6.89691C2.8363 6.45636 3.19354 6.09912 3.63428 6.09912H1.21967C0.779114 6.09912 0.421875 6.45636 0.421875 6.89691V10.368C0.421875 10.8086 0.779114 11.1658 1.21967 11.1658H3.63428C3.19354 11.1658 2.8363 10.8086 2.8363 10.368Z" fill="#FF7956"/>
<path d="M18.0934 11.1659H5.9566V6.06805C5.9566 5.58337 6.34955 5.19043 6.83423 5.19043H17.2158C17.7004 5.19043 18.0934 5.58337 18.0934 6.06805V11.1659Z" fill="#FFEB99"/>
<path d="M12.0249 9.32416C11.5662 9.32416 11.1945 8.95245 11.1945 8.49377V8.0144C11.1945 7.93512 11.2588 7.87085 11.3381 7.87085H12.7119C12.7912 7.87085 12.8555 7.93512 12.8555 8.0144V8.49377C12.8555 8.95245 12.4836 9.32416 12.0249 9.32416Z" fill="#444346"/>
<path d="M9.08643 5.19043H6.672C6.27686 5.19043 5.9566 5.51068 5.9566 5.90582V11.1659H8.37103V5.90582C8.37103 5.51068 8.69128 5.19043 9.08643 5.19043Z" fill="#FFDE55"/>
<path d="M15.8447 7.81445C15.7229 7.81445 15.6046 7.7511 15.5396 7.63794C15.4493 7.4812 15.2811 7.38361 15.1005 7.38361C14.9198 7.38361 14.7517 7.4812 14.6614 7.63794C14.5646 7.8064 14.3498 7.86444 14.1813 7.76758C14.0131 7.6709 13.9552 7.45593 14.0519 7.28766C14.267 6.91321 14.6689 6.68066 15.1005 6.68066C15.5321 6.68066 15.9338 6.91321 16.1492 7.28766C16.2458 7.45593 16.188 7.6709 16.0195 7.76758C15.9644 7.79926 15.9042 7.81445 15.8447 7.81445Z" fill="#444346"/>
<path d="M9.69359 7.81445C9.57182 7.81445 9.45354 7.7511 9.38853 7.63794C9.29826 7.4812 9.12999 7.38361 8.94945 7.38361C8.76872 7.38361 8.60063 7.4812 8.51036 7.63794C8.4135 7.8064 8.19872 7.86444 8.03026 7.76758C7.86199 7.6709 7.80394 7.45593 7.90081 7.28766C8.11595 6.91321 8.51787 6.68066 8.94945 6.68066C9.38103 6.68066 9.78276 6.91321 9.99809 7.28766C10.0948 7.45593 10.0367 7.6709 9.86845 7.76758C9.81334 7.79926 9.7531 7.81445 9.69359 7.81445Z" fill="#444346"/>
<path d="M15.3746 9.29834H14.8264C14.6321 9.29834 14.4749 9.14105 14.4749 8.94678C14.4749 8.75269 14.6321 8.59521 14.8264 8.59521H15.3746C15.5689 8.59521 15.7262 8.75269 15.7262 8.94678C15.7262 9.14105 15.5689 9.29834 15.3746 9.29834Z" fill="#F46262"/>
<path d="M9.22357 9.29834H8.67535C8.48108 9.29834 8.32379 9.14105 8.32379 8.94678C8.32379 8.75269 8.48108 8.59521 8.67535 8.59521H9.22357C9.41785 8.59521 9.57513 8.75269 9.57513 8.94678C9.57513 9.14105 9.41785 9.29834 9.22357 9.29834Z" fill="#F46262"/>
<path d="M3.63428 14.3179C2.9491 14.3179 2.32379 14.5731 1.84735 14.9932V19.051C2.32379 19.471 2.9491 19.7263 3.63428 19.7263C5.12769 19.7263 6.33838 18.5156 6.33838 17.0222C6.33838 15.5286 5.12769 14.3179 3.63428 14.3179Z" fill="#D7F3FF"/>
<path d="M4.26178 19.6523V14.3918C4.06036 14.3439 3.85034 14.3179 3.63428 14.3179C2.9491 14.3179 2.32379 14.5731 1.84735 14.9932V19.051C2.32379 19.471 2.9491 19.7263 3.63428 19.7263C3.85034 19.7263 4.06036 19.7003 4.26178 19.6523Z" fill="#BDEBFF"/>
</svg>
