<svg width="24" height="24" viewBox="0 0 24 24" fill="none" xmlns="http://www.w3.org/2000/svg">
<g clip-path="url(#clip0)">
<path d="M13.9949 0.954422C13.7817 0.581719 13.3858 0.351562 12.9563 0.351562H11.0434C10.6139 0.351562 10.218 0.581719 10.0048 0.954422C9.72777 1.43878 9.38071 2.16347 9.24988 2.93466H14.7498C14.619 2.16352 14.2719 1.43878 13.9949 0.954422Z" fill="#858384"/>
<path d="M21.2212 5.60039C21.3341 5.18606 21.2168 4.74337 20.9132 4.43972L19.5605 3.08705C19.2569 2.78339 18.8142 2.66616 18.3998 2.77898C17.8614 2.92556 17.1036 3.19261 16.4658 3.64542L20.3549 7.53445C20.8076 6.89662 21.0746 6.13875 21.2212 5.60039Z" fill="#858384"/>
<path d="M23.0454 13.995C23.4182 13.7818 23.6483 13.3859 23.6483 12.9565V11.0435C23.6483 10.6141 23.4181 10.2181 23.0454 10.0049C22.5611 9.72789 21.8364 9.38083 21.0652 9.25V14.7499C21.8364 14.6191 22.5611 14.272 23.0454 13.995Z" fill="#858384"/>
<path d="M18.3998 21.221C18.8141 21.3338 19.2568 21.2165 19.5604 20.9129L20.9131 19.5603C21.2168 19.2566 21.334 18.8139 21.2212 18.3996C21.0746 17.8612 20.8075 17.1034 20.3547 16.4656L16.4657 20.3546C17.1035 20.8074 17.8614 21.0744 18.3998 21.221Z" fill="#858384"/>
<path d="M10.0048 23.0454C10.218 23.4182 10.6139 23.6483 11.0434 23.6483H12.9563C13.3858 23.6483 13.7817 23.4181 13.9949 23.0454C14.2719 22.5611 14.619 21.8364 14.7498 21.0652H9.24988C9.38071 21.8363 9.72777 22.5611 10.0048 23.0454Z" fill="#858384"/>
<path d="M2.77873 18.3996C2.6659 18.814 2.78319 19.2567 3.0868 19.5603L4.43947 20.913C4.74312 21.2166 5.18581 21.3339 5.60014 21.221C6.13855 21.0745 6.89637 20.8074 7.53416 20.3546L3.64512 16.4656C3.19236 17.1034 2.92536 17.8613 2.77873 18.3996Z" fill="#858384"/>
<path d="M0.954422 10.0049C0.581672 10.2181 0.351562 10.6141 0.351562 11.0435V12.9565C0.351562 13.3859 0.581719 13.7818 0.954422 13.995C1.43878 14.272 2.16347 14.6191 2.93466 14.7499V9.25C2.16352 9.38083 1.43878 9.72789 0.954422 10.0049Z" fill="#858384"/>
<path d="M5.60039 2.77898C5.18606 2.66615 4.74337 2.78343 4.43972 3.08704L3.08705 4.43971C2.78339 4.74337 2.66616 5.18606 2.77898 5.60038C2.92556 6.13879 3.19261 6.89662 3.64542 7.5344L7.53445 3.64537C6.89667 3.1926 6.13879 2.9256 5.60039 2.77898Z" fill="#858384"/>
<path d="M12 2.52881C6.76922 2.52881 2.52881 6.76922 2.52881 12C2.52881 17.2308 6.76922 21.4712 12 21.4712C17.2308 21.4712 21.4712 17.2308 21.4712 12C21.4712 6.76922 17.2308 2.52881 12 2.52881ZM12 16.0092C9.78576 16.0092 7.99078 14.2142 7.99078 12C7.99078 9.78576 9.78576 7.99078 12 7.99078C14.2142 7.99078 16.0092 9.78576 16.0092 12C16.0092 14.2142 14.2142 16.0092 12 16.0092Z" fill="#BAB8B9"/>
<path d="M4.40381 11.9999C4.40381 7.08557 8.14682 3.0457 12.9375 2.57493C12.6291 2.54465 12.3164 2.52881 12 2.52881C6.76922 2.52876 2.52881 6.76917 2.52881 11.9999C2.52881 17.2307 6.76922 21.4711 12 21.4711C12.3164 21.4711 12.6291 21.4553 12.9375 21.425C8.14682 20.9542 4.40381 16.9143 4.40381 11.9999Z" fill="#9E9C9D"/>
<path d="M9.44019 6.01161C9.63434 6.01161 9.79175 5.8542 9.79175 5.66004V5.19678C9.79175 5.00262 9.63434 4.84521 9.44019 4.84521C9.24603 4.84521 9.08862 5.00262 9.08862 5.19678V5.66004C9.08862 5.8542 9.24603 6.01161 9.44019 6.01161Z" fill="black"/>
<path d="M14.5596 6.01161C14.7537 6.01161 14.9111 5.8542 14.9111 5.66004V5.19678C14.9111 5.00262 14.7537 4.84521 14.5596 4.84521C14.3654 4.84521 14.208 5.00262 14.208 5.19678V5.66004C14.208 5.8542 14.3654 6.01161 14.5596 6.01161Z" fill="black"/>
<path d="M12.0001 6.25878C12.3478 6.25878 12.6745 6.11309 12.8966 5.85908C13.0244 5.71287 13.0095 5.49083 12.8633 5.363C12.7171 5.23522 12.495 5.25012 12.3672 5.39633C12.2787 5.49758 12.1449 5.55565 12.0001 5.55565C11.8553 5.55565 11.7215 5.49758 11.633 5.39633C11.5052 5.25012 11.2831 5.23522 11.1369 5.363C10.9907 5.49078 10.9758 5.71287 11.1036 5.85908C11.3257 6.11309 11.6524 6.25878 12.0001 6.25878Z" fill="black"/>
<path d="M23.2201 9.6998C22.7633 9.43852 22.0811 9.1073 21.3358 8.94501C21.1787 8.46628 20.9862 8.00358 20.7606 7.56023C21.1734 6.91828 21.4219 6.20091 21.5603 5.69264C21.7059 5.15794 21.5531 4.58255 21.1616 4.191C21.1616 4.191 19.8099 2.83931 19.809 2.83833C19.4203 2.44964 18.8374 2.29523 18.3074 2.43966C17.7992 2.57803 17.0819 2.82647 16.4398 3.23934C15.9965 3.01378 15.5339 2.82131 15.0552 2.66428C14.893 1.91897 14.5616 1.23675 14.3002 0.779859C14.025 0.298828 13.5102 0 12.9564 0H11.0435C10.4898 0 9.97491 0.298828 9.6997 0.779906C9.43838 1.2368 9.10716 1.91902 8.94497 2.66428C8.46623 2.82131 8.00353 3.01388 7.56019 3.23944C6.91809 2.82656 6.20081 2.57808 5.69259 2.4397C5.1607 2.29491 4.58067 2.44866 4.19095 2.83837L2.83837 4.19105C2.44683 4.58264 2.29411 5.15798 2.4397 5.69269C2.57808 6.20091 2.82656 6.91828 3.23944 7.56028C3.01388 8.00362 2.82136 8.46633 2.66428 8.94506C1.91897 9.1073 1.23675 9.43852 0.779953 9.6998C0.298828 9.97491 0 10.4898 0 11.0435V12.9565C0 13.5102 0.298828 14.025 0.779906 14.3002C1.2368 14.5615 1.91906 14.8927 2.66428 15.0549C2.82131 15.5336 3.01388 15.9964 3.23944 16.4397C2.82656 17.0818 2.57808 17.7991 2.43975 18.3073C2.29416 18.842 2.44688 19.4175 2.83842 19.809C2.83842 19.809 4.18969 21.1602 4.19105 21.1616C4.5795 21.5501 5.16309 21.7046 5.69273 21.5603C6.20095 21.4219 6.91828 21.1734 7.56033 20.7606C8.00362 20.9862 8.46638 21.1787 8.94506 21.3358C9.10725 22.081 9.43847 22.7633 9.6998 23.2201C9.97495 23.7012 10.4898 24 11.0435 24H12.9565C13.5102 24 14.0251 23.7012 14.3002 23.2201C14.5616 22.7632 14.8928 22.081 15.055 21.3357C15.5337 21.1787 15.9965 20.9861 16.4398 20.7606C17.0818 21.1734 17.7992 21.4219 18.3074 21.5602C18.8393 21.705 19.4193 21.5513 19.809 21.1616L21.1617 19.8089C21.5532 19.4174 21.7059 18.842 21.5603 18.3073C21.4219 17.799 21.1734 17.0817 20.7606 16.4397C20.9862 15.9964 21.1787 15.5336 21.3358 15.0549C22.081 14.8927 22.7633 14.5615 23.2201 14.3002C23.7012 14.025 24 13.5102 24 12.9565V11.0435C24 10.4898 23.7012 9.97495 23.2201 9.6998ZM21.1172 12.2099C21.1064 12.6756 21.0598 13.1408 20.979 13.5995C20.9778 13.6063 20.9767 13.6131 20.9754 13.6199C20.3036 17.3525 17.3527 20.3034 13.6201 20.9754C13.6132 20.9767 13.6062 20.9778 13.5991 20.9791C12.5437 21.1667 11.4558 21.166 10.4003 20.979C10.3936 20.9779 10.3869 20.9767 10.3802 20.9755C6.6473 20.3036 3.69619 17.3523 3.02447 13.6194C2.92838 13.0853 2.88042 12.5426 2.88042 12C2.88042 11.4575 2.9287 10.9146 3.02447 10.3807C3.69619 6.64777 6.6472 3.69656 10.38 3.02461C10.3869 3.02339 10.3937 3.02217 10.4006 3.02095C11.456 2.83448 12.5435 2.83341 13.5988 3.02086C13.606 3.02213 13.6132 3.02334 13.6204 3.02466C17.3528 3.6967 20.3036 6.64762 20.9755 10.3801C20.9767 10.3869 20.9779 10.3938 20.9791 10.4006C21.0841 10.9972 21.1312 11.6041 21.1172 12.2099ZM18.492 3.11812C18.7823 3.03909 19.0989 3.12272 19.3118 3.33558L20.6644 4.68825C20.8781 4.90191 20.9614 5.21602 20.8819 5.50795C20.7808 5.87925 20.6161 6.3727 20.3641 6.84745C19.5574 5.53828 18.4618 4.44258 17.1525 3.63586C17.6273 3.38381 18.1208 3.21919 18.492 3.11812ZM9.72923 2.44172C9.88673 1.92806 10.1191 1.46292 10.3101 1.12903C10.4603 0.866297 10.7414 0.703125 11.0435 0.703125H12.9565C13.2586 0.703125 13.5397 0.866297 13.6899 1.12898C13.8809 1.46292 14.1133 1.92802 14.2708 2.44172C14.2563 2.4383 14.2417 2.43544 14.2273 2.43206C13.4972 2.26359 12.7495 2.17725 12.0001 2.17725C11.2368 2.17725 10.4719 2.26523 9.72923 2.44172ZM3.33558 4.68825C3.33558 4.68825 4.68802 3.33577 4.6882 3.33558C4.89806 3.12567 5.21766 3.03905 5.50795 3.11812C5.8792 3.21923 6.37266 3.38391 6.84741 3.63586C5.53823 4.44258 4.44253 5.53823 3.63581 6.84745C3.38381 6.37266 3.21919 5.8793 3.11808 5.50795C3.03858 5.21597 3.12192 4.90191 3.33558 4.68825ZM2.44167 14.2708C1.92802 14.1133 1.46288 13.8809 1.12898 13.6899C0.866297 13.5397 0.703125 13.2586 0.703125 12.9565V11.0435C0.703125 10.7414 0.866297 10.4604 1.12898 10.3101C1.46288 10.1191 1.92797 9.88673 2.44167 9.72919C2.43816 9.74395 2.43525 9.75891 2.43183 9.77372C2.26289 10.5023 2.17725 11.252 2.17725 12C2.17725 12.7463 2.26261 13.499 2.43178 14.2261C2.43525 14.241 2.43816 14.256 2.44167 14.2708ZM5.50795 20.8819C5.21775 20.9609 4.90097 20.8777 4.6882 20.6644L3.33558 19.3118C3.12192 19.0981 3.03862 18.784 3.11812 18.492C3.21919 18.1208 3.38386 17.6273 3.63581 17.1525C4.44253 18.4617 5.53819 19.5574 6.84741 20.3641C6.37266 20.6161 5.87925 20.7808 5.50795 20.8819ZM14.2708 21.5583C14.1132 22.072 13.8809 22.5371 13.6898 22.871C13.5396 23.1337 13.2586 23.2968 12.9564 23.2968H11.0435C10.7414 23.2968 10.4603 23.1337 10.3101 22.871C10.1191 22.537 9.88669 22.0719 9.72919 21.5582C9.74391 21.5618 9.75872 21.5647 9.77349 21.568C10.5023 21.7366 11.2519 21.8227 12 21.8227C12.7407 21.8227 13.4993 21.7371 14.2267 21.568C14.2414 21.5647 14.2561 21.5618 14.2708 21.5583ZM20.6644 19.3118C20.6644 19.3118 19.3126 20.6636 19.3118 20.6644C19.0996 20.8765 18.7813 20.9606 18.492 20.8819C18.1208 20.7808 17.6273 20.6161 17.1525 20.3641C18.4617 19.5574 19.5574 18.4618 20.3641 17.1525C20.6161 17.6273 20.7808 18.1207 20.8819 18.492C20.9614 18.784 20.878 19.0981 20.6644 19.3118ZM23.2969 12.9565C23.2969 13.2586 23.1337 13.5396 22.871 13.6899C22.5371 13.8809 22.072 14.1133 21.5583 14.2708C21.5617 14.2563 21.5646 14.2417 21.5679 14.2271C21.8827 12.8705 21.9058 11.4486 21.6343 10.0826C21.6108 9.96455 21.5861 9.84638 21.5583 9.72923C22.072 9.88678 22.5371 10.1191 22.871 10.3102C23.1337 10.4604 23.2969 10.7414 23.2969 11.0436V12.9565Z" fill="black"/>
<path d="M12.0001 7.6394C9.59552 7.6394 7.63928 9.59564 7.63928 12.0002C7.63928 12.7845 7.85064 13.5542 8.25049 14.2264C8.34977 14.3933 8.56544 14.4481 8.73236 14.3488C8.89924 14.2495 8.95403 14.0338 8.85475 13.8669C8.51959 13.3035 8.34241 12.658 8.34241 12.0002C8.34241 9.98334 9.98322 8.34253 12.0001 8.34253C14.0169 8.34253 15.6577 9.98334 15.6577 12.0002C15.6577 14.017 14.0169 15.6578 12.0001 15.6578C11.1632 15.6578 10.345 15.3675 9.69592 14.8402C9.54517 14.7179 9.32383 14.7407 9.20139 14.8914C9.07895 15.0421 9.10188 15.2635 9.25258 15.386C10.0265 16.0147 11.0023 16.361 12.0001 16.361C14.4046 16.361 16.3608 14.4047 16.3608 12.0002C16.3608 9.59564 14.4046 7.6394 12.0001 7.6394Z" fill="black"/>
</g>
<defs>
<clipPath id="clip0">
<rect width="24" height="24" fill="white"/>
</clipPath>
</defs>
</svg>
