<svg width="30" height="30" viewBox="0 0 30 30" fill="none" xmlns="http://www.w3.org/2000/svg">
<g clip-path="url(#clip0)">
<path d="M7.63001 2.44043C5.48899 3.69902 3.69896 5.48906 2.44037 7.63007L4.05931 10.957L7.67923 10.4045C8.37122 9.30409 9.30403 8.37128 10.4044 7.67929L11.7187 4.05937L7.63001 2.44043Z" fill="#FD6F71"/>
<path d="M10.4044 22.3207C9.30403 21.6287 8.37122 20.6959 7.67923 19.5955L4.86322 18.457L2.44037 22.3699C3.69896 24.5109 5.48899 26.301 7.63001 27.5596L11.1913 26.4258L10.4044 22.3207Z" fill="#FD6F71"/>
<path d="M22.3699 2.44043C24.5109 3.69902 26.3009 5.48906 27.5595 7.63007L25.9406 10.957L22.3206 10.4045C21.6286 9.30409 20.6958 8.37128 19.5954 7.67929L18.2812 4.05937L22.3699 2.44043Z" fill="#FD6F71"/>
<path d="M19.5954 22.3207C20.6958 21.6287 21.6286 20.6959 22.3206 19.5955L25.1366 18.457L27.5595 22.3699C26.3009 24.5109 24.5109 26.301 22.3699 27.5596L18.8085 26.4258L19.5954 22.3207Z" fill="#FD6F71"/>
<path d="M4.19818 7.63007C5.32095 5.72003 6.86759 4.09054 8.70819 2.86734L7.63001 2.44043C5.62282 3.62033 3.92408 5.2674 2.68254 7.2328C2.59974 7.36382 2.519 7.49624 2.44037 7.63007L3.30832 9.41366C3.56496 8.79661 3.86244 8.20077 4.19818 7.63007Z" fill="#E34B4C"/>
<path d="M22.37 2.44043L19.5956 7.67928C18.2643 6.84198 16.6888 6.35741 15.0001 6.35741C13.3114 6.35741 11.7358 6.84198 10.4046 7.67928L7.63019 2.44043C9.79171 1.16894 12.3106 0.439453 15.0001 0.439453C17.6895 0.439453 20.2085 1.169 22.37 2.44043Z" fill="#EFEDEE"/>
<path d="M29.5606 15C29.5606 17.6895 28.8311 20.2084 27.5597 22.3699L22.3208 19.5955C23.1581 18.2643 23.6427 16.6887 23.6427 15C23.6427 13.3114 23.1581 11.7358 22.3208 10.4045L27.5597 7.63013C28.8311 9.79165 29.5606 12.3105 29.5606 15Z" fill="#EFEDEE"/>
<path d="M4.19818 22.3699C3.90369 21.8692 3.63867 21.3492 3.40464 20.8125L2.44037 22.3699C3.22699 23.708 4.22121 24.909 5.37896 25.9289C6.07358 26.5408 6.82716 27.0875 7.63001 27.5595L8.7942 27.1889C6.91581 25.9596 5.33835 24.3095 4.19818 22.3699Z" fill="#E34B4C"/>
<path d="M22.37 27.5594C20.2085 28.8309 17.6895 29.5604 15.0001 29.5604C12.3106 29.5604 9.79171 28.8309 7.63019 27.5594L10.4046 22.3206C11.7358 23.1579 13.3114 23.6424 15.0001 23.6424C16.6888 23.6424 18.2643 23.1579 19.5956 22.3206L22.37 27.5594Z" fill="#EFEDEE"/>
<path d="M6.35747 15C6.35747 16.6887 6.84204 18.2643 7.67935 19.5955L2.44049 22.3699C1.16901 20.2084 0.439514 17.6895 0.439514 15C0.439514 12.3106 1.16901 9.79165 2.44049 7.63013L7.67935 10.4045C6.84204 11.7357 6.35747 13.3114 6.35747 15Z" fill="#EFEDEE"/>
<path d="M2.44049 22.3699L3.80179 21.649C2.77658 19.656 2.19732 17.3958 2.19732 15C2.19732 12.6043 2.77658 10.3441 3.80179 8.35106L2.44049 7.63013C1.16901 9.79165 0.439514 12.3106 0.439514 15C0.439514 15.9064 0.523069 16.8147 0.690471 17.7055C0.998966 19.3465 1.59393 20.9309 2.44049 22.3699Z" fill="#D2D2D2"/>
<path d="M8.08745 3.30392C8.5047 2.99419 8.93805 2.70492 9.38794 2.44043C11.3123 1.30846 13.52 0.606621 15.8789 0.466055C15.8078 0.461836 15.7366 0.458086 15.6652 0.454863C15.5206 0.448184 15.3758 0.443555 15.2311 0.441387C15.1542 0.440215 15.0772 0.439453 15 0.439453C13.9915 0.439453 13.0069 0.542051 12.0562 0.737343C10.5 1.05697 8.99934 1.63506 7.63013 2.44043L8.08745 3.30392Z" fill="#D2D2D2"/>
<path d="M15.3844 29.5542C15.4067 29.5537 15.4291 29.5533 15.4514 29.5533C15.5941 29.5487 15.7366 29.5423 15.879 29.5339C13.52 29.3934 11.3123 28.6915 9.388 27.5595C8.93806 27.295 8.5047 27.0058 8.08751 26.696L7.63019 27.5595C7.69775 27.5993 7.76566 27.6385 7.83386 27.6771C8.10732 27.8321 8.38587 27.9782 8.66888 28.1151C9.73229 28.6296 10.8678 29.0185 12.0563 29.2626C13.007 29.4579 13.9916 29.5605 15.0002 29.5605C15.1282 29.5606 15.2563 29.5542 15.3844 29.5542Z" fill="#D2D2D2"/>
<path d="M11.3829 4.21814C11.6256 4.21814 11.8223 4.02138 11.8223 3.77869V3.12402C11.8223 2.88133 11.6256 2.68457 11.3829 2.68457C11.1402 2.68457 10.9434 2.88133 10.9434 3.12402V3.77869C10.9434 4.02138 11.1402 4.21814 11.3829 4.21814Z" fill="black"/>
<path d="M18.6172 4.21814C18.8599 4.21814 19.0566 4.02138 19.0566 3.77869V3.12402C19.0566 2.88133 18.8599 2.68457 18.6172 2.68457C18.3745 2.68457 18.1777 2.88133 18.1777 3.12402V3.77869C18.1777 4.02138 18.3745 4.21814 18.6172 4.21814Z" fill="black"/>
<path d="M14.9999 4.56766C15.4746 4.56766 15.9206 4.36891 16.2236 4.02244C16.3833 3.83969 16.3647 3.56213 16.182 3.40234C15.9992 3.24256 15.7217 3.26119 15.5619 3.44395C15.4259 3.59951 15.221 3.68875 14.9999 3.68875C14.7788 3.68875 14.5739 3.59957 14.438 3.444C14.2782 3.26119 14.0006 3.24262 13.8179 3.40234C13.6351 3.56207 13.6164 3.83969 13.7762 4.02244C14.0791 4.36891 14.5251 4.56766 14.9999 4.56766Z" fill="black"/>
</g>
<defs>
<clipPath id="clip0">
<rect width="30" height="30" fill="white"/>
</clipPath>
</defs>
</svg>
