<svg width="30" height="30" viewBox="0 0 30 30" fill="none" xmlns="http://www.w3.org/2000/svg">
<g clip-path="url(#clip0)">
<path d="M8.03072 14.1728L8.83479 15.8448C9.08656 16.3683 9.58002 16.7345 10.1541 16.824L11.9872 17.1094C13.0879 17.2808 13.514 18.6399 12.7086 19.4092L11.3669 20.6907C10.9469 21.0919 10.751 21.6742 10.8435 22.2478L11.1385 24.0793C11.3156 25.1791 10.1547 26.0046 9.17399 25.4762L7.54092 24.5963C7.02937 24.3208 6.41505 24.3144 5.898 24.5796L4.24731 25.426C3.25602 25.9344 2.1123 25.0855 2.31165 23.9896L2.64399 22.1642C2.7479 21.5927 2.56411 21.0065 2.15212 20.5969L0.836967 19.2883C0.0470962 18.5028 0.501198 17.1526 1.60509 17.0036L3.4437 16.7555C4.01934 16.6779 4.52013 16.3218 4.78243 15.8036L5.62037 14.1483C6.12368 13.1545 7.54801 13.1689 8.03072 14.1728Z" fill="#F4E74D"/>
<path d="M11.9872 17.1094L10.1541 16.824C9.58008 16.7345 9.08661 16.3683 8.83484 15.8448L8.03078 14.1728C7.54807 13.1689 6.12373 13.1545 5.62042 14.1483L4.91547 15.5409C5.19356 15.9808 5.56641 16.5076 6.03905 17.046C6.78406 17.8944 7.10999 19.0292 6.93535 20.1448C6.75888 21.2716 6.66733 22.8033 7.02347 24.4141C7.202 24.4471 7.37686 24.5078 7.54097 24.5963L9.17427 25.4762C10.1548 26.0046 11.3157 25.1791 11.1385 24.0793L10.8435 22.2478C10.7513 21.6742 10.947 21.0919 11.3672 20.6907L12.7087 19.4092C13.5141 18.6399 13.0879 17.2808 11.9872 17.1094Z" fill="#EEDB00"/>
<path d="M24.4657 14.3628L25.2697 16.0345C25.5217 16.5582 26.015 16.9244 26.589 17.0137L28.4221 17.2993C29.5228 17.4705 29.9492 18.8296 29.1435 19.5991L27.8021 20.8804C27.3818 21.2816 27.1861 21.8639 27.2784 22.4377L27.5734 24.2692C27.7506 25.369 26.5897 26.1944 25.6091 25.6661L23.9758 24.786C23.4643 24.5105 22.85 24.5043 22.3332 24.7693L20.6822 25.616C19.6909 26.1243 18.5472 25.2754 18.7468 24.1795L19.0789 22.3542C19.1831 21.7827 18.999 21.1965 18.587 20.7866L17.2719 19.4783C16.4823 18.6925 16.9361 17.3426 18.04 17.1936L19.8786 16.9455C20.4545 16.8679 20.9551 16.5117 21.2176 15.9933L22.0555 14.3383C22.5586 13.3445 23.9829 13.3589 24.4657 14.3628Z" fill="#F4E74D"/>
<path d="M25.137 15.7583L24.4657 14.3628C23.9829 13.3589 22.5586 13.3445 22.0555 14.3383L21.2176 15.9933C20.9551 16.5117 20.4545 16.8676 19.8786 16.9455L18.04 17.1936C16.9361 17.3423 16.4823 18.6925 17.2719 19.4783L18.5873 20.7866C18.999 21.1963 19.1831 21.7827 19.0789 22.3542L18.7468 24.1793C18.5472 25.2754 19.6909 26.1241 20.6822 25.616L22.3332 24.7693C22.5888 24.6384 22.8683 24.5736 23.1473 24.575C23.4261 23.0488 23.316 21.4142 23.151 20.3592C22.9763 19.2437 23.3022 18.1089 24.0473 17.2604C24.397 16.8622 24.825 16.2357 25.137 15.7583Z" fill="#EEDB00"/>
<path d="M16.591 8.28655L17.6157 10.4174C17.9365 11.0846 18.5653 11.5513 19.297 11.6653L21.6334 12.029C23.0363 12.2476 23.5796 13.9798 22.5531 14.9603L20.8431 16.5936C20.3075 17.1049 20.0581 17.8472 20.1759 18.5782L20.5518 20.9126C20.7774 22.3143 19.2979 23.3664 18.048 22.6931L15.9666 21.5713C15.3147 21.2202 14.5317 21.2122 13.8728 21.55L11.7686 22.629C10.5054 23.2769 9.04769 22.1948 9.30175 20.7982L9.72518 18.4718C9.85794 17.7433 9.62356 16.9962 9.09851 16.4739L7.42218 14.8063C6.41555 13.8049 6.99417 12.0842 8.4011 11.8944L10.7444 11.5781C11.4782 11.4792 12.1165 11.0254 12.4509 10.3648L13.5189 8.2552C14.1602 6.98856 15.9757 7.00688 16.591 8.28655Z" fill="#F9EE80"/>
<path d="M11.7295 15.1821C11.7295 14.6502 11.188 14.219 10.5201 14.219C9.85197 14.219 9.31067 14.6502 9.31067 15.1821C9.31067 15.7141 9.85197 16.1453 10.5201 16.1453C11.188 16.1453 11.7295 15.7141 11.7295 15.1821Z" fill="#FF83B4"/>
<path d="M20.6893 15.1821C20.6893 14.6502 20.148 14.219 19.4799 14.219C18.812 14.219 18.2705 14.6502 18.2705 15.1821C18.2705 15.7141 18.812 16.1453 19.4799 16.1453C20.148 16.1453 20.6893 15.7141 20.6893 15.1821Z" fill="#FF83B4"/>
<path d="M5.99967 4.59131L6.286 5.11477C6.57164 5.63707 7.0008 6.06646 7.52311 6.35187L8.04656 6.6382C8.58237 6.9314 8.58237 7.70067 8.04656 7.99387L7.52311 8.2802C7.0008 8.56562 6.57164 8.995 6.286 9.51731L5.99967 10.0408C5.70647 10.5766 4.9372 10.5766 4.644 10.0408L4.3579 9.51731C4.07225 8.995 3.64287 8.56562 3.12056 8.2802L2.59711 7.99387C2.0613 7.70067 2.0613 6.9314 2.59711 6.6382L3.12056 6.35187C3.64287 6.06646 4.07225 5.63707 4.3579 5.11477L4.644 4.59131C4.9372 4.0555 5.70647 4.0555 5.99967 4.59131Z" fill="#B0F0EF"/>
<path d="M25.5563 7.5958L25.7556 7.96018C25.9543 8.32364 26.2532 8.62256 26.6167 8.82146L26.9811 9.02082C27.3541 9.22475 27.3541 9.76033 26.9811 9.96427L26.6167 10.1636C26.2532 10.3623 25.9543 10.6612 25.7556 11.0247L25.5563 11.3891C25.3523 11.7619 24.8168 11.7619 24.6126 11.3891L24.4135 11.0247C24.2146 10.6612 23.9159 10.3623 23.5522 10.1636L23.1878 9.96427C22.815 9.76033 22.815 9.22475 23.1878 9.02082L23.5522 8.82146C23.9159 8.62256 24.2146 8.32364 24.4135 7.96018L24.6126 7.5958C24.8168 7.22295 25.3523 7.22295 25.5563 7.5958Z" fill="#B0F0EF"/>
<path d="M18.6216 13.4114C18.3787 13.4114 18.1821 13.6082 18.1821 13.8508V14.5805C18.1821 14.8231 18.3787 15.02 18.6216 15.02C18.8642 15.02 19.061 14.8231 19.061 14.5805V13.8508C19.061 13.6082 18.8642 13.4114 18.6216 13.4114Z" fill="black"/>
<path d="M11.3786 13.4114C11.1358 13.4114 10.9391 13.6082 10.9391 13.8508V14.5805C10.9391 14.8231 11.1358 15.02 11.3786 15.02C11.6212 15.02 11.8181 14.8231 11.8181 14.5805V13.8508C11.8181 13.6082 11.6212 13.4114 11.3786 13.4114Z" fill="black"/>
<path d="M15.9087 14.0153C15.8343 13.9666 15.5054 13.84 15.3001 14.1414C15.2017 14.2859 15.0581 14.3033 15 14.3033C14.9416 14.3033 14.7959 14.2875 14.6997 14.1414C14.5665 13.9384 14.2941 13.8821 14.0914 14.0153C13.8883 14.1485 13.832 14.4211 13.9652 14.6239C14.1948 14.9734 14.5816 15.1822 15 15.1822C15.4182 15.1822 15.805 14.9734 16.0348 14.6239C16.168 14.4211 16.1115 14.1485 15.9087 14.0153Z" fill="black"/>
</g>
<defs>
<clipPath id="clip0">
<rect width="30" height="30" fill="white"/>
</clipPath>
</defs>
</svg>
