<svg width="30" height="30" viewBox="0 0 30 30" fill="none" xmlns="http://www.w3.org/2000/svg">
<g clip-path="url(#clip0)">
<path d="M15.8187 1.19545L16.5923 2.78L18.3224 3.03406C19.4231 3.19565 19.8628 4.56299 19.0661 5.3476L17.8143 6.58104L18.1098 8.32237C18.298 9.43039 17.1471 10.2754 16.1625 9.7522L14.6152 8.93005L13.068 9.7522C12.0833 10.2754 10.9325 9.43039 11.1207 8.32237L11.4162 6.58104L10.1642 5.3476C9.36766 4.56299 9.80735 3.19565 10.908 3.03406L12.6382 2.78L13.4118 1.19545C13.9041 0.187454 15.3264 0.187454 15.8187 1.19545Z" fill="#F9EE80"/>
<path d="M13.7768 8.11013C13.8334 7.59446 13.6505 7.08131 13.2811 6.71716L12.7233 6.16761C11.9959 5.45098 12.3971 4.20243 13.4024 4.05503L14.1833 3.94036C14.6887 3.86597 15.1337 3.5682 15.3948 3.1292L16.1462 1.86623L15.8187 1.19538C15.3293 0.193336 13.9011 0.193336 13.4118 1.19538L12.6382 2.77993L10.908 3.03399C9.80735 3.19558 9.36766 4.56292 10.1642 5.34753L11.4162 6.58097L11.1207 8.3223C10.9325 9.43032 12.0833 10.2754 13.068 9.75213L13.6297 9.45367L13.7768 8.11013Z" fill="#F4E74D"/>
<path d="M6.50064 17.258L7.27426 18.8423L9.00415 19.0963C10.1051 19.2581 10.5445 20.6255 9.74801 21.4101L8.49626 22.6433L8.79175 24.3849C8.97966 25.4929 7.82907 26.3379 6.84442 25.8147L5.29718 24.9926L3.74971 25.8147C2.76506 26.3379 1.61447 25.4929 1.80238 24.3849L2.09787 22.6433L0.846113 21.4101C0.0496045 20.6255 0.489058 19.2581 1.58998 19.0963L3.31987 18.8423L4.09349 17.258C4.58581 16.25 6.00831 16.25 6.50064 17.258Z" fill="#F9EE80"/>
<path d="M4.4587 24.1684C4.51523 23.6525 4.33258 23.1394 3.96294 22.7752L3.40515 22.2257C2.67777 21.509 3.07923 20.2607 4.08425 20.1131L4.86519 19.9984C5.37056 19.924 5.81551 19.6262 6.07666 19.1875L6.82808 17.9243L6.50055 17.2537C6.0112 16.2514 4.58298 16.2514 4.09363 17.2537L3.32001 18.838L1.58989 19.092C0.4892 19.2536 0.0495175 20.621 0.846255 21.4058L2.09801 22.639L1.80252 24.3803C1.61438 25.4886 2.7652 26.3336 3.74985 25.8104L4.31176 25.5117L4.4587 24.1684Z" fill="#F4E74D"/>
<path d="M25.9062 17.258L26.6798 18.8423L28.4099 19.0963C29.5106 19.2581 29.9503 20.6255 29.1535 21.4101L27.9018 22.6433L28.1973 24.3849C28.3854 25.4929 27.2346 26.3379 26.2499 25.8147L24.7027 24.9926L23.1552 25.8147C22.1706 26.3379 21.02 25.4929 21.2079 24.3849L21.5034 22.6433L20.2516 21.4101C19.4551 20.6255 19.8946 19.2581 20.9955 19.0963L22.7254 18.8423L23.499 17.258C23.9916 16.25 25.4138 16.25 25.9062 17.258Z" fill="#F9EE80"/>
<path d="M23.8644 24.1684C23.9209 23.6525 23.7381 23.1394 23.3686 22.7752L22.8106 22.2257C22.0835 21.509 22.4847 20.2607 23.4899 20.1131L24.2709 19.9984C24.776 19.924 25.2212 19.6262 25.4824 19.1873L26.2338 17.9243L25.9063 17.2537C25.4169 16.2514 23.9887 16.2514 23.4993 17.2537L22.7257 18.838L20.9956 19.092C19.8949 19.2536 19.4552 20.621 20.2517 21.4058L21.5037 22.639L21.2082 24.3803C21.0201 25.4886 22.1709 26.3336 23.1556 25.8104L23.7172 25.5117L23.8644 24.1684Z" fill="#F4E74D"/>
<path d="M7.64424 6.68941L5.38564 6.47312C4.86996 6.42482 4.41289 6.80614 4.36391 7.32708C4.3163 7.83382 4.67313 8.28495 5.16705 8.35476C3.52757 10.0098 2.44542 12.1634 2.11057 14.5201C2.03687 15.0381 2.38934 15.5485 2.90501 15.5927C3.55573 15.6483 3.89905 15.2617 3.96634 14.7895C4.24443 12.8326 5.14668 11.045 6.51356 9.67426C6.51356 9.67426 6.43986 10.7173 7.44809 10.7173C7.94362 10.7173 8.35789 10.3243 8.38353 9.81846L8.49202 7.68116C8.52383 6.91852 8.04364 6.72764 7.64424 6.68941Z" fill="#76E7E7"/>
<path d="M10.0991 26.9216L11.043 29.0069C11.2593 29.4821 11.8148 29.6917 12.2856 29.4741C12.7436 29.2623 12.9519 28.7245 12.7644 28.2573C15.0024 28.8648 17.3888 28.7352 19.5757 27.8499C20.0564 27.6554 20.3175 27.0919 20.0974 26.6181C19.8199 26.0209 19.3169 25.9136 18.8788 26.091C17.0628 26.8259 15.08 26.9298 13.222 26.4189C13.222 26.4189 14.1526 25.9621 13.6484 25.0795C13.4007 24.6456 12.8569 24.4796 12.4106 24.7101L10.5251 25.6838C9.85558 26.0372 9.93202 26.5531 10.0991 26.9216Z" fill="#76E7E7"/>
<path d="M26.6947 14.771L28.0094 12.9022C28.3085 12.4751 28.2104 11.8841 27.7885 11.5808C27.3781 11.286 26.8133 11.3725 26.5066 11.7701C25.908 9.50761 24.6039 7.4836 22.7517 6.01189C22.3448 5.68871 21.7314 5.74181 21.4354 6.17119C21.0624 6.71273 21.2221 7.20666 21.5931 7.50168C23.131 8.72346 24.2113 10.4071 24.7027 12.2888C24.7027 12.2888 23.8458 11.7028 23.3416 12.5854C23.0937 13.0191 23.2232 13.578 23.6442 13.8534L25.421 15.017C26.0586 15.4263 26.4624 15.1015 26.6947 14.771Z" fill="#76E7E7"/>
</g>
<defs>
<clipPath id="clip0">
<rect width="30" height="30" fill="white"/>
</clipPath>
</defs>
</svg>
