<svg width="16" height="16" viewBox="0 0 16 16" fill="none" xmlns="http://www.w3.org/2000/svg">
<g clip-path="url(#clip0)">
<path d="M15.6575 1.001C15.5862 0.851465 15.4514 0.741357 15.2913 0.699243C14.6721 0.536768 13.0256 0.251489 11.8959 1.40957L15.1541 5.27981C15.1541 5.27981 16.6559 3.09585 15.6575 1.001Z" fill="#FFB25A"/>
<path d="M14.0962 4.80106L14.0929 4.80594C14.104 4.78946 15.1004 3.27884 14.6082 1.85868C14.442 1.8278 14.2366 1.80107 14.0131 1.79814C13.4742 1.79057 12.9252 1.93339 12.5397 2.32865L14.0962 4.80106Z" fill="#FF8F71"/>
<path d="M0.342523 1.001C0.413812 0.851465 0.548578 0.741357 0.708734 0.699243C1.32787 0.536768 2.97436 0.251489 4.10412 1.40957L0.845941 5.27981C0.845941 5.27981 -0.65589 3.09585 0.342523 1.001Z" fill="#FFB25A"/>
<path d="M1.90381 4.80106L1.9071 4.80594C1.896 4.78946 0.899658 3.27884 1.39185 1.85868C1.55798 1.8278 1.76343 1.80107 1.98694 1.79814C2.52576 1.79057 3.07483 1.93339 3.46033 2.32865L1.90381 4.80106Z" fill="#FF8F71"/>
<path d="M2.93298 13.7233C1.34912 12.322 0.350583 10.2744 0.350583 7.99329C0.350583 3.76868 3.77551 0.34375 8 0.34375C12.2246 0.34375 15.6495 3.76868 15.6495 7.99329C15.6495 10.2744 14.6509 12.322 13.067 13.7233H2.93298Z" fill="#F8D070"/>
<path d="M2.93298 13.7233H3.8988C2.31494 12.322 1.3164 10.2744 1.3164 7.99329C1.3164 3.93091 4.4834 0.608643 8.48291 0.359375C8.45092 0.361328 8.41638 0.355469 8.38415 0.353882C8.25671 0.347778 8.12915 0.34375 8.00146 0.34375C8.00097 0.34375 8.00049 0.34375 8 0.34375C3.77551 0.34375 0.350583 3.76868 0.350583 7.99329C0.350583 9.09277 0.587888 10.1893 1.04785 11.1882C1.49548 12.1604 2.14111 13.0226 2.93298 13.7233Z" fill="#FFB25A"/>
<path d="M9.00817 8.48975C11.3273 8.95715 13.0736 11.0063 13.0736 13.4631C13.0736 13.5505 13.0714 13.6371 13.067 13.7233C11.7178 14.9178 9.94335 15.6427 7.99999 15.6427C6.05663 15.6427 4.28222 14.9178 2.93297 13.7233C2.92858 13.6371 2.92638 13.5505 2.92638 13.4631C2.92638 11.0063 4.67272 8.95715 6.99181 8.48975H9.00817Z" fill="#E8E8E8"/>
<path d="M8.28893 15.6367C8.35375 15.6343 8.41845 15.6311 8.4829 15.6271C6.72924 15.5178 5.13537 14.818 3.8988 13.7231C3.56371 13.4266 3.25512 13.101 2.97631 12.7505C2.94359 12.9834 2.92638 13.2212 2.92638 13.463C2.92638 13.5503 2.92858 13.6368 2.93297 13.7231C3.35461 14.0964 3.81786 14.4238 4.31469 14.6976C4.5631 14.8345 4.81994 14.958 5.08422 15.067C5.98278 15.438 6.96752 15.6426 7.99999 15.6426C8.05089 15.6426 8.2434 15.6384 8.28893 15.6367Z" fill="#D2D1D7"/>
<path d="M9.00818 8.48987C8.95764 9.0022 8.52563 9.40259 8 9.40259C7.47436 9.40259 7.04223 9.0022 6.99182 8.48987C7.31787 8.42432 7.6549 8.38965 8 8.38965C8.34509 8.38965 8.68213 8.42432 9.00818 8.48987Z" fill="#333A41"/>
<path d="M5.34509 2.05897L5.07776 2.15674C4.83972 2.24378 4.66028 2.44324 4.59888 2.68922L4.58704 2.73609C4.47583 3.18104 4.77869 3.62305 5.23376 3.67994L5.85486 3.75757C6.15186 3.79468 6.44312 3.65504 6.60022 3.40027C6.81799 3.047 6.71423 2.5846 6.36633 2.3584L6.02429 2.13599C5.82263 2.00489 5.57105 1.97632 5.34509 2.05897Z" fill="#DE8957"/>
<path d="M5.91027 5.36744L5.89513 5.3086C5.80309 4.95033 5.42858 4.74318 5.07605 4.8556C4.83984 4.93092 4.66797 5.13526 4.63403 5.38087L4.62622 5.43763C4.57581 5.8025 4.84131 6.13514 5.20813 6.167L5.23108 6.16895C5.67333 6.2074 6.02074 5.79737 5.91027 5.36744Z" fill="#DE8957"/>
<path d="M2.11084 5.80525C1.89331 5.96968 1.79858 6.25044 1.87183 6.51302L1.90405 6.6285C1.98987 6.93575 2.28223 7.13838 2.59998 7.11104L2.61316 7.10994C3.05603 7.07186 3.33679 6.61751 3.17297 6.20442L3.12756 6.09004C2.96606 5.68257 2.46057 5.54097 2.11084 5.80525Z" fill="#DE8957"/>
<path d="M2.49451 8.5687L2.21985 8.619C1.9397 8.67039 1.72412 8.89585 1.68542 9.17795L1.66577 9.32114C1.61719 9.67527 1.85962 10.0036 2.21228 10.0615L2.29578 10.0752C2.50342 10.1092 2.71472 10.0422 2.86475 9.89475L3.07556 9.68747C3.29944 9.4675 3.33716 9.12034 3.16602 8.8574C3.02087 8.63462 2.7561 8.52073 2.49451 8.5687Z" fill="#DE8957"/>
<path d="M10.6549 2.05897L10.9222 2.15674C11.1603 2.24378 11.3397 2.44324 11.4011 2.68922L11.413 2.73609C11.5242 3.18104 11.2213 3.62305 10.7662 3.67994L10.1451 3.75757C9.84814 3.79468 9.55688 3.65504 9.39978 3.40027C9.18201 3.047 9.28589 2.5846 9.63367 2.3584L9.97571 2.13599C10.1774 2.00489 10.429 1.97632 10.6549 2.05897Z" fill="#DE8957"/>
<path d="M10.0897 5.36744L10.1049 5.3086C10.1969 4.95033 10.5714 4.74318 10.924 4.8556C11.1602 4.93092 11.332 5.13526 11.366 5.38087L11.3738 5.43763C11.4242 5.8025 11.1587 6.13514 10.7919 6.167L10.7689 6.16895C10.3267 6.2074 9.97926 5.79737 10.0897 5.36744Z" fill="#DE8957"/>
<path d="M13.8892 5.80525C14.1067 5.96968 14.2014 6.25044 14.1282 6.51302L14.0959 6.6285C14.0101 6.93575 13.7178 7.13838 13.4 7.11104L13.3868 7.10994C12.9441 7.07186 12.6632 6.61751 12.827 6.20442L12.8724 6.09004C13.0339 5.68257 13.5394 5.54097 13.8892 5.80525Z" fill="#DE8957"/>
<path d="M13.5055 8.5687L13.7802 8.619C14.0603 8.67039 14.2759 8.89585 14.3146 9.17795L14.3342 9.32114C14.3828 9.67527 14.1404 10.0036 13.7877 10.0615L13.7042 10.0752C13.4966 10.1092 13.2853 10.0422 13.1353 9.89475L12.9245 9.68747C12.7006 9.4675 12.6629 9.12034 12.834 8.8574C12.9791 8.63462 13.2439 8.52073 13.5055 8.5687Z" fill="#DE8957"/>
<path d="M11.1678 7.58765C11.0344 7.58765 10.9264 7.69568 10.9264 7.8291V8.44495C10.9264 8.57837 11.0344 8.6864 11.1678 8.6864C11.3011 8.6864 11.4093 8.57837 11.4093 8.44495V7.8291C11.4093 7.69568 11.3011 7.58765 11.1678 7.58765Z" fill="#333A41"/>
<path d="M4.83227 7.58765C4.69885 7.58765 4.59082 7.69568 4.59082 7.8291V8.44495C4.59082 8.57837 4.69885 8.6864 4.83227 8.6864C4.96557 8.6864 5.07373 8.57837 5.07373 8.44495V7.8291C5.07373 7.69568 4.96557 7.58765 4.83227 7.58765Z" fill="#333A41"/>
<path d="M9.16712 10.0834C9.06665 9.99559 8.91419 10.0058 8.82642 10.1062C8.74829 10.1955 8.63086 10.2467 8.50403 10.2467C8.37732 10.2467 8.25977 10.1955 8.18176 10.1062C8.13623 10.0547 8.06885 10.0239 7.99988 10.0239C7.93128 10.0239 7.8634 10.0545 7.81824 10.1062C7.74011 10.1955 7.62268 10.2467 7.49585 10.2467C7.36914 10.2467 7.25159 10.1955 7.17358 10.1062C7.08581 10.0058 6.93323 9.99559 6.83288 10.0834C6.73254 10.1711 6.72217 10.3236 6.81006 10.4241C6.97973 10.6183 7.22973 10.7296 7.49585 10.7296C7.67834 10.7296 7.85327 10.6772 8 10.5816C8.14661 10.6772 8.32153 10.7296 8.50403 10.7296C8.77014 10.7296 9.02015 10.6183 9.18995 10.4241C9.27771 10.3236 9.26746 10.1711 9.16712 10.0834Z" fill="#333A41"/>
</g>
<defs>
<clipPath id="clip0">
<rect width="16" height="16" fill="white"/>
</clipPath>
</defs>
</svg>
