<svg width="16" height="16" viewBox="0 0 16 16" fill="none" xmlns="http://www.w3.org/2000/svg">
<g clip-path="url(#clip0)">
<path d="M5.36145 14.1495H5.6869V12.5087C5.6869 12.239 5.9054 12.0205 6.17506 12.0205C6.44459 12.0205 6.66309 12.239 6.66309 12.5087V14.1495H7.73707C8.32924 14.1495 8.81093 14.6313 8.81093 15.2235C8.81093 15.493 8.59242 15.7117 8.32277 15.7117C8.05323 15.7117 7.83461 15.493 7.83461 15.2235C7.83461 15.1697 7.7909 15.1259 7.73695 15.1259H5.36145C5.30762 15.1259 5.2638 15.1697 5.2638 15.2235C5.2638 15.493 5.04529 15.7117 4.77564 15.7117C4.50611 15.7117 4.2876 15.493 4.2876 15.2235C4.2876 14.6313 4.76929 14.1495 5.36145 14.1495Z" fill="#50E0E0"/>
<path d="M0.60168 15.3798L3.39929 11.7021C3.72253 12.1493 3.90857 12.7023 3.89526 13.2996C3.86426 14.6981 2.72241 15.8379 1.32373 15.8665C1.13317 15.8704 0.94714 15.854 0.767574 15.8192C0.566768 15.7804 0.477779 15.5425 0.60168 15.3798Z" fill="#4A5660"/>
<path d="M3.39929 11.7021L0.60168 15.3798C0.477779 15.5426 0.566768 15.7804 0.767574 15.8192C0.907222 15.8463 1.05102 15.8621 1.19763 15.8658L3.781 12.4701C3.6958 12.1916 3.56604 11.9327 3.39929 11.7021Z" fill="#3D4851"/>
<path d="M6.17493 12.0205C5.9054 12.0205 5.68677 12.239 5.68677 12.5087V13.8064H6.00379C6.22595 13.8064 6.44592 13.7919 6.66309 13.765V12.5087C6.66309 12.239 6.44458 12.0205 6.17493 12.0205Z" fill="#00BCB9"/>
<path d="M10.4179 2.28748C10.235 1.89307 9.98438 1.53674 9.68079 1.2334C9.01527 0.567993 8.0962 0.15625 7.08057 0.15625C5.04993 0.15625 3.4032 1.80261 3.4032 3.83362V9.75635H2.1233C2.1233 11.6377 3.64832 13.1626 5.52955 13.1626H6.00379C7.92994 13.1626 9.58839 12.0171 10.3356 10.3705L10.4179 2.28748Z" fill="#3D4851"/>
<path d="M4.36902 3.83362C4.36902 1.96631 5.76099 0.424316 7.56348 0.187866C7.40552 0.167114 7.24427 0.15625 7.08057 0.15625C5.04993 0.15625 3.4032 1.80261 3.4032 3.83362V9.75635H4.36902V3.83362Z" fill="#333A41"/>
<path d="M3.08912 9.75635H2.1233C2.1233 11.6377 3.64832 13.1627 5.52955 13.1627H6.00379C6.09156 13.1627 6.17872 13.1594 6.26539 13.1548C4.49134 13.0365 3.08912 11.5604 3.08912 9.75635Z" fill="#333A41"/>
<path d="M6.04114 4.74597C6.14307 5.79187 6.80298 6.4115 7.58923 7.01477C8.78808 7.93445 10.2529 8.70899 10.3356 10.3706C10.6069 9.77246 10.7579 9.10791 10.7579 8.40833V3.83374C10.7579 3.28149 10.6362 2.75757 10.4178 2.2876C9.95935 1.94397 9.38989 1.74023 8.77283 1.74023C7.17371 1.74023 5.88684 3.16528 6.04114 4.74597Z" fill="#E8E8E8"/>
<path d="M14.3126 3.81482C13.2904 2.87537 11.9009 2.2876 10.4179 2.2876C10.6063 3.98377 9.72181 4.50574 9.50599 5.32092L10.6278 6.1117L12.6672 6.43359L14.3126 3.81482Z" fill="#FF8F71"/>
<path d="M12.6672 5.67224V6.43347L14.0991 6.6593L15.8519 7.43542C15.9258 7.46118 16.0026 7.40417 15.9999 7.32617C15.9501 5.96838 15.3045 4.72595 14.3126 3.8147C13.3854 3.92603 12.6672 4.71521 12.6672 5.67224Z" fill="#4A5660"/>
<path d="M9.45911 5.66197C9.45105 6.45702 10.1305 7.08678 10.9246 7.05321C14.0263 6.92235 15.424 7.28783 15.8519 7.43553C13.4232 4.87083 9.50598 5.3209 9.50598 5.3209C9.47742 5.42833 9.46045 5.54088 9.45911 5.66197Z" fill="#F75747"/>
<path d="M8.60328 4.02319C8.73658 4.02319 8.84473 3.91504 8.84473 3.78174V3.32593C8.84473 3.19263 8.73658 3.08447 8.60328 3.08447C8.46998 3.08447 8.36182 3.19263 8.36182 3.32593V3.78174C8.36182 3.91504 8.46998 4.02319 8.60328 4.02319Z" fill="#333A41"/>
<path d="M7.98963 4.80787H8.56605C8.69935 4.80787 8.80751 4.69983 8.80751 4.56641C8.80751 4.43311 8.69935 4.32495 8.56605 4.32495H7.98963C7.85621 4.32495 7.74817 4.43311 7.74817 4.56641C7.74817 4.69983 7.85621 4.80787 7.98963 4.80787Z" fill="#FF8997"/>
<path d="M0.0596874 11.5336L3.01757 7.31451C3.60376 6.47845 4.72046 6.20928 5.62317 6.68646C6.73828 7.27593 7.05298 8.73309 6.27295 9.72443C5.19983 11.0882 3.31018 12.5378 0.276851 12.046C0.0375926 12.0073 -0.0794729 11.7321 0.0596874 11.5336Z" fill="#4A5660"/>
<path d="M1.24267 12.046C1.00341 12.0073 0.886348 11.7322 1.02551 11.5337L3.98339 7.31456C4.27465 6.89891 4.69714 6.62364 5.1593 6.51024C4.36425 6.3148 3.50647 6.6173 3.01757 7.31456L0.0596873 11.5337C-0.0794729 11.7322 0.0375926 12.0073 0.276851 12.0461C0.871089 12.1424 1.42114 12.1639 1.93005 12.1266C1.70776 12.1108 1.47863 12.0843 1.24267 12.046Z" fill="#3D4851"/>
</g>
<defs>
<clipPath id="clip0">
<rect width="16" height="16" fill="white"/>
</clipPath>
</defs>
</svg>
