<svg width="24" height="24" viewBox="0 0 24 24" fill="none" xmlns="http://www.w3.org/2000/svg">
<g clip-path="url(#clip0)">
<path d="M4.32595 3.64166C4.17244 3.48815 4.07751 3.27609 4.07751 3.04185C4.07751 2.57338 4.4573 2.1936 4.92576 2.1936H12.4114C12.8799 2.1936 13.2597 2.57334 13.2597 3.04185C13.2597 3.51032 12.8799 3.8901 12.4114 3.8901H4.92572C4.69148 3.8901 4.47947 3.79518 4.32595 3.64166Z" fill="#404B58"/>
<path d="M8.8586 23.3579L0.63682 15.1362C-0.212273 14.2871 -0.212273 12.9105 0.63682 12.0614L10.7014 1.99683L21.9979 13.2934L11.9334 23.3579C11.0843 24.207 9.7076 24.207 8.8586 23.3579Z" fill="#E8E8E8"/>
<path opacity="0.1" d="M5.62695 7.07079L16.9231 18.3669L17.4203 17.8698L6.12413 6.57361L5.62695 7.07079Z" fill="black"/>
<path opacity="0.1" d="M10.7014 1.99683L6.94556 5.75269C6.95587 6.26114 7.15378 6.76392 7.54556 7.14098C8.3294 7.89539 9.57642 7.8862 10.3491 7.11361L10.7173 6.7454C10.9867 6.47597 11.4235 6.47597 11.693 6.7454L13.3816 8.43408C13.6511 8.70351 13.6511 9.14034 13.3816 9.40978L11.1862 11.6051C10.3925 12.3989 10.3773 13.7133 11.1861 14.4918C11.9699 15.2462 13.217 15.2371 13.9897 14.4645L16.213 12.2412C16.4824 11.9717 16.9192 11.9717 17.1887 12.2412L17.9721 13.0596C17.9754 13.063 17.9786 13.0663 17.9818 13.0697C18.5012 13.615 18.4809 14.479 17.9483 15.0116L10.3117 22.6482C9.71446 23.2455 8.74612 23.2455 8.14884 22.6482L8.85857 23.3579C9.70767 24.207 11.0843 24.207 11.9333 23.3579L21.9979 13.2934L10.7014 1.99683Z" fill="black"/>
<path d="M19.9961 21.4401C19.9961 21.993 20.2201 22.4935 20.5825 22.8559C20.9448 23.2182 21.4453 23.4422 21.9982 23.4423C23.1039 23.4422 24.0003 22.5459 24.0003 21.4401V15.2666C24.0003 13.4763 23.2893 11.7592 22.0237 10.4928L12.1452 0.608885C11.3492 -0.1871 10.0436 -0.203506 9.26138 0.606072C8.78991 1.09399 8.61553 1.76224 8.73764 2.38385C8.80838 2.7439 8.68505 3.11496 8.4256 3.37442L8.00864 3.79137C7.21482 4.5852 7.19972 5.89962 8.0086 6.67812C8.79244 7.43253 10.0395 7.42334 10.8121 6.65074L11.1803 6.28254C11.4497 6.0131 11.8866 6.0131 12.156 6.28254L13.8447 7.97121C14.1141 8.24065 14.1141 8.67748 13.8447 8.94692L11.6493 11.1423C10.8555 11.9361 10.8404 13.2505 11.6491 14.029C12.4329 14.7834 13.6801 14.7743 14.4527 14.0017L16.676 11.7784C16.9455 11.5089 17.3823 11.5089 17.6517 11.7784L18.4352 12.5968C19.436 13.6423 19.9948 15.0336 19.9951 16.4809L19.9961 21.4401Z" fill="#79C6E4"/>
<path opacity="0.1" d="M12.1317 6.26088L11.4547 5.58391C11.1852 5.31448 10.7484 5.31448 10.479 5.58391L10.1814 5.88143C9.47454 6.5883 8.37082 6.65566 7.58777 6.08435C7.68682 6.30129 7.82655 6.50327 8.00824 6.67812C8.79208 7.43252 10.0391 7.42338 10.8117 6.65074L11.1799 6.28254C11.4417 6.02084 11.861 6.01413 12.1317 6.26088ZM22.1415 10.6141C22.9354 11.7437 23.3697 13.0981 23.3697 14.4974V20.6709C23.3697 21.7766 22.4733 22.6729 21.3676 22.6729C20.924 22.6729 20.5142 22.5284 20.1824 22.2842C20.2819 22.4979 20.4176 22.6912 20.5822 22.8559C20.9445 23.2182 21.445 23.4423 21.9979 23.4423C23.1036 23.4423 24 22.5459 24 21.4402V15.2667C24 13.5328 23.3331 11.8677 22.1415 10.6141ZM15.9894 11.0651L13.8221 13.2323C13.1152 13.9392 12.0115 14.0066 11.2285 13.4352C11.3275 13.6522 11.4672 13.8541 11.6489 14.029C12.4327 14.7834 13.6798 14.7743 14.4524 14.0017L16.6758 11.7784C16.9366 11.5175 17.3539 11.51 17.6247 11.7542L16.9651 11.0651C16.6956 10.7956 16.2588 10.7956 15.9894 11.0651Z" fill="black"/>
<path d="M6.43297 12.8419C6.34297 12.8419 6.25302 12.8076 6.18439 12.7389C6.0471 12.6016 6.0471 12.3791 6.18439 12.2418L6.61686 11.8093C6.75416 11.672 6.97677 11.6719 7.11402 11.8093C7.25132 11.9466 7.25132 12.1691 7.11402 12.3065L6.68155 12.739C6.61293 12.8076 6.52293 12.8419 6.43297 12.8419Z" fill="#404B58"/>
<path d="M7.90797 16.0864C7.5048 15.6832 7.5048 15.0296 7.90797 14.6264L8.44272 14.0917C8.5503 13.9841 8.72472 13.9841 8.83225 14.0917L9.90264 15.1621C10.0102 15.2696 10.0102 15.4441 9.90264 15.5516L9.36789 16.0863C8.96477 16.4896 8.31114 16.4896 7.90797 16.0864Z" fill="#404B58"/>
<path d="M11.504 17.9132C11.4141 17.9132 11.3241 17.8789 11.2554 17.8102C11.1181 17.6729 11.1181 17.4504 11.2554 17.3131L11.6879 16.8806C11.8252 16.7433 12.0478 16.7432 12.1851 16.8806C12.3224 17.0179 12.3224 17.2404 12.1851 17.3777L11.7526 17.8102C11.684 17.8789 11.594 17.9132 11.504 17.9132Z" fill="#404B58"/>
<path opacity="0.1" d="M0.854039 11.844L0.63682 12.0612C-0.212273 12.9103 -0.212273 14.2869 0.63682 15.136L8.8586 23.3578C9.70769 24.2069 11.0843 24.2069 11.9334 23.3578L12.1506 23.1405L0.854039 11.844Z" fill="black"/>
<g clip-path="url(#clip1)">
<path d="M4.32607 3.64166C4.17256 3.48815 4.07764 3.27609 4.07764 3.04185C4.07764 2.57338 4.45742 2.1936 4.92589 2.1936H12.4115C12.8801 2.1936 13.2598 2.57334 13.2598 3.04185C13.2598 3.51032 12.88 3.8901 12.4115 3.8901H4.92584C4.69161 3.8901 4.47959 3.79518 4.32607 3.64166Z" fill="#81D4FA"/>
<path d="M8.8586 23.3579L0.63682 15.1362C-0.212273 14.2871 -0.212273 12.9105 0.63682 12.0614L10.7014 1.99683L21.9979 13.2934L11.9334 23.3579C11.0843 24.207 9.7076 24.207 8.8586 23.3579Z" fill="#B3E5FC"/>
<path d="M5.62707 7.07103L16.9232 18.3672L17.4204 17.87L6.12425 6.57385L5.62707 7.07103Z" fill="#85D3FA"/>
<path d="M10.7015 1.99683L6.94568 5.75269C6.95599 6.26114 7.1539 6.76392 7.54568 7.14098C8.32952 7.89539 9.57654 7.8862 10.3492 7.11361L10.7174 6.7454C10.9868 6.47597 11.4236 6.47597 11.6931 6.7454L13.3818 8.43408C13.6512 8.70351 13.6512 9.14034 13.3818 9.40978L11.1864 11.6051C10.3926 12.3989 10.3774 13.7133 11.1862 14.4918C11.97 15.2462 13.2171 15.2371 13.9898 14.4645L16.2131 12.2412C16.4825 11.9717 16.9194 11.9717 17.1888 12.2412L17.9723 13.0596C17.9755 13.063 17.9787 13.0663 17.9819 13.0697C18.5013 13.615 18.481 14.479 17.9485 15.0116L10.3119 22.6482C9.71459 23.2455 8.74624 23.2455 8.14896 22.6482L8.85869 23.3579C9.70779 24.207 11.0844 24.207 11.9335 23.3579L21.998 13.2934L10.7015 1.99683Z" fill="#81D4FA"/>
<path d="M19.996 21.4401C19.996 21.993 20.22 22.4935 20.5824 22.8559C20.9447 23.2182 21.4452 23.4422 21.998 23.4423C23.1038 23.4422 24.0002 22.5459 24.0002 21.4401V15.2666C24.0002 13.4763 23.2892 11.7592 22.0235 10.4928L12.1451 0.608885C11.3491 -0.1871 10.0435 -0.203506 9.26126 0.606072C8.78979 1.09399 8.61541 1.76224 8.73752 2.38385C8.80826 2.7439 8.68493 3.11496 8.42547 3.37442L8.00852 3.79137C7.21469 4.5852 7.1996 5.89962 8.00847 6.67812C8.79232 7.43253 10.0393 7.42334 10.812 6.65074L11.1802 6.28254C11.4496 6.0131 11.8864 6.0131 12.1559 6.28254L13.8446 7.97121C14.114 8.24065 14.114 8.67748 13.8446 8.94692L11.6492 11.1423C10.8554 11.9361 10.8402 13.2505 11.649 14.029C12.4328 14.7834 13.6799 14.7743 14.4526 14.0017L16.6759 11.7784C16.9453 11.5089 17.3822 11.5089 17.6516 11.7784L18.4351 12.5968C19.4359 13.6423 19.9946 15.0336 19.9949 16.4809L19.996 21.4401Z" fill="#7024D4"/>
<path opacity="0.1" d="M12.1317 6.26088L11.4547 5.58391C11.1852 5.31448 10.7484 5.31448 10.479 5.58391L10.1814 5.88143C9.47454 6.5883 8.37082 6.65566 7.58777 6.08435C7.68682 6.30129 7.82655 6.50327 8.00824 6.67812C8.79208 7.43252 10.0391 7.42338 10.8117 6.65074L11.1799 6.28254C11.4417 6.02084 11.861 6.01413 12.1317 6.26088ZM22.1415 10.6141C22.9354 11.7437 23.3697 13.0981 23.3697 14.4974V20.6709C23.3697 21.7766 22.4733 22.6729 21.3676 22.6729C20.924 22.6729 20.5142 22.5284 20.1824 22.2842C20.2819 22.4979 20.4176 22.6912 20.5822 22.8559C20.9445 23.2182 21.445 23.4423 21.9979 23.4423C23.1036 23.4423 24 22.5459 24 21.4402V15.2667C24 13.5328 23.3331 11.8677 22.1415 10.6141ZM15.9894 11.0651L13.8221 13.2323C13.1152 13.9392 12.0115 14.0066 11.2285 13.4352C11.3275 13.6522 11.4672 13.8541 11.6489 14.029C12.4327 14.7834 13.6798 14.7743 14.4524 14.0017L16.6758 11.7784C16.9366 11.5175 17.3539 11.51 17.6247 11.7542L16.9651 11.0651C16.6956 10.7956 16.2588 10.7956 15.9894 11.0651Z" fill="black"/>
<path d="M6.4331 12.8419C6.3431 12.8419 6.25314 12.8076 6.18452 12.7389C6.04722 12.6016 6.04722 12.3791 6.18452 12.2418L6.61699 11.8093C6.75428 11.672 6.97689 11.6719 7.11415 11.8093C7.25144 11.9466 7.25144 12.1691 7.11415 12.3065L6.68167 12.739C6.61305 12.8076 6.52305 12.8419 6.4331 12.8419Z" fill="#404B58"/>
<path d="M7.90821 16.0864C7.50504 15.6832 7.50504 15.0296 7.90821 14.6264L8.44296 14.0917C8.55054 13.9841 8.72497 13.9841 8.8325 14.0917L9.90289 15.1621C10.0105 15.2696 10.0105 15.4441 9.90289 15.5516L9.36814 16.0863C8.96501 16.4896 8.31139 16.4896 7.90821 16.0864Z" fill="#404B58"/>
<path d="M11.5041 17.913C11.4142 17.913 11.3242 17.8786 11.2556 17.81C11.1183 17.6727 11.1183 17.4501 11.2556 17.3128L11.688 16.8803C11.8253 16.743 12.0479 16.743 12.1852 16.8803C12.3225 17.0176 12.3225 17.2402 12.1852 17.3775L11.7528 17.81C11.6841 17.8786 11.5941 17.913 11.5041 17.913Z" fill="#404B58"/>
<path d="M0.854039 11.844L0.63682 12.0612C-0.212273 12.9103 -0.212273 14.2869 0.63682 15.136L8.8586 23.3578C9.7077 24.2069 11.0843 24.2069 11.9334 23.3578L12.1506 23.1405L0.854039 11.844Z" fill="#81D4FA"/>
<path d="M21.248 6.76367H19.7363V4.53125H17.4922V2.99609H19.7363V0.751953H21.248V2.99609H23.5039V4.53125H21.248V6.76367Z" fill="#E84393"/>
</g>
</g>
<defs>
<clipPath id="clip0">
<rect width="24" height="24" fill="white"/>
</clipPath>
<clipPath id="clip1">
<rect width="24" height="24" fill="white"/>
</clipPath>
</defs>
</svg>
