<svg width="8" height="8" viewBox="0 0 8 8" fill="none" xmlns="http://www.w3.org/2000/svg">
<g clip-path="url(#clip0)">
<path d="M1.44194 1.21389C1.39077 1.16272 1.35913 1.09203 1.35913 1.01395C1.35913 0.857795 1.48572 0.731201 1.64188 0.731201H4.1371C4.29327 0.731201 4.41985 0.857779 4.41985 1.01395C4.41985 1.17011 4.29326 1.2967 4.1371 1.2967H1.64187C1.56379 1.2967 1.49312 1.26506 1.44194 1.21389Z" fill="#404B58"/>
<path d="M2.95287 7.78615L0.212273 5.04555C-0.0707578 4.76254 -0.0707578 4.30365 0.212273 4.02063L3.56713 0.665771L7.33263 4.43129L3.97779 7.78615C3.69476 8.06916 3.23587 8.06916 2.95287 7.78615Z" fill="#E8E8E8"/>
<path opacity="0.1" d="M1.87573 2.35693L5.64111 6.12231L5.80684 5.95659L2.04146 2.1912L1.87573 2.35693Z" fill="black"/>
<path opacity="0.1" d="M3.56714 0.665771L2.31519 1.91772C2.31862 2.08721 2.38459 2.2548 2.51519 2.38049C2.77647 2.63196 3.19214 2.6289 3.44969 2.37137L3.57242 2.24863C3.66223 2.15882 3.80784 2.15882 3.89765 2.24863L4.46054 2.81152C4.55036 2.90133 4.55036 3.04694 4.46054 3.13676L3.72875 3.86854C3.46415 4.13313 3.45911 4.57126 3.7287 4.83076C3.98997 5.08224 4.40567 5.07921 4.66322 4.82166L5.40433 4.08055C5.49414 3.99074 5.63975 3.99074 5.72956 4.08055L5.99072 4.35336C5.99179 4.35449 5.99286 4.3556 5.99392 4.35672C6.16706 4.53851 6.16029 4.82651 5.98278 5.00402L3.43725 7.54957C3.23815 7.74866 2.91537 7.74866 2.71628 7.54957L2.95286 7.78615C3.23589 8.06918 3.69476 8.06918 3.97778 7.78615L7.33264 4.43129L3.56714 0.665771Z" fill="black"/>
<path d="M6.6654 7.14687C6.66542 7.33117 6.74009 7.498 6.86087 7.61878C6.98165 7.73956 7.14848 7.81423 7.33276 7.81425C7.70136 7.81423 8.00014 7.51545 8.00014 7.14687V5.08905C8.00014 4.49225 7.76315 3.91989 7.34126 3.49776L4.04843 0.203124C3.7831 -0.0622038 3.34792 -0.0676725 3.08717 0.202187C2.93001 0.364828 2.87189 0.587577 2.91259 0.794781C2.93617 0.914796 2.89506 1.03848 2.80857 1.12497L2.66959 1.26395C2.40498 1.52856 2.39995 1.9667 2.66957 2.2262C2.93085 2.47767 3.34653 2.47461 3.60407 2.21708L3.72681 2.09434C3.81662 2.00453 3.96223 2.00453 4.05204 2.09434L4.61493 2.65723C4.70475 2.74705 4.70475 2.89266 4.61493 2.98247L3.88314 3.71426C3.61854 3.97886 3.6135 4.41698 3.88309 4.67648C4.14436 4.92797 4.56006 4.92492 4.81761 4.66739L5.55871 3.92628C5.64853 3.83647 5.79414 3.83647 5.88395 3.92628L6.14511 4.19909C6.4787 4.54759 6.66497 5.01137 6.66506 5.4938L6.6654 7.14687Z" fill="#79C6E4"/>
<path opacity="0.1" d="M4.04382 2.08696L3.81815 1.8613C3.72833 1.77149 3.58272 1.77149 3.49291 1.8613L3.39372 1.96048C3.1581 2.1961 2.79019 2.21855 2.52917 2.02812C2.56219 2.10043 2.60877 2.16776 2.66933 2.22604C2.93061 2.47751 3.34629 2.47446 3.60383 2.21691L3.72657 2.09418C3.81383 2.00695 3.95358 2.00471 4.04382 2.08696ZM7.38042 3.53804C7.64506 3.91455 7.78981 4.36604 7.78981 4.83246V6.89029C7.78981 7.25887 7.49101 7.55765 7.12245 7.55765C6.97457 7.55765 6.838 7.50948 6.72739 7.42807C6.76056 7.49929 6.80578 7.56374 6.86065 7.61863C6.98143 7.73941 7.14826 7.81409 7.33254 7.8141C7.70112 7.81409 7.9999 7.5153 7.9999 7.14673V5.0889C7.9999 4.51094 7.77762 3.9559 7.38042 3.53804ZM5.32971 3.68835L4.60729 4.41077C4.37166 4.6464 4.00376 4.66885 3.74274 4.47841C3.77576 4.55073 3.82233 4.61804 3.88288 4.67632C4.14415 4.9278 4.55985 4.92476 4.8174 4.66723L5.55851 3.92612C5.64545 3.83918 5.78454 3.83666 5.87482 3.91805L5.65495 3.68837C5.56513 3.59854 5.41951 3.59854 5.32971 3.68835Z" fill="black"/>
<path d="M2.14428 4.28063C2.11428 4.28063 2.0843 4.26919 2.06142 4.2463C2.01566 4.20054 2.01566 4.12635 2.06142 4.08059L2.20558 3.93643C2.25135 3.89066 2.32555 3.89065 2.3713 3.93643C2.41707 3.9822 2.41707 4.05638 2.3713 4.10216L2.22714 4.24632C2.20427 4.26919 2.17427 4.28063 2.14428 4.28063Z" fill="#404B58"/>
<path d="M2.63595 5.36221C2.50156 5.22782 2.50156 5.00994 2.63595 4.87555L2.8142 4.6973C2.85006 4.66145 2.9082 4.66145 2.94404 4.6973L3.30084 5.0541C3.3367 5.08996 3.3367 5.1481 3.30084 5.18394L3.12259 5.36219C2.98822 5.4966 2.77034 5.4966 2.63595 5.36221Z" fill="#404B58"/>
<path d="M3.83459 5.97107C3.80461 5.97107 3.77461 5.95963 3.75173 5.93674C3.70597 5.89097 3.70597 5.81678 3.75173 5.77102L3.89589 5.62686C3.94165 5.58109 4.01586 5.58108 4.06161 5.62686C4.10739 5.67263 4.10739 5.74681 4.06162 5.79258L3.91747 5.93674C3.89459 5.95963 3.86459 5.97107 3.83459 5.97107Z" fill="#404B58"/>
<path opacity="0.1" d="M0.28468 3.948L0.212273 4.0204C-0.0707578 4.30344 -0.0707578 4.76231 0.212273 5.04533L2.95287 7.78592C3.2359 8.06895 3.69477 8.06895 3.97779 7.78592L4.05019 7.71351L0.28468 3.948Z" fill="black"/>
<g clip-path="url(#clip1)">
<path d="M1.44207 1.21389C1.39089 1.16272 1.35925 1.09203 1.35925 1.01395C1.35925 0.857795 1.48585 0.731201 1.642 0.731201H4.13722C4.29339 0.731201 4.41997 0.857779 4.41997 1.01395C4.41997 1.17011 4.29338 1.2967 4.13722 1.2967H1.64199C1.56391 1.2967 1.49324 1.26506 1.44207 1.21389Z" fill="#81D4FA"/>
<path d="M2.95287 7.7859L0.212273 5.04531C-0.0707578 4.76229 -0.0707578 4.3034 0.212273 4.02039L3.56713 0.665527L7.33263 4.43104L3.97779 7.7859C3.69476 8.06892 3.23587 8.06892 2.95287 7.7859Z" fill="#B3E5FC"/>
<path d="M1.87573 2.35693L5.64111 6.12231L5.80684 5.95659L2.04146 2.1912L1.87573 2.35693Z" fill="#85D3FA"/>
<path d="M3.56714 0.665527L2.31519 1.91748C2.31862 2.08696 2.38459 2.25456 2.51519 2.38025C2.77647 2.63171 3.19214 2.62865 3.44969 2.37112L3.57242 2.24839C3.66223 2.15857 3.80784 2.15857 3.89765 2.24839L4.46055 2.81128C4.55036 2.90109 4.55036 3.0467 4.46055 3.13651L3.72875 3.86829C3.46415 4.13289 3.45911 4.57101 3.7287 4.83051C3.98997 5.082 4.40567 5.07896 4.66322 4.82142L5.40433 4.08031C5.49414 3.9905 5.63975 3.9905 5.72956 4.08031L5.99072 4.35312C5.9918 4.35425 5.99286 4.35536 5.99392 4.35648C6.16706 4.53826 6.1603 4.82626 5.98278 5.00378L3.43725 7.54932C3.23815 7.74842 2.91537 7.74842 2.71628 7.54932L2.95286 7.7859C3.23589 8.06893 3.69476 8.06893 3.97778 7.7859L7.33264 4.43104L3.56714 0.665527Z" fill="#81D4FA"/>
<path d="M6.66528 7.14663C6.66529 7.33093 6.73996 7.49776 6.86075 7.61854C6.98153 7.73932 7.14836 7.81399 7.33264 7.81401C7.70123 7.81399 8.00001 7.51521 8.00001 7.14663V5.0888C8.00001 4.492 7.76303 3.91965 7.34114 3.49752L4.04831 0.20288C3.78298 -0.0624479 3.34779 -0.0679166 3.08704 0.201943C2.92989 0.364583 2.87176 0.587333 2.91247 0.794536C2.93604 0.914552 2.89494 1.03824 2.80845 1.12472L2.66947 1.26371C2.40486 1.52832 2.39983 1.96646 2.66945 2.22596C2.93073 2.47743 3.3464 2.47436 3.60395 2.21683L3.72668 2.0941C3.8165 2.00429 3.96211 2.00429 4.05192 2.0941L4.61481 2.65699C4.70462 2.7468 4.70462 2.89241 4.61481 2.98222L3.88301 3.71402C3.61842 3.97861 3.61337 4.41674 3.88297 4.67624C4.14423 4.92772 4.55993 4.92468 4.81748 4.66715L5.55859 3.92604C5.6484 3.83622 5.79401 3.83622 5.88382 3.92604L6.14498 4.19885C6.47857 4.54735 6.66484 5.01113 6.66493 5.49355L6.66528 7.14663Z" fill="#7024D4"/>
<path opacity="0.1" d="M4.04382 2.08696L3.81815 1.8613C3.72833 1.77149 3.58272 1.77149 3.49291 1.8613L3.39372 1.96048C3.1581 2.1961 2.79019 2.21855 2.52917 2.02812C2.56219 2.10043 2.60877 2.16776 2.66933 2.22604C2.93061 2.47751 3.34629 2.47446 3.60383 2.21691L3.72657 2.09418C3.81383 2.00695 3.95358 2.00471 4.04382 2.08696ZM7.38042 3.53804C7.64506 3.91455 7.78981 4.36604 7.78981 4.83246V6.89029C7.78981 7.25887 7.49101 7.55765 7.12245 7.55765C6.97457 7.55765 6.838 7.50948 6.72739 7.42807C6.76056 7.49929 6.80578 7.56374 6.86065 7.61863C6.98143 7.73941 7.14826 7.81409 7.33254 7.8141C7.70112 7.81409 7.9999 7.5153 7.9999 7.14673V5.0889C7.9999 4.51094 7.77762 3.9559 7.38042 3.53804ZM5.32971 3.68835L4.60729 4.41077C4.37166 4.6464 4.00376 4.66885 3.74274 4.47841C3.77576 4.55073 3.82233 4.61804 3.88288 4.67632C4.14415 4.9278 4.55985 4.92476 4.8174 4.66723L5.55851 3.92612C5.64545 3.83918 5.78454 3.83666 5.87482 3.91805L5.65495 3.68837C5.56513 3.59854 5.41951 3.59854 5.32971 3.68835Z" fill="black"/>
<path d="M2.14441 4.28063C2.11441 4.28063 2.08442 4.26919 2.06155 4.2463C2.01578 4.20054 2.01578 4.12635 2.06155 4.08059L2.2057 3.93643C2.25147 3.89066 2.32567 3.89065 2.37142 3.93643C2.41719 3.9822 2.41719 4.05638 2.37142 4.10216L2.22727 4.24632C2.20439 4.26919 2.17439 4.28063 2.14441 4.28063Z" fill="#404B58"/>
<path d="M2.63607 5.36221C2.50168 5.22782 2.50168 5.00994 2.63607 4.87555L2.81432 4.6973C2.85018 4.66145 2.90832 4.66145 2.94417 4.6973L3.30096 5.0541C3.33682 5.08996 3.33682 5.1481 3.30096 5.18394L3.12271 5.36219C2.98834 5.4966 2.77046 5.4966 2.63607 5.36221Z" fill="#404B58"/>
<path d="M3.83471 5.97107C3.80473 5.97107 3.77473 5.95963 3.75185 5.93674C3.70609 5.89097 3.70609 5.81678 3.75185 5.77102L3.89601 5.62686C3.94178 5.58109 4.01598 5.58108 4.06173 5.62686C4.10751 5.67263 4.10751 5.74681 4.06174 5.79258L3.91759 5.93674C3.89471 5.95963 3.86471 5.97107 3.83471 5.97107Z" fill="#404B58"/>
<path d="M0.28468 3.948L0.212273 4.0204C-0.0707578 4.30344 -0.0707578 4.76231 0.212273 5.04533L2.95287 7.78592C3.2359 8.06895 3.69477 8.06895 3.97779 7.78592L4.0502 7.71351L0.28468 3.948Z" fill="#81D4FA"/>
</g>
</g>
<defs>
<clipPath id="clip0">
<rect width="8" height="8" fill="white"/>
</clipPath>
<clipPath id="clip1">
<rect width="8" height="8" fill="white"/>
</clipPath>
</defs>
</svg>
