<svg width="24" height="24" viewBox="0 0 24 24" fill="none" xmlns="http://www.w3.org/2000/svg">
<g clip-path="url(#clip0)">
<path d="M15.0698 23.7853C14.6904 23.7853 14.3501 23.5202 14.2693 23.134C13.8959 21.3473 14.3581 18.3504 14.4586 17.8734C14.5518 17.431 14.9864 17.1479 15.4286 17.2411C15.8709 17.3343 16.154 17.7687 16.0606 18.211C15.9435 18.7675 15.5857 21.4288 15.872 22.7993C15.9645 23.2419 15.6807 23.6755 15.2381 23.7679C15.1817 23.7796 15.1253 23.7853 15.0698 23.7853Z" fill="#EFD176"/>
<path d="M19.4954 23.7854C19.116 23.7854 18.7756 23.5202 18.6951 23.1341C18.3215 21.3472 18.7837 18.3503 18.8844 17.8733C18.9776 17.4309 19.4117 17.1478 19.8541 17.2412C20.2965 17.3344 20.5796 17.7687 20.4862 18.2111C20.369 18.7674 20.0112 21.4286 20.2976 22.7992C20.3901 23.2417 20.1063 23.6755 19.6637 23.768C19.6073 23.7797 19.5509 23.7854 19.4954 23.7854Z" fill="#EFD176"/>
<path d="M8.9419 20.1536C8.93439 20.1536 8.92689 20.1536 8.9192 20.1536C8.46711 20.152 8.10181 19.7841 8.10346 19.3321C8.10511 18.8809 8.47132 18.5163 8.92213 18.5163C8.92945 18.5161 8.93714 18.5163 8.94465 18.5163C10.6722 18.5163 10.9416 17.6905 11.3223 15.1534C11.367 14.8546 11.4135 14.5455 11.4669 14.2302C11.5424 13.7845 11.9653 13.4844 12.4108 13.56C12.8565 13.6354 13.1566 14.0582 13.081 14.5039C13.0301 14.8038 12.9851 15.105 12.9413 15.3962C12.7642 16.577 12.5969 17.6925 12.08 18.5659C11.4481 19.6342 10.4214 20.1536 8.9419 20.1536Z" fill="#EFD176"/>
<path d="M12.7624 3.69465C14.0967 4.62885 14.6025 6.36048 14.7815 7.26338C14.8467 7.5915 14.625 7.90809 14.2943 7.95918C13.3846 8.09962 11.5845 8.21663 10.2502 7.28242C8.91611 6.34803 8.41037 4.61658 8.23111 3.71369C8.16611 3.38556 8.38785 3.06879 8.71836 3.01789C9.62803 2.87745 11.4281 2.76044 12.7624 3.69465Z" fill="#8EE2CF"/>
<path d="M12.3061 6.40055C12.2365 6.40055 12.1662 6.37986 12.1049 6.33683L10.5047 5.21641C10.3456 5.10508 10.3069 4.88591 10.4183 4.72679C10.5296 4.56767 10.7488 4.52922 10.9079 4.64055L12.5081 5.76096C12.6672 5.87229 12.7058 6.09147 12.5945 6.25058C12.526 6.34818 12.4171 6.40055 12.3061 6.40055Z" fill="#6FCE91"/>
<path d="M17.195 2.91318C16.2608 4.24729 16.3778 6.0474 16.5183 6.95707C16.5692 7.28776 16.8859 7.5095 17.2141 7.44431C18.1168 7.26523 19.8484 6.7595 20.7826 5.42521C21.717 4.09092 21.6 2.29081 21.4595 1.38114C21.4085 1.05063 21.0919 0.828891 20.7637 0.893894C19.8608 1.07315 18.1292 1.57889 17.195 2.91318Z" fill="#8EE2CF"/>
<path d="M18.4283 5.32091C18.3586 5.32091 18.2883 5.3004 18.2269 5.25737C18.0678 5.14604 18.0292 4.92687 18.1407 4.76775L19.2611 3.16759C19.3724 3.00847 19.5916 2.96983 19.7507 3.08116C19.9097 3.19249 19.9483 3.41167 19.837 3.57078L18.7166 5.17095C18.6481 5.26873 18.5391 5.32091 18.4283 5.32091Z" fill="#6FCE91"/>
<path d="M17.2368 3.49862C17.5197 5.10281 16.6529 6.68484 16.1411 7.44986C15.9551 7.72799 15.5744 7.79501 15.3045 7.59744C14.562 7.05343 13.2063 5.86325 12.9236 4.25924C12.6407 2.65505 13.5075 1.07302 14.0193 0.308007C14.2051 0.0300528 14.586 -0.037147 14.8557 0.160424C15.5984 0.704431 16.9539 1.89462 17.2368 3.49862Z" fill="#8EE2CF"/>
<path d="M15.2492 5.19253C15.0819 5.19253 14.9336 5.07241 14.9033 4.90194L14.5642 2.97805C14.5305 2.78689 14.6582 2.60452 14.8493 2.57082C15.0407 2.53713 15.223 2.66476 15.2566 2.85592L15.5959 4.77981C15.6295 4.97097 15.5019 5.15335 15.3108 5.18704C15.2901 5.1907 15.2696 5.19253 15.2492 5.19253Z" fill="#6FCE91"/>
<path d="M15.4915 6.21254C18.8191 5.62587 21.6598 7.82716 22.6784 11.7394C23.7379 15.8091 22.7281 19.1621 17.9243 20.0092C13.1205 20.8562 11.0247 18.0507 10.6284 13.864C10.2476 9.83931 12.1641 6.79921 15.4915 6.21254Z" fill="#F7EF87"/>
<path d="M13.5634 6.90918C11.4511 8.14148 10.3289 10.6978 10.6284 13.8641C11.0236 18.0391 13.1091 20.8402 17.8845 20.0157C11.467 17.493 11.8928 10.8247 13.5634 6.90918Z" fill="#EFD176"/>
<path d="M15.7391 11.3903C15.6693 11.3903 15.599 11.3696 15.5377 11.3268C15.3787 11.2153 15.3401 10.9961 15.4514 10.8372L15.9332 10.1489C16.0445 9.98992 16.2639 9.95129 16.4228 10.0626L17.1109 10.5444C17.27 10.6559 17.3087 10.8751 17.1973 11.034C17.086 11.1931 16.8666 11.2317 16.7077 11.1204L16.3076 10.8401L16.0273 11.2404C15.959 11.3379 15.8498 11.3903 15.7391 11.3903Z" fill="#EFD176"/>
<path d="M19.0838 10.8005C19.0141 10.8005 18.9437 10.7798 18.8824 10.7369C18.7235 10.6254 18.6846 10.4062 18.7962 10.2473L19.2779 9.55902C19.3894 9.40008 19.6086 9.36144 19.7675 9.47277L20.4556 9.95452C20.6148 10.066 20.6534 10.2852 20.5421 10.4441C20.4307 10.6033 20.2114 10.6419 20.0524 10.5306L19.6522 10.2504L19.372 10.6505C19.3037 10.7483 19.1946 10.8005 19.0838 10.8005Z" fill="#EFD176"/>
<path d="M12.3945 11.9802C12.3249 11.9802 12.2546 11.9595 12.1931 11.9165C12.0342 11.8052 11.9955 11.586 12.1069 11.4271L12.5886 10.7388C12.7001 10.5798 12.9193 10.541 13.0783 10.6525L13.7666 11.1343C13.9255 11.2456 13.9641 11.4648 13.8528 11.6239C13.7415 11.783 13.5223 11.8217 13.3632 11.7103L12.9631 11.43L12.6827 11.8303C12.6144 11.9279 12.5053 11.9802 12.3945 11.9802Z" fill="#EFD176"/>
<path d="M18.6203 17.9523C18.5508 17.9523 18.4805 17.9316 18.4191 17.8885C18.26 17.7772 18.2214 17.558 18.3327 17.3989L18.8146 16.7108C18.9259 16.5517 19.1453 16.513 19.3042 16.6244L19.9923 17.1063C20.1515 17.2176 20.1901 17.4368 20.0788 17.5959C19.9674 17.7551 19.7481 17.7937 19.5891 17.6822L19.1889 17.402L18.9087 17.8023C18.8403 17.8999 18.7313 17.9523 18.6203 17.9523Z" fill="#EFD176"/>
<path d="M15.2758 18.5417C15.206 18.5417 15.1357 18.5212 15.0744 18.4781C14.9153 18.3668 14.8766 18.1476 14.988 17.9885L15.4699 17.3004C15.5812 17.1413 15.8006 17.1026 15.9595 17.214L16.6476 17.6959C16.8068 17.8072 16.8454 18.0264 16.7341 18.1855C16.6226 18.3446 16.4034 18.3831 16.2444 18.2718L15.8442 17.9916L15.564 18.3917C15.4955 18.4895 15.3866 18.5417 15.2758 18.5417Z" fill="#EFD176"/>
<path d="M14.282 15.865C14.171 15.2356 13.4406 14.8385 12.6505 14.9778C11.8604 15.1171 11.3098 15.7401 11.4208 16.3692C11.5316 16.9986 12.2621 17.3957 13.0522 17.2564C13.8423 17.117 14.3929 16.4941 14.282 15.865Z" fill="#EDA1AB"/>
<path d="M19.177 15.0006C19.2879 15.6297 20.0183 16.0269 20.8084 15.8877C21.5985 15.7484 22.1491 15.1254 22.0384 14.4963C21.9274 13.867 21.197 13.4698 20.4069 13.6091C19.6168 13.7483 19.0662 14.3714 19.177 15.0006Z" fill="#EDA1AB"/>
<path d="M13.4851 15.1849C13.3178 15.1849 13.1695 15.0648 13.1394 14.8944L13.0503 14.3892C13.0166 14.1978 13.1442 14.0156 13.3355 13.982C13.5269 13.9483 13.7091 14.0759 13.7427 14.267L13.8317 14.7722C13.8656 14.9634 13.7378 15.1458 13.5466 15.1796C13.526 15.1831 13.5054 15.1849 13.4851 15.1849Z" fill="#4E5660"/>
<path d="M19.5724 14.1114C19.405 14.1114 19.2566 13.9913 19.2265 13.8208L19.1375 13.3156C19.1038 13.1244 19.2315 12.942 19.4226 12.9082C19.614 12.8747 19.7962 13.0023 19.8298 13.1935L19.919 13.6986C19.9527 13.8898 19.8251 14.0722 19.6337 14.1059C19.613 14.1095 19.5925 14.1114 19.5724 14.1114Z" fill="#4E5660"/>
<path d="M16.0733 14.8697C15.9663 14.8697 15.8609 14.8213 15.7918 14.7292C15.6752 14.574 15.7065 14.3537 15.8618 14.237C16.0403 14.103 16.2512 14.0116 16.4721 13.9726C16.6929 13.9336 16.9225 13.9474 17.136 14.0122C17.3219 14.0688 17.4266 14.2651 17.3702 14.4509C17.3138 14.6366 17.1172 14.7415 16.9317 14.6851C16.8218 14.6516 16.7083 14.645 16.5942 14.6651C16.4801 14.6851 16.3758 14.7303 16.284 14.7992C16.2208 14.8468 16.1467 14.8697 16.0733 14.8697Z" fill="#4E5660"/>
<path d="M13.7187 13.791H12.7609C12.5668 13.791 12.4093 13.6337 12.4093 13.4394C12.4093 13.2454 12.5668 13.0879 12.7609 13.0879H13.7187C13.9128 13.0879 14.0703 13.2454 14.0703 13.4394C14.0703 13.6337 13.9128 13.791 13.7187 13.791Z" fill="#4E5660"/>
<path d="M18.8247 12.5861C18.681 12.5861 18.5462 12.4975 18.4942 12.3549C18.4279 12.1723 18.5219 11.9705 18.7044 11.9042L19.6044 11.5765C19.7867 11.51 19.9887 11.6041 20.055 11.7867C20.1215 11.9691 20.0273 12.1708 19.845 12.2373L18.9448 12.5649C18.9053 12.5793 18.8646 12.5861 18.8247 12.5861Z" fill="#4E5660"/>
<path d="M8.84446 20.2257C8.67051 20.2257 8.49674 20.1594 8.36399 20.0267L6.28445 17.9471C6.01895 17.6816 6.01895 17.2513 6.28445 16.986C6.54978 16.7205 6.98026 16.7205 7.24558 16.986L9.32511 19.0655C9.59062 19.3308 9.59062 19.7611 9.32511 20.0267C9.19236 20.1594 9.01841 20.2257 8.84446 20.2257Z" fill="#E1B89A"/>
<path d="M7.9242 16.7339C7.9242 17.7787 7.07715 18.6257 6.03235 18.6257C4.98755 18.6257 4.1405 17.7787 4.1405 16.7339C4.1405 15.6891 4.98755 14.842 6.03235 14.842C7.07715 14.842 7.9242 15.6891 7.9242 16.7339Z" fill="#7ACEFA"/>
<path d="M5.42114 14.9431C5.10492 15.0506 4.81342 15.2432 4.58307 15.5175C4.54425 15.5638 4.50836 15.6115 4.47485 15.6602L7.1059 18.2912C7.24268 18.1969 7.36957 18.0832 7.48145 17.9497C7.63635 17.7651 7.74933 17.5597 7.82276 17.3447L5.42114 14.9431Z" fill="#A3DEFE"/>
<path d="M6.02849 18.9773C5.50242 18.9773 4.99815 18.7944 4.59037 18.4521C4.13133 18.0671 3.84971 17.5262 3.79753 16.9292C3.74516 16.3321 3.92863 15.7506 4.3137 15.2915C5.10893 14.344 6.52672 14.22 7.47429 15.0151C8.42186 15.8103 8.54601 17.2281 7.75078 18.1756C7.36571 18.6347 6.82482 18.9163 6.22771 18.9685C6.16106 18.9744 6.09459 18.9773 6.02849 18.9773ZM6.03361 15.194C5.59361 15.194 5.15672 15.3809 4.8524 15.7436C4.58799 16.0588 4.46202 16.4581 4.49791 16.8679C4.53379 17.2777 4.72697 17.649 5.04228 17.9136C5.35741 18.178 5.75676 18.304 6.16655 18.2681C6.57634 18.2322 6.94768 18.0389 7.21227 17.7237C7.75811 17.0732 7.67296 16.0996 7.02239 15.5538C6.73436 15.3121 6.38298 15.194 6.03361 15.194Z" fill="#6A96D7"/>
<path d="M20.4677 17.059C19.7152 17.059 18.9258 16.8504 18.1833 16.443C17.7869 16.2255 17.6421 15.7278 17.8596 15.3315C18.0769 14.9351 18.5748 14.7903 18.971 15.0076C19.732 15.4253 20.5326 15.5342 21.1674 15.3066C21.7198 15.1087 22.1417 14.6539 22.4209 13.9551C22.5887 13.5353 23.0651 13.3311 23.4848 13.4989C23.9046 13.6668 24.109 14.143 23.9411 14.5629C23.367 15.999 22.4165 16.5981 21.72 16.8478C21.3258 16.9892 20.9028 17.059 20.4677 17.059Z" fill="#EFD176"/>
<path d="M10.213 23.1475C10.213 22.6509 9.23029 22.2483 8.01795 22.2483C6.80561 22.2483 5.82288 22.6509 5.82288 23.1475C5.82288 23.6441 6.80561 24.0467 8.01795 24.0467C9.23029 24.0467 10.213 23.6441 10.213 23.1475Z" fill="#E1B89A"/>
<path d="M4.39008 21.0594C4.39008 20.5628 3.40735 20.1602 2.19501 20.1602C0.982667 20.1602 -6.10352e-05 20.5628 -6.10352e-05 21.0594C-6.10352e-05 21.556 0.982667 21.9586 2.19501 21.9586C3.40735 21.9586 4.39008 21.556 4.39008 21.0594Z" fill="#E1B89A"/>
</g>
<defs>
<clipPath id="clip0">
<rect x="-6.10352e-05" width="24" height="24" fill="white"/>
</clipPath>
</defs>
</svg>
