<svg width="24" height="24" viewBox="0 0 24 24" fill="none" xmlns="http://www.w3.org/2000/svg">
<g clip-path="url(#clip0)">
<path d="M24 12C24 18.6275 18.6275 24 12 24C5.3725 24 0 18.6275 0 12C0 5.3725 5.3725 0 12 0C18.6275 0 24 5.3725 24 12Z" fill="#7024D4"/>
<path d="M12.5378 22.2753C15.1018 20.3293 13.7726 17.645 13.7726 17.645C13.7726 17.645 9.3587 10.2275 8.76123 10.2275C5.07678 7.78308 7.20483 1.03107 7.21747 0.990967C2.97034 2.83868 0 7.07281 0 12C0 18.3195 4.88489 23.4981 11.0848 23.9656C11.3589 23.4117 11.8107 22.8272 12.5378 22.2753Z" fill="#6520BF"/>
<path d="M18.204 10.2274H14.6413C14.1616 10.2274 13.7726 9.83832 13.7726 9.35858V5.79608C13.7726 4.81702 12.9791 4.02344 12 4.02344C11.0211 4.02344 10.2275 4.81702 10.2275 5.79608V9.35858C10.2275 9.83832 9.83844 10.2274 9.3587 10.2274H5.7962C4.81714 10.2274 4.02356 11.021 4.02356 11.9999C4.02356 12.9788 4.81714 13.7723 5.7962 13.7723H9.3587C9.83844 13.7723 10.2275 14.1614 10.2275 14.6412V18.2037C10.2275 19.1827 11.0211 19.9763 12 19.9763C12.9791 19.9763 13.7726 19.1827 13.7726 18.2037V14.6412C13.7726 14.1614 14.1616 13.7723 14.6413 13.7723H18.204C19.1829 13.7723 19.9764 12.9788 19.9764 11.9999C19.9764 11.021 19.1829 10.2274 18.204 10.2274Z" fill="white"/>
</g>
<defs>
<clipPath id="clip0">
<rect width="24" height="24" fill="white"/>
</clipPath>
</defs>
</svg>
