<svg width="24" height="24" viewBox="0 0 24 24" fill="none" xmlns="http://www.w3.org/2000/svg">
<g clip-path="url(#clip0)">
<path d="M24 12C24 18.6275 18.6275 24 12 24C5.3725 24 0 18.6275 0 12C0 5.3725 5.3725 0 12 0C18.6275 0 24 5.3725 24 12Z" fill="#FF929F"/>
<path d="M10.7435 6.65515C13.2123 4.74994 14.45 2.03925 15.013 0.381409C14.0502 0.132385 13.0406 0 12 0C5.3725 0 0 5.3725 0 12C0 18.6275 5.3725 24 12 24C12.4966 24 12.9866 23.9698 13.4674 23.9112C8.25183 19.5333 7.47144 15.0381 7.81274 11.8953C8.03778 9.82434 9.09448 7.92792 10.7435 6.65515Z" fill="#FF737D"/>
<path d="M15.655 11.3677L18.4365 8.58636C19.2676 7.75507 19.2676 6.39478 18.4365 5.56366C17.6052 4.73236 16.2449 4.73236 15.4136 5.56366L12.6323 8.34503C12.2831 8.69421 11.7169 8.69421 11.3677 8.34503L8.58636 5.56366C7.75507 4.73236 6.39496 4.73236 5.56366 5.56366C4.73236 6.39478 4.73236 7.75507 5.56366 8.58636L8.34503 11.3677C8.69421 11.7169 8.69421 12.2831 8.34503 12.6323L5.56366 15.4136C4.73236 16.2449 4.73236 17.6052 5.56366 18.4363C6.39496 19.2676 7.75507 19.2676 8.58636 18.4363L11.3677 15.655C11.7169 15.3058 12.2831 15.3058 12.6323 15.655L15.4136 18.4363C16.2449 19.2676 17.6052 19.2676 18.4365 18.4363C19.2676 17.6052 19.2676 16.2449 18.4365 15.4136L15.655 12.6323C15.3058 12.2831 15.3058 11.7169 15.655 11.3677Z" fill="white"/>
<path d="M10.1689 7.14629L8.58636 5.56352C7.75507 4.73241 6.39496 4.73241 5.56366 5.56352C4.73236 6.39482 4.73236 7.75511 5.56366 8.58641L7.96637 10.9891C8.30658 9.52116 9.07196 8.18193 10.1689 7.14629Z" fill="#BDFAFF"/>
<path d="M8.58641 18.4363L8.8629 18.1598C8.04204 16.3849 7.75237 14.7059 7.74394 13.2332L5.56352 15.4136C4.73241 16.2449 4.73241 17.6052 5.56352 18.4363C6.39482 19.2676 7.75511 19.2676 8.58641 18.4363Z" fill="#CCF8FF"/>
</g>
<defs>
<clipPath id="clip0">
<rect width="24" height="24" fill="white"/>
</clipPath>
</defs>
</svg>
