<svg width="30" height="30" viewBox="0 0 30 30" fill="none" xmlns="http://www.w3.org/2000/svg">
<path d="M21.3245 15.732C20.4874 15.732 19.809 15.0536 19.809 14.2165V7.03377C19.809 4.82643 18.0134 3.03085 15.8061 3.03085H14.1417C11.9343 3.03085 10.1388 4.82643 10.1388 7.03377V14.2165C10.1388 15.0536 9.46013 15.732 8.62334 15.732C7.78632 15.732 7.10791 15.0536 7.10791 14.2165V7.03377C7.10791 3.15536 10.2633 0 14.1417 0H15.8061C19.6845 0 22.8399 3.15536 22.8399 7.03377V14.2165C22.8399 15.0536 22.1615 15.732 21.3245 15.732Z" fill="#A3DEFE"/>
<path d="M7.10791 8.78555V14.2165C7.10791 15.0535 7.78632 15.7319 8.62334 15.7319C9.46013 15.7319 10.1388 15.0535 10.1388 14.2165V8.20923C9.1207 8.35525 8.1095 8.54774 7.10791 8.78555Z" fill="#7ACEFA"/>
<path d="M21.3244 15.7319C22.1615 15.7319 22.8399 15.0535 22.8399 14.2165V8.78555C21.8381 8.54774 20.8269 8.35525 19.809 8.20923V14.2165C19.809 15.0535 20.4874 15.7319 21.3244 15.7319Z" fill="#7ACEFA"/>
<path d="M23.9513 24.4785C18.0837 26.1549 11.8641 26.1549 5.99648 24.4785C5.08301 24.2176 4.45312 23.3827 4.45312 22.4326V12.5442C4.45312 11.5941 5.08301 10.7591 5.99648 10.4982C11.8641 8.82188 18.0837 8.82188 23.9513 10.4982C24.8648 10.7591 25.4947 11.5941 25.4947 12.5442V22.4326C25.4947 23.3827 24.8648 24.2176 23.9513 24.4785Z" fill="#F7EF87"/>
<path d="M11.8579 9.39111C9.88289 9.5804 7.92068 9.94844 5.99648 10.4982C5.08301 10.7591 4.45312 11.5941 4.45312 12.5442V22.4328C4.45312 23.3827 5.08301 24.2176 5.99648 24.4788C9.17473 25.3865 12.4562 25.8017 15.7292 25.726C10.7867 20.8977 9.75655 14.7165 11.8579 9.39111Z" fill="#EFD176"/>
<path d="M23.9513 24.4786C24.8648 24.2177 25.4947 23.3827 25.4947 22.4326V19.9277C21.3831 20.9389 18.0125 21.0909 14.9739 21.0909C11.935 21.0909 8.56476 20.9389 4.45312 19.9277V22.4326C4.45312 23.3827 5.08301 24.2177 5.99648 24.4786C11.8641 26.1549 18.0837 26.1549 23.9513 24.4786Z" fill="#EDA1AB"/>
<path d="M12.299 21.038C9.96368 20.9355 7.39861 20.6521 4.45312 19.9277V22.4326C4.45312 23.3827 5.08301 24.2177 5.99648 24.4786C9.17473 25.3866 12.4562 25.8018 15.7292 25.726C14.2353 24.2666 13.0996 22.6837 12.299 21.038Z" fill="#E26E7E"/>
<path d="M19.7283 30H10.2194C8.36061 30 6.85388 28.4933 6.85388 26.6345C6.85388 24.7758 8.36061 23.2688 10.2194 23.2688H19.7283C21.587 23.2688 23.094 24.7758 23.094 26.6345C23.094 28.4933 21.587 30 19.7283 30Z" fill="#A3DEFE"/>
<path d="M10.2194 23.2688C8.36061 23.2688 6.85388 24.7758 6.85388 26.6345C6.85388 28.4933 8.36061 30 10.2194 30H14.488C12.4857 28.8837 11.0564 25.5162 12.6826 23.2688H10.2194Z" fill="#7ACEFA"/>
<path d="M12.1649 28.7071C11.922 28.7071 11.7254 28.5102 11.7254 28.2676V25.0015C11.7254 24.7586 11.922 24.562 12.1649 24.562C12.4075 24.562 12.6043 24.7586 12.6043 25.0015V28.2676C12.6043 28.5102 12.4075 28.7071 12.1649 28.7071Z" fill="#6A96D7"/>
<path d="M13.3195 28.2287C13.2072 28.2287 13.0946 28.1857 13.0087 28.1001L10.6993 25.7904C10.5276 25.6188 10.5276 25.3407 10.6993 25.169C10.871 24.9974 11.1491 24.9974 11.3207 25.169L13.6301 27.4784C13.8018 27.6501 13.8018 27.9284 13.6301 28.1001C13.5445 28.1857 13.4319 28.2287 13.3195 28.2287Z" fill="#6A96D7"/>
<path d="M13.7979 27.0737H10.5317C10.2889 27.0737 10.0923 26.8771 10.0923 26.6343C10.0923 26.3917 10.2889 26.1948 10.5317 26.1948H13.7979C14.0405 26.1948 14.2373 26.3917 14.2373 26.6343C14.2373 26.8771 14.0405 27.0737 13.7979 27.0737Z" fill="#6A96D7"/>
<path d="M11.0101 28.2287C10.8975 28.2287 10.7851 28.1857 10.6993 28.1001C10.5276 27.9284 10.5276 27.6501 10.6993 27.4784L13.0089 25.169C13.1804 24.9974 13.4587 24.9974 13.6304 25.169C13.802 25.3407 13.802 25.619 13.6304 25.7904L11.3207 28.1001C11.2349 28.1857 11.1225 28.2287 11.0101 28.2287Z" fill="#6A96D7"/>
<path d="M17.783 28.7071C17.5403 28.7071 17.3435 28.5102 17.3435 28.2676V25.0015C17.3435 24.7586 17.5403 24.562 17.783 24.562C18.0256 24.562 18.2224 24.7586 18.2224 25.0015V28.2676C18.2224 28.5102 18.0256 28.7071 17.783 28.7071Z" fill="#6A96D7"/>
<path d="M18.9376 28.2287C18.8253 28.2287 18.7126 28.1857 18.6268 28.1001L16.3174 25.7904C16.1457 25.6188 16.1457 25.3407 16.3174 25.169C16.4891 24.9974 16.7674 24.9974 16.9388 25.169L19.2485 27.4784C19.4199 27.6501 19.4199 27.9284 19.2485 28.1001C19.1626 28.1857 19.05 28.2287 18.9376 28.2287Z" fill="#6A96D7"/>
<path d="M19.416 27.0737H16.1499C15.9071 27.0737 15.7104 26.8771 15.7104 26.6343C15.7104 26.3917 15.9071 26.1948 16.1499 26.1948H19.416C19.6587 26.1948 19.8555 26.3917 19.8555 26.6343C19.8555 26.8771 19.6587 27.0737 19.416 27.0737Z" fill="#6A96D7"/>
<path d="M16.6282 28.2287C16.5156 28.2287 16.4032 28.1857 16.3174 28.1001C16.1457 27.9284 16.1457 27.6501 16.3174 27.4784L18.6268 25.169C18.7985 24.9974 19.0768 24.9974 19.2485 25.169C19.4199 25.3407 19.4199 25.619 19.2485 25.7904L16.9388 28.1001C16.8532 28.1857 16.7406 28.2287 16.6282 28.2287Z" fill="#6A96D7"/>
<path d="M11.5588 16.2773C11.5588 15.3988 10.6647 14.687 9.56177 14.687C8.45901 14.687 7.565 15.3988 7.565 16.2773C7.565 17.1555 8.45901 17.8673 9.56177 17.8673C10.6647 17.8673 11.5588 17.1555 11.5588 16.2773Z" fill="#EDA1AB"/>
<path d="M22.3828 16.2773C22.3828 15.3988 21.4888 14.687 20.3858 14.687C19.2831 14.687 18.389 15.3988 18.389 16.2773C18.389 17.1555 19.2831 17.8673 20.3858 17.8673C21.4888 17.8673 22.3828 17.1555 22.3828 16.2773Z" fill="#EDA1AB"/>
<path d="M11.6762 14.9864C11.4336 14.9864 11.2367 14.7898 11.2367 14.547C11.2367 14.2652 11.0074 14.0359 10.7256 14.0359C10.4439 14.0359 10.2145 14.2652 10.2145 14.547C10.2145 14.7898 10.0179 14.9864 9.77509 14.9864C9.53247 14.9864 9.33563 14.7898 9.33563 14.547C9.33563 13.7807 9.95934 13.157 10.7256 13.157C11.4922 13.157 12.1156 13.7807 12.1156 14.547C12.1156 14.7896 11.9188 14.9864 11.6762 14.9864Z" fill="#4E5660"/>
<path d="M20.1725 14.9864C19.9299 14.9864 19.733 14.7898 19.733 14.547C19.733 14.2652 19.5037 14.0359 19.2219 14.0359C18.9402 14.0359 18.7111 14.2652 18.7111 14.547C18.7111 14.7898 18.5142 14.9864 18.2716 14.9864C18.0288 14.9864 17.8322 14.7898 17.8322 14.547C17.8322 13.7807 18.4556 13.157 19.2219 13.157C19.9885 13.157 20.6119 13.7807 20.6119 14.547C20.6119 14.7896 20.4153 14.9864 20.1725 14.9864Z" fill="#4E5660"/>
<path d="M14.9739 16.5566C14.4605 16.5566 13.9723 16.3341 13.6342 15.9464C13.4749 15.7635 13.4939 15.4859 13.677 15.3263C13.8599 15.167 14.1375 15.186 14.2971 15.3689C14.4678 15.5651 14.7146 15.6777 14.9739 15.6777C15.2332 15.6777 15.4799 15.5651 15.6509 15.3689C15.8102 15.186 16.0878 15.167 16.2709 15.3263C16.4538 15.4859 16.4728 15.7635 16.3135 15.9464C15.9755 16.3341 15.4873 16.5566 14.9739 16.5566Z" fill="#4E5660"/>
</svg>
