<svg width="24" height="24" viewBox="0 0 24 24" fill="none" xmlns="http://www.w3.org/2000/svg">
<g clip-path="url(#clip0)">
<path d="M2.28644 9.36914H0.850891C0.381042 9.36914 0 9.75018 0 10.22V13.9158C0 14.3857 0.381042 14.7667 0.850891 14.7667H2.28644V9.36914Z" fill="#4E5660"/>
<path d="M2.28625 11.4785H1.27185C1.07776 11.4785 0.920288 11.3212 0.920288 11.127C0.920288 10.9329 1.07776 10.7754 1.27185 10.7754H2.28644C2.48053 10.7754 2.638 10.9329 2.638 11.127C2.63782 11.3212 2.48053 11.4785 2.28625 11.4785Z" fill="#383C43"/>
<path d="M2.28625 13.3604H1.27185C1.07776 13.3604 0.920288 13.2029 0.920288 13.0088C0.920288 12.8145 1.07776 12.6572 1.27185 12.6572H2.28644C2.48053 12.6572 2.638 12.8145 2.638 13.0088C2.63782 13.2029 2.48053 13.3604 2.28625 13.3604Z" fill="#383C43"/>
<path d="M9.466 7.04996L13.7932 3.75772C14.8658 2.94162 16.4092 3.70664 16.4092 5.05466V18.9205C16.4092 20.2683 14.8658 21.0334 13.7932 20.2173L9.466 16.925C8.8429 16.451 8.08154 16.1944 7.29877 16.1944H3.29773C2.73907 16.1944 2.28625 15.7416 2.28625 15.183V8.79202C2.28625 8.23355 2.73907 7.78073 3.29773 7.78073H7.29858C8.08154 7.78073 8.8429 7.52402 9.466 7.04996Z" fill="#A3DEFE"/>
<path d="M9.46594 16.9247L10.1749 17.4642C8.42883 14.7009 7.83099 10.5902 7.87146 7.73413C7.68304 7.76471 7.49152 7.78046 7.29871 7.78046H3.29767C2.73901 7.78046 2.28638 8.23328 2.28638 8.79175V15.1827C2.28638 15.7413 2.7392 16.194 3.29767 16.194H7.29871C8.08148 16.194 8.84283 16.4507 9.46594 16.9247Z" fill="#7ACEFA"/>
<path d="M5.79266 12.5857C5.79266 12.0391 5.23639 11.5962 4.54993 11.5962C3.86365 11.5962 3.30737 12.0391 3.30737 12.5857C3.30737 13.1323 3.86365 13.5754 4.54993 13.5754C5.23639 13.5754 5.79266 13.1323 5.79266 12.5857Z" fill="white"/>
<path d="M12.5285 12.5857C12.5285 12.0391 11.9722 11.5962 11.2859 11.5962C10.5995 11.5962 10.0432 12.0391 10.0432 12.5857C10.0432 13.1323 10.5995 13.5754 11.2859 13.5754C11.9722 13.5754 12.5285 13.1323 12.5285 12.5857Z" fill="white"/>
<path d="M4.75781 11.769C4.56372 11.769 4.40625 11.6115 4.40625 11.4174V10.884C4.40625 10.6898 4.56372 10.5325 4.75781 10.5325C4.9519 10.5325 5.10938 10.6898 5.10938 10.884V11.4174C5.10938 11.6115 4.9519 11.769 4.75781 11.769Z" fill="#4E5660"/>
<path d="M8.91992 11.8254C8.91992 11.2062 8.47131 11.1479 7.91797 11.1479C7.36462 11.1479 6.91602 11.2062 6.91602 11.8254C6.91602 12.4445 7.36462 12.9466 7.91797 12.9466C8.47131 12.9466 8.91992 12.4445 8.91992 11.8254Z" fill="#4E5660"/>
<path d="M11.0782 11.769C10.8842 11.769 10.7267 11.6115 10.7267 11.4174V10.884C10.7267 10.6898 10.8842 10.5325 11.0782 10.5325C11.2723 10.5325 11.4298 10.6898 11.4298 10.884V11.4174C11.4298 11.6115 11.2723 11.769 11.0782 11.769Z" fill="#4E5660"/>
<path d="M13.7928 3.75773L13.4055 4.05234V19.9226L13.7928 20.2173C14.8656 21.0334 16.409 20.2683 16.409 18.9205V5.05448C16.409 3.70664 14.8656 2.94163 13.7928 3.75773Z" fill="#8EAFE2"/>
<path d="M21.2007 17.8508C21.0227 17.8508 20.8447 17.7828 20.709 17.6471C20.4373 17.3754 20.4373 16.935 20.709 16.6635C21.9364 15.436 22.6124 13.8039 22.6124 12.0681C22.6124 10.3323 21.9364 8.70024 20.709 7.4727C20.4373 7.20116 20.4373 6.76079 20.709 6.48906C20.9806 6.21751 21.421 6.21751 21.6927 6.48906C24.7689 9.56541 24.7689 14.5708 21.6927 17.6471C21.5568 17.7828 21.3788 17.8508 21.2007 17.8508Z" fill="#EEA849"/>
<path d="M22.526 13.1311C22.3081 14.4628 21.6821 15.6902 20.709 16.6634C20.4373 16.9349 20.4373 17.3753 20.709 17.647C20.8447 17.7827 21.0227 17.8506 21.2007 17.8506C21.3788 17.8506 21.5568 17.7827 21.6927 17.647C22.6721 16.6674 23.3392 15.4922 23.6949 14.2462C23.1451 14.0646 22.7593 13.6218 22.526 13.1311Z" fill="#E9901B"/>
<path d="M18.8895 15.5392C18.7113 15.5392 18.5336 15.4712 18.3975 15.3356C18.126 15.0638 18.126 14.6235 18.3975 14.3517C19.6569 13.0925 19.6569 11.0432 18.3975 9.78381C18.126 9.51208 18.126 9.07171 18.3975 8.80016C18.6692 8.52843 19.1096 8.52862 19.3813 8.80016C21.1831 10.6019 21.1829 13.5338 19.3813 15.3356C19.2455 15.4712 19.0675 15.5392 18.8895 15.5392Z" fill="#F7EF87"/>
<path d="M19.3161 12.4719C19.23 13.1597 18.9246 13.8251 18.3976 14.3519C18.1259 14.6236 18.1259 15.064 18.3976 15.3357C18.5335 15.4714 18.7115 15.5393 18.8895 15.5393C19.0674 15.5393 19.2454 15.4714 19.3813 15.3357C20.0485 14.6683 20.468 13.8459 20.6411 12.9837C20.0839 13.0066 19.6448 12.7942 19.3161 12.4719Z" fill="#EFD176"/>
</g>
<defs>
<clipPath id="clip0">
<rect width="24" height="24" fill="white"/>
</clipPath>
</defs>
</svg>
