<svg width="24" height="16" viewBox="0 0 24 16" fill="none" xmlns="http://www.w3.org/2000/svg">
<g clip-path="url(#clip0)">
<path d="M8.13318 7.63965L6.50159 8.19238L4.86169 9.83228L5.84583 10.4116L7.47388 9.83228L9.11365 8.19238L8.13318 7.63965Z" fill="#E8AFE5"/>
<path d="M5.20105 10.8394L3.22192 11.4722L1.58228 13.1118L2.25537 13.785L4.19446 13.1118L5.83398 11.4722L5.20105 10.8394Z" fill="#E8AFE5"/>
<path d="M2.25538 13.7847L0.0228328 14.7513C-0.0310002 14.9233 0.0103816 15.1188 0.146734 15.2551L0.744757 15.8531C0.940191 16.0486 1.25721 16.0487 1.45252 15.8534L2.55457 14.7513L2.25538 13.7847Z" fill="#E8AFE5"/>
<path d="M8.13318 7.63965L7.79175 7.75525L8.08521 7.84656C8.1178 7.85669 8.14331 7.8822 8.15344 7.91479L8.44702 8.85913L9.11365 8.19238L8.13318 7.63965Z" fill="#E894E4"/>
<path d="M10.1418 7.16418L9.11365 8.19238H6.50159L8.83582 5.85815L10.1418 7.16418Z" fill="#6EE4FF"/>
<path d="M7.47388 9.83228L5.83398 11.472H3.22192L4.86169 9.83228H7.47388Z" fill="#6EE4FF"/>
<path d="M4.1947 13.1116L2.55481 14.7515H0.0230713C0.0462646 14.6769 0.0876465 14.6064 0.146729 14.5474L1.58252 13.1116H4.1947Z" fill="#6EE4FF"/>
<path d="M10.1418 7.16418L8.83582 5.85815L7.14099 7.55298L8.0852 7.84656C8.11792 7.85669 8.14331 7.8822 8.15356 7.9148L8.23987 8.19238H9.11365L10.1418 7.16418Z" fill="#61CAFF"/>
<path d="M15.7855 6.01405L14.8097 4.70644C14.5993 4.42433 14.541 4.05666 14.6541 3.72328L15.178 2.17824C15.4627 1.33876 14.6612 0.537246 13.8217 0.821914L12.2766 1.34584C11.9433 1.45888 11.5756 1.40077 11.2935 1.1902L9.98599 0.21437C9.27554 -0.315781 8.26553 0.198867 8.27689 1.08522L8.29776 2.71657C8.30228 3.0685 8.13333 3.40016 7.84586 3.60341L6.51383 4.54542C5.79007 5.05727 5.96744 6.17677 6.81388 6.43996L8.37186 6.92421C8.70804 7.0287 8.97122 7.29188 9.07571 7.62807L9.55996 9.18605C9.82315 10.0326 10.9427 10.2099 11.4545 9.4861L12.3965 8.15407C12.5998 7.86671 12.9314 7.69777 13.2833 7.70216L14.9148 7.72304C15.801 7.73439 16.3157 6.72438 15.7855 6.01405Z" fill="#FFE176"/>
<path d="M10.0596 3.21432C9.9978 3.21432 9.93591 3.19077 9.88879 3.14365C9.79456 3.04929 9.79456 2.89645 9.88879 2.80222L10.1573 2.53366C10.2516 2.4393 10.4045 2.4393 10.4988 2.53366C10.593 2.6279 10.593 2.78073 10.4988 2.87509L10.2302 3.14365C10.1831 3.19077 10.1213 3.21432 10.0596 3.21432Z" fill="#4B3F4E"/>
<path d="M13.0271 6.18198C12.9653 6.18198 12.9035 6.15842 12.8564 6.11118C12.7621 6.01694 12.7621 5.86398 12.8564 5.76974L13.125 5.50119C13.2192 5.40683 13.372 5.40683 13.4664 5.50119C13.5606 5.59543 13.5606 5.74838 13.4664 5.84262L13.1978 6.11118C13.1506 6.15842 13.0888 6.18198 13.0271 6.18198Z" fill="#4B3F4E"/>
<path d="M11.8852 5.04707C11.6431 5.04707 11.4069 4.9482 11.2294 4.77071C11.0374 4.57869 10.9374 4.31807 10.9551 4.05562C10.964 3.92256 11.0789 3.82185 11.2122 3.83089C11.3453 3.8398 11.4459 3.95491 11.4368 4.08797C11.4286 4.21138 11.4775 4.33577 11.5709 4.42927C11.6644 4.52278 11.7887 4.57161 11.9123 4.56331C12.0451 4.55427 12.1603 4.65498 12.1692 4.78804C12.1783 4.9211 12.0776 5.03621 11.9446 5.04512C11.9247 5.04646 11.9048 5.04707 11.8852 5.04707Z" fill="#4B3F4E"/>
</g>
<line opacity="0.3" x1="21.5713" y1="9.5" x2="23.5" y2="9.5" stroke="#584675" stroke-linecap="round"/>
<defs>
<clipPath id="clip0">
<rect width="16" height="16" fill="white"/>
</clipPath>
</defs>
</svg>
