<svg width="128" height="119" viewBox="0 0 128 119" fill="none" xmlns="http://www.w3.org/2000/svg">
<path d="M46.2066 59.7196C46.9666 60.1584 46.6484 62.2525 45.5411 65.0526C44.8297 66.8513 45.3818 68.9115 46.897 70.1135C49.2566 71.9851 50.5801 73.6401 50.1412 74.4002C49.7024 75.1601 47.6072 74.8415 44.8067 73.734C43.0083 73.0226 40.9479 73.5748 39.7459 75.0902C37.8746 77.4492 36.2201 78.7718 35.4602 78.3331C34.7002 77.8943 35.0184 75.8002 36.126 73C36.8373 71.2013 36.2855 69.1412 34.7703 67.9392C32.4114 66.068 31.089 64.4137 31.5278 63.6537C31.9665 62.8938 34.0606 63.2117 36.8605 64.3189C38.659 65.0301 40.7191 64.478 41.9211 62.9626C43.7922 60.6035 45.4467 59.2809 46.2066 59.7196Z" fill="#E84393"/>
<path d="M48.6523 22.2908C49.2023 22.6083 48.972 24.1237 48.1706 26.1498C47.6558 27.4512 48.0552 28.9422 49.1517 29.8119C50.8591 31.1663 51.8169 32.3639 51.4993 32.9139C51.1818 33.4639 49.6657 33.2333 47.6391 32.4318C46.3377 31.917 44.8468 32.3166 43.9771 33.4132C42.6231 35.1203 41.4259 36.0774 40.8759 35.7598C40.3261 35.4424 40.5563 33.927 41.3577 31.9006C41.8725 30.5992 41.473 29.1084 40.3767 28.2386C38.6699 26.8846 37.7128 25.6873 38.0304 25.1374C38.3479 24.5874 39.8631 24.8175 41.8893 25.6187C43.1907 26.1333 44.6815 25.7338 45.5512 24.6372C46.9052 22.9304 48.1025 21.9733 48.6523 22.2908Z" fill="#E84393"/>
<path d="M25.603 56.5686C26.5229 54.9752 25.977 52.9378 24.3836 52.0178C22.7902 51.0978 20.7527 51.6438 19.8327 53.2372C18.9128 54.8306 19.4587 56.8681 21.0521 57.788C22.6455 58.708 24.683 58.1621 25.603 56.5686Z" fill="#E84393"/>
<path d="M65.0348 13.2496C65.9548 11.6561 65.4089 9.61866 63.8154 8.69871C62.222 7.77875 60.1846 8.3247 59.2646 9.91811C58.3446 11.5115 58.8906 13.549 60.484 14.4689C62.0774 15.3889 64.1149 14.843 65.0348 13.2496Z" fill="#E84393"/>
<path d="M28.6835 86.1902C29.2335 86.5077 29.0033 88.0231 28.2019 90.0492C27.687 91.3507 28.0864 92.8417 29.183 93.7113C30.8903 95.0657 31.8481 96.2633 31.5306 96.8133C31.2131 97.3633 29.697 97.1327 27.6704 96.3312C26.3689 95.8164 24.878 96.216 24.0083 97.3126C22.6544 99.0197 21.4571 99.9768 20.9072 99.6593C20.3573 99.3418 20.5876 97.8264 21.3889 95.8C21.9037 94.4986 21.5043 93.0078 20.408 92.138C18.7012 90.784 17.7441 89.5868 18.0616 89.0368C18.3792 88.4868 19.8944 88.7169 21.9206 89.5181C23.2219 90.0327 24.7128 89.6332 25.5824 88.5367C26.9365 86.8298 28.1337 85.8728 28.6835 86.1902Z" fill="#E84393"/>
<g clip-path="url(#clip0)">
<path d="M39.9686 119C42.0081 119 44.0473 118.222 45.6032 116.666L77.3 84.9691C80.4117 81.8574 80.4117 76.8119 77.2998 73.7C74.1881 70.5883 69.1426 70.5883 66.0309 73.7002L34.3341 105.397C31.2223 108.509 31.2223 113.554 34.3343 116.666C35.8902 118.222 37.9294 119 39.9686 119Z" fill="#5B9675"/>
<path opacity="0.15" d="M33.0603 115.004C45.7712 111.12 55.4991 99.8449 59.013 93.4926C59.5309 92.5565 59.3938 91.3872 58.6588 90.6097C57.1063 88.9675 55.6808 87.2041 54.3973 85.3355L65.9197 73.8131C69.0791 70.6537 74.3103 70.5935 77.4087 73.8127C80.4114 76.9325 80.375 81.8958 77.3 84.9708L45.6032 116.668C44.0474 118.224 42.0081 119.002 39.9687 119.002C37.9295 119.002 35.89 118.224 34.3342 116.668C33.826 116.159 33.4025 115.599 33.0603 115.004Z" fill="#2C6245"/>
<path d="M45.6038 116.665C44.0479 118.221 42.0087 118.999 39.9692 118.999C37.93 118.999 35.8906 118.221 34.3347 116.665C31.2228 113.553 31.2228 108.507 34.3345 105.396L40.237 99.4932C43.9714 103.227 48.0975 107.354 51.5059 110.762L45.6038 116.665Z" fill="#F8E47C"/>
<path opacity="0.15" d="M51.5063 110.763L45.6039 116.666C44.048 118.222 42.0087 119 39.9693 119C37.9301 119 35.8906 118.222 34.3348 116.666C33.8265 116.158 33.4029 115.597 33.0607 115.003C38.5428 113.327 43.4694 110.277 47.5825 106.84C48.9492 108.206 50.275 109.532 51.5063 110.763Z" fill="#C97B00"/>
<path d="M90.2019 98.5961C69.3267 98.5961 52.4039 81.6733 52.4039 60.7981C52.4039 39.9228 69.3267 23 90.2019 23C111.077 23 128 39.9228 128 60.7981C128 81.6733 111.077 98.5961 90.2019 98.5961Z" fill="#72CDA2"/>
<path opacity="0.15" d="M90.2027 98.5942C76.1565 98.5942 63.9002 90.932 57.3844 79.5596C103.872 100.114 119.764 46.9815 95.8854 23.4248C114.064 26.1659 128 41.8536 128 60.7969C128 81.6718 111.078 98.5942 90.2027 98.5942Z" fill="#2C6245"/>
<path d="M90.203 87.8265C75.2747 87.8265 63.173 75.7248 63.173 60.7966C63.173 45.8683 75.2747 33.7666 90.203 33.7666C105.131 33.7666 117.233 45.8683 117.233 60.7966C117.233 75.7248 105.131 87.8265 90.203 87.8265Z" fill="white"/>
<path opacity="0.1" d="M90.2041 33.7666C95.3564 33.7666 100.172 35.2087 104.269 37.7105C87.9573 33.6481 65.3655 42.326 64.4816 69.1157C63.6345 66.4945 63.1747 63.699 63.1747 60.796C63.1747 45.868 75.2762 33.7666 90.2041 33.7666Z" fill="black"/>
<path d="M94.4813 44.5166C105.435 44.5166 114.632 52.0335 117.198 62.1898C116.474 76.4707 104.665 87.8268 90.2041 87.8268C86.0862 87.8268 82.1844 86.9043 78.6913 85.2573C73.9966 80.9725 71.0506 74.8038 71.0506 67.9469C71.0508 55.0068 81.5411 44.5166 94.4813 44.5166Z" fill="#F8E47C"/>
<path d="M108.28 76.3561C105.467 76.3561 103.187 74.5406 103.187 72.3011C103.187 70.0616 105.467 68.2461 108.28 68.2461C111.092 68.2461 113.372 70.0616 113.372 72.3011C113.372 74.5406 111.092 76.3561 108.28 76.3561Z" fill="#E38892"/>
<path d="M80.6804 76.3561C77.8679 76.3561 75.5879 74.5406 75.5879 72.3011C75.5879 70.0616 77.8679 68.2461 80.6804 68.2461C83.4929 68.2461 85.7729 70.0616 85.7729 72.3011C85.7729 74.5406 83.4929 76.3561 80.6804 76.3561Z" fill="#E38892"/>
<path d="M107.428 68.9171C108.204 68.9171 108.834 68.2875 108.834 67.5109V65.3252C108.834 64.5486 108.204 63.9189 107.428 63.9189C106.651 63.9189 106.021 64.5486 106.021 65.3252V67.5109C106.021 68.2875 106.651 68.9171 107.428 68.9171Z" fill="#495059"/>
<path d="M94.4778 72.8733C96.5153 72.8733 98.167 71.2217 98.167 69.1843V66.5022C98.167 65.946 97.7161 65.4951 97.1599 65.4951H91.7958C91.2396 65.4951 90.7887 65.946 90.7887 66.5022V69.1843C90.7885 71.2217 92.4402 72.8733 94.4778 72.8733Z" fill="#495059"/>
<path d="M81.5308 68.9171C82.3074 68.9171 82.937 68.2875 82.937 67.5109V65.3252C82.937 64.5486 82.3074 63.9189 81.5308 63.9189C80.7541 63.9189 80.1245 64.5486 80.1245 65.3252V67.5109C80.1245 68.2875 80.7541 68.9171 81.5308 68.9171Z" fill="#495059"/>
<path opacity="0.15" d="M103.419 46.2822C110.199 49.0827 115.374 54.9738 117.197 62.1987C116.467 76.4745 104.661 87.8254 90.2034 87.8254C86.0887 87.8254 82.1897 86.9044 78.6988 85.2598C78.4854 85.0652 78.2747 84.868 78.0686 84.6657C116.948 91.3763 117.484 57.8363 103.419 46.2822Z" fill="#C97B00"/>
</g>
<defs>
<clipPath id="clip0">
<rect width="96" height="96" transform="matrix(-1 0 0 1 128 23)" fill="white"/>
</clipPath>
</defs>
</svg>
