<svg width="24" height="16" viewBox="0 0 24 16" fill="none" xmlns="http://www.w3.org/2000/svg">
<g clip-path="url(#clip0)">
<path d="M1.32811 16C1.66801 16 2.00789 15.8703 2.2672 15.611L7.55 10.3282C8.06862 9.80956 8.06862 8.96865 7.54997 8.45C7.03135 7.93138 6.19044 7.93138 5.67182 8.45003L0.389014 13.7328C-0.12961 14.2515 -0.129609 15.0924 0.389046 15.611C0.648358 15.8703 0.988232 16 1.32811 16Z" fill="#5B9675"/>
<path opacity="0.15" d="M0.176715 15.334C2.29521 14.6865 3.91651 12.8074 4.50217 11.7487C4.58848 11.5927 4.56563 11.3978 4.44314 11.2682C4.18439 10.9945 3.94679 10.7006 3.73289 10.3892L5.65329 8.46877C6.17985 7.94221 7.05172 7.93218 7.56812 8.4687C8.06856 8.98867 8.0625 9.81589 7.55 10.3284L2.26721 15.6112C2.00789 15.8705 1.66802 16.0002 1.32812 16.0002C0.988242 16.0002 0.648337 15.8705 0.389026 15.6112C0.304338 15.5265 0.233746 15.4331 0.176715 15.334Z" fill="#2C6245"/>
<path d="M2.2673 15.6107C2.00798 15.87 1.66811 15.9997 1.32821 15.9997C0.988335 15.9997 0.648431 15.87 0.38912 15.6107C-0.129533 15.0921 -0.129532 14.2512 0.389089 13.7325L1.37283 12.7488C1.99523 13.3712 2.68292 14.0589 3.25098 14.627L2.2673 15.6107Z" fill="#F8E47C"/>
<path opacity="0.15" d="M3.2511 14.6273L2.26735 15.611C2.00804 15.8704 1.66816 16 1.32826 16C0.988384 16 0.648479 15.8704 0.389167 15.611C0.304449 15.5264 0.233855 15.4329 0.176824 15.3339C1.09051 15.0546 1.9116 14.5462 2.59713 13.9734C2.82491 14.2011 3.04588 14.4221 3.2511 14.6273Z" fill="#C97B00"/>
<path d="M9.70032 12.5994C6.22111 12.5994 3.40065 9.77889 3.40065 6.29968C3.40065 2.82046 6.22111 0 9.70032 0C13.1795 0 16 2.82046 16 6.29968C16 9.77889 13.1795 12.5994 9.70032 12.5994Z" fill="#72CDA2"/>
<path opacity="0.15" d="M9.70045 12.599C7.35942 12.599 5.31671 11.322 4.23074 9.42659C11.9787 12.8523 14.6274 3.99692 10.6476 0.0708008C13.6773 0.527644 16 3.14226 16 6.29948C16 9.77863 13.1796 12.599 9.70045 12.599Z" fill="#2C6245"/>
<path d="M9.70045 10.8044C7.21241 10.8044 5.19546 8.78746 5.19546 6.29943C5.19546 3.81139 7.21241 1.79443 9.70045 1.79443C12.1885 1.79443 14.2054 3.81139 14.2054 6.29943C14.2054 8.78746 12.1885 10.8044 9.70045 10.8044Z" fill="white"/>
<path opacity="0.1" d="M9.70065 1.79443C10.5594 1.79443 11.3619 2.03478 12.0448 2.45174C9.32618 1.77468 5.56087 3.22099 5.41356 7.68595C5.27238 7.24908 5.19575 6.78317 5.19575 6.29933C5.19575 3.81134 7.21265 1.79443 9.70065 1.79443Z" fill="black"/>
<path d="M10.4136 3.58618C12.2392 3.58618 13.772 4.83899 14.1997 6.53171C14.079 8.91186 12.1109 10.8045 9.70068 10.8045C9.01437 10.8045 8.36406 10.6508 7.78188 10.3763C6.99944 9.66217 6.50844 8.63405 6.50844 7.49124C6.50847 5.33455 8.25684 3.58618 10.4136 3.58618Z" fill="#F8E47C"/>
<path d="M12.7133 8.89268C12.2445 8.89268 11.8645 8.5901 11.8645 8.21685C11.8645 7.8436 12.2445 7.54102 12.7133 7.54102C13.182 7.54102 13.562 7.8436 13.562 8.21685C13.562 8.5901 13.182 8.89268 12.7133 8.89268Z" fill="#E38892"/>
<path d="M8.1134 8.89268C7.64465 8.89268 7.26465 8.5901 7.26465 8.21685C7.26465 7.8436 7.64465 7.54102 8.1134 7.54102C8.58216 7.54102 8.96216 7.8436 8.96216 8.21685C8.96216 8.5901 8.58216 8.89268 8.1134 8.89268Z" fill="#E38892"/>
<path d="M12.5713 7.65285C12.7007 7.65285 12.8057 7.54792 12.8057 7.41848V7.0542C12.8057 6.92476 12.7007 6.81982 12.5713 6.81982C12.4419 6.81982 12.3369 6.92476 12.3369 7.0542V7.41848C12.3369 7.54792 12.4419 7.65285 12.5713 7.65285Z" fill="#495059"/>
<path d="M10.413 8.31222C10.7526 8.31222 11.0278 8.03694 11.0278 7.69739V7.25036C11.0278 7.15767 10.9527 7.08252 10.86 7.08252H9.96596C9.87327 7.08252 9.79812 7.15767 9.79812 7.25036V7.69739C9.79808 8.03694 10.0734 8.31222 10.413 8.31222Z" fill="#495059"/>
<path d="M8.25513 7.65285C8.38456 7.65285 8.4895 7.54792 8.4895 7.41848V7.0542C8.4895 6.92476 8.38456 6.81982 8.25513 6.81982C8.12569 6.81982 8.02075 6.92476 8.02075 7.0542V7.41848C8.02075 7.54792 8.12569 7.65285 8.25513 7.65285Z" fill="#495059"/>
<path opacity="0.15" d="M11.9032 3.88037C13.0332 4.34712 13.8957 5.32896 14.1995 6.53312C14.0778 8.91242 12.1101 10.8042 9.70057 10.8042C9.01479 10.8042 8.36494 10.6507 7.78313 10.3766C7.74757 10.3442 7.71244 10.3113 7.6781 10.2776C14.158 11.396 14.2474 5.80605 11.9032 3.88037Z" fill="#C97B00"/>
</g>
<line opacity="0.3" x1="21.5713" y1="9.5" x2="23.5" y2="9.5" stroke="#584675" stroke-linecap="round"/>
<defs>
<clipPath id="clip0">
<rect width="16" height="16" transform="matrix(-1 0 0 1 16 0)" fill="white"/>
</clipPath>
</defs>
</svg>
