<svg width="33" height="29" viewBox="0 0 33 29" fill="none" xmlns="http://www.w3.org/2000/svg">
<path d="M12.1185 14.7559C12.3088 14.8658 12.2291 15.3901 11.9518 16.0912C11.7737 16.5416 11.912 17.0575 12.2913 17.3584C12.8822 17.8271 13.2135 18.2415 13.1037 18.4318C12.9938 18.6221 12.4692 18.5423 11.768 18.265C11.3177 18.0868 10.8018 18.2251 10.5008 18.6045C10.0322 19.1952 9.61797 19.5264 9.42769 19.4165C9.23741 19.3067 9.31707 18.7823 9.59441 18.0812C9.77252 17.6308 9.63434 17.115 9.25495 16.814C8.66431 16.3455 8.3332 15.9313 8.44306 15.741C8.55292 15.5507 9.07724 15.6303 9.77831 15.9075C10.2286 16.0856 10.7445 15.9474 11.0454 15.5679C11.5139 14.9772 11.9282 14.6461 12.1185 14.7559Z" fill="#E84393"/>
<path d="M12.7309 5.38415C12.8686 5.46366 12.8109 5.84309 12.6102 6.35041C12.4813 6.67627 12.5813 7.0496 12.8559 7.26736C13.2834 7.60647 13.5232 7.90635 13.4437 8.04407C13.3642 8.18178 12.9846 8.12403 12.4772 7.92335C12.1513 7.79445 11.778 7.89451 11.5602 8.16908C11.2212 8.59653 10.9214 8.83617 10.7837 8.75666C10.6461 8.67718 10.7037 8.29774 10.9044 7.79035C11.0333 7.46449 10.9332 7.0912 10.6587 6.87342C10.2314 6.53439 9.99173 6.23461 10.0712 6.0969C10.1508 5.95919 10.5301 6.01681 11.0375 6.21743C11.3633 6.34627 11.7366 6.24625 11.9544 5.97168C12.2934 5.54431 12.5932 5.30467 12.7309 5.38415Z" fill="#E84393"/>
<path d="M6.95954 13.967C7.18989 13.568 7.05319 13.0578 6.65422 12.8275C6.25525 12.5972 5.74508 12.7338 5.51474 13.1328C5.28439 13.5318 5.42109 14.042 5.82006 14.2723C6.21903 14.5027 6.7292 14.366 6.95954 13.967Z" fill="#E84393"/>
<path d="M16.8328 3.1203C17.0632 2.72133 16.9265 2.21116 16.5275 1.98082C16.1285 1.75047 15.6184 1.88717 15.388 2.28614C15.1577 2.68511 15.2944 3.19528 15.6934 3.42562C16.0923 3.65597 16.6025 3.51927 16.8328 3.1203Z" fill="#E84393"/>
<path d="M7.73085 21.3839C7.86856 21.4634 7.81092 21.8428 7.61025 22.3502C7.48134 22.676 7.58134 23.0494 7.85591 23.2671C8.28342 23.6062 8.52324 23.9061 8.44373 24.0438C8.36422 24.1815 7.98461 24.1238 7.47717 23.9231C7.1513 23.7942 6.77799 23.8943 6.56024 24.1688C6.22122 24.5963 5.92144 24.8359 5.78373 24.7564C5.64606 24.6769 5.70371 24.2975 5.90436 23.7901C6.03327 23.4642 5.93324 23.091 5.65875 22.8732C5.23138 22.5341 4.99173 22.2344 5.07124 22.0967C5.15075 21.9589 5.53014 22.0166 6.03748 22.2172C6.36333 22.346 6.73662 22.246 6.95437 21.9714C7.29341 21.5441 7.59318 21.3044 7.73085 21.3839Z" fill="#E84393"/>
<g clip-path="url(#clip0)">
<path d="M10.9922 29C11.502 29 12.0118 28.8055 12.4008 28.4165L20.325 20.4923C21.1029 19.7143 21.1029 18.453 20.325 17.675C19.547 16.8971 18.2857 16.8971 17.5077 17.675L9.58352 25.5992C8.80559 26.3772 8.80559 27.6385 9.58357 28.4165C9.97254 28.8055 10.4823 29 10.9922 29Z" fill="#5B9675"/>
<path opacity="0.15" d="M9.26507 28.0011C12.4428 27.0299 14.8748 24.2112 15.7532 22.6232C15.8827 22.3891 15.8485 22.0968 15.6647 21.9024C15.2766 21.4919 14.9202 21.051 14.5993 20.5839L17.4799 17.7033C18.2698 16.9134 19.5776 16.8984 20.3522 17.7032C21.1028 18.4831 21.0937 19.724 20.325 20.4927L12.4008 28.4169C12.0118 28.8059 11.502 29.0004 10.9922 29.0004C10.4824 29.0004 9.97251 28.8059 9.58354 28.4169C9.45651 28.2899 9.35062 28.1497 9.26507 28.0011Z" fill="#2C6245"/>
<path d="M12.4009 28.4161C12.012 28.8052 11.5022 28.9996 10.9923 28.9996C10.4825 28.9996 9.97265 28.8052 9.58368 28.4161C8.8057 27.6382 8.8057 26.3768 9.58363 25.5989L11.0592 24.1233C11.9929 25.0569 13.0244 26.0884 13.8765 26.9406L12.4009 28.4161Z" fill="#F8E47C"/>
<path opacity="0.15" d="M13.8766 26.9409L12.401 28.4164C12.012 28.8055 11.5022 28.9999 10.9923 28.9999C10.4825 28.9999 9.97266 28.8055 9.58369 28.4164C9.45661 28.2894 9.35072 28.1493 9.26517 28.0007C10.6357 27.5818 11.8673 26.8192 12.8956 25.96C13.2373 26.3015 13.5688 26.633 13.8766 26.9409Z" fill="#C97B00"/>
<path d="M23.5505 23.899C18.3317 23.899 14.101 19.6683 14.101 14.4495C14.101 9.23069 18.3317 5 23.5505 5C28.7693 5 33 9.23069 33 14.4495C33 19.6683 28.7693 23.899 23.5505 23.899Z" fill="#72CDA2"/>
<path opacity="0.15" d="M23.5507 23.8985C20.0391 23.8985 16.9751 21.983 15.3461 19.1399C26.9681 24.2784 30.9411 10.9954 24.9714 5.1062C29.516 5.79147 33 9.7134 33 14.4492C33 19.6679 28.7694 23.8985 23.5507 23.8985Z" fill="#2C6245"/>
<path d="M23.5507 21.2066C19.8187 21.2066 16.7933 18.1812 16.7933 14.4491C16.7933 10.7171 19.8187 7.69165 23.5507 7.69165C27.2828 7.69165 30.3082 10.7171 30.3082 14.4491C30.3082 18.1812 27.2828 21.2066 23.5507 21.2066Z" fill="white"/>
<path opacity="0.1" d="M23.551 7.69165C24.8391 7.69165 26.0429 8.05217 27.0673 8.67762C22.9893 7.66203 17.3414 9.83149 17.1204 16.5289C16.9086 15.8736 16.7937 15.1748 16.7937 14.449C16.7937 10.717 19.819 7.69165 23.551 7.69165Z" fill="black"/>
<path d="M24.6203 10.3792C27.3588 10.3792 29.658 12.2584 30.2996 14.7974C30.1184 18.3677 27.1663 21.2067 23.551 21.2067C22.5216 21.2067 21.5461 20.9761 20.6728 20.5643C19.4992 19.4931 18.7627 17.9509 18.7627 16.2367C18.7627 13.0017 21.3853 10.3792 24.6203 10.3792Z" fill="#F8E47C"/>
<path d="M28.0699 18.339C27.3668 18.339 26.7968 17.8852 26.7968 17.3253C26.7968 16.7654 27.3668 16.3115 28.0699 16.3115C28.773 16.3115 29.343 16.7654 29.343 17.3253C29.343 17.8852 28.773 18.339 28.0699 18.339Z" fill="#E38892"/>
<path d="M21.1701 18.339C20.467 18.339 19.897 17.8852 19.897 17.3253C19.897 16.7654 20.467 16.3115 21.1701 16.3115C21.8732 16.3115 22.4432 16.7654 22.4432 17.3253C22.4432 17.8852 21.8732 18.339 21.1701 18.339Z" fill="#E38892"/>
<path d="M27.8569 16.4793C28.0511 16.4793 28.2085 16.3219 28.2085 16.1277V15.5813C28.2085 15.3871 28.0511 15.2297 27.8569 15.2297C27.6628 15.2297 27.5054 15.3871 27.5054 15.5813V16.1277C27.5054 16.3219 27.6628 16.4793 27.8569 16.4793Z" fill="#495059"/>
<path d="M24.6194 17.4683C25.1288 17.4683 25.5417 17.0554 25.5417 16.5461V15.8755C25.5417 15.7365 25.429 15.6238 25.29 15.6238H23.9489C23.8099 15.6238 23.6972 15.7365 23.6972 15.8755V16.5461C23.6971 17.0554 24.11 17.4683 24.6194 17.4683Z" fill="#495059"/>
<path d="M21.3827 16.4793C21.5768 16.4793 21.7343 16.3219 21.7343 16.1277V15.5813C21.7343 15.3871 21.5768 15.2297 21.3827 15.2297C21.1885 15.2297 21.0311 15.3871 21.0311 15.5813V16.1277C21.0311 16.3219 21.1885 16.4793 21.3827 16.4793Z" fill="#495059"/>
<path opacity="0.15" d="M26.8548 10.8206C28.5497 11.5207 29.8435 12.9934 30.2992 14.7997C30.1168 18.3686 27.1652 21.2063 23.5508 21.2063C22.5222 21.2063 21.5474 20.9761 20.6747 20.565C20.6214 20.5163 20.5687 20.467 20.5172 20.4164C30.237 22.0941 30.3711 13.7091 26.8548 10.8206Z" fill="#C97B00"/>
</g>
<defs>
<clipPath id="clip0">
<rect width="24" height="24" transform="matrix(-1 0 0 1 33 5)" fill="white"/>
</clipPath>
</defs>
</svg>
