<svg width="24" height="24" viewBox="0 0 24 24" fill="none" xmlns="http://www.w3.org/2000/svg">
<g clip-path="url(#clip0)">
<path d="M20.909 18.9481C22.5614 16.9556 23.5583 14.3998 23.5684 11.6113C23.5914 5.25342 18.3576 -0.000140622 11.9997 2.82307e-09C5.63853 0.000140628 0.476607 5.1345 0.431794 11.4851C0.386982 17.8358 5.52842 23.0712 11.879 23.1364C12.9332 23.1472 13.9551 23.0165 14.9274 22.7627C15.4759 22.6195 16.0578 22.6941 16.5483 22.9785C17.2377 23.3783 18.0297 23.7258 18.8254 23.9561C19.663 24.1985 20.4258 23.3967 20.16 22.5663C19.9482 21.9048 19.996 21.2421 20.1127 20.6205C20.2284 20.0038 20.5084 19.4311 20.909 18.9481Z" fill="#F0F2FF"/>
<path d="M20.16 22.5663C19.9482 21.9048 19.996 21.2421 20.1127 20.6204C20.2284 20.0037 20.5085 19.4311 20.909 18.9481C21.5954 18.1205 20.6209 17.0748 19.5672 17.2886C15.2231 18.1701 10.9165 16.3695 8.60626 12.8771C5.91005 8.8013 1.23177 5.09308 0.54641 9.93169C0.474464 10.4396 0.435512 10.9582 0.431794 11.4851C0.386982 17.8358 5.52842 23.0712 11.879 23.1364C12.9332 23.1472 13.9551 23.0165 14.9274 22.7627C15.4759 22.6195 16.0578 22.6941 16.5483 22.9785C17.2377 23.3783 18.0297 23.7258 18.8254 23.9561C19.663 24.1984 20.4258 23.3967 20.16 22.5663Z" fill="#DBE1FF"/>
<path d="M14.7446 16.2124C14.1782 16.2124 13.719 15.7533 13.719 15.1869V8.89395C13.719 8.26812 13.0794 7.84592 12.504 8.09187C11.8666 8.36431 11.1859 8.52134 10.4936 8.5557L9.35205 8.61232C9.08519 8.62559 8.87561 8.84581 8.87561 9.113V9.82705C8.87561 10.1039 9.10005 10.3284 9.37689 10.3284H10.3786C10.608 10.3284 10.794 10.5144 10.794 10.7438V15.1869C10.794 15.7533 10.3349 16.2124 9.76853 16.2124C9.27541 16.2124 8.87561 16.6122 8.87561 17.1053V17.4689C8.87561 17.9621 9.27536 18.3618 9.76853 18.3618H14.7446C15.2377 18.3618 15.6375 17.962 15.6375 17.4689V17.1053C15.6375 16.6122 15.2377 16.2124 14.7446 16.2124Z" fill="#7F9AE6"/>
<path d="M12.2564 6.38765C13.0641 6.38765 13.7189 5.73287 13.7189 4.92515C13.7189 4.11743 13.0641 3.46265 12.2564 3.46265C11.4487 3.46265 10.7939 4.11743 10.7939 4.92515C10.7939 5.73287 11.4487 6.38765 12.2564 6.38765Z" fill="#7F9AE6"/>
</g>
<defs>
<clipPath id="clip0">
<rect width="24" height="24" fill="white"/>
</clipPath>
</defs>
</svg>
