<svg width="24" height="24" viewBox="0 0 24 24" fill="none" xmlns="http://www.w3.org/2000/svg">
<g clip-path="url(#clip0)">
<path d="M21.5435 14.6978C21.5435 14.8916 21.5119 15.0842 21.4199 15.2548C21.1359 15.7816 20.3106 16.945 18.4221 17.3296C16.8397 17.652 15.9706 16.1014 15.5502 14.9449C15.2876 14.2223 15.5289 13.4401 16.0539 12.8784C16.5714 12.3247 17.3172 12.0435 18.0714 12.1176L18.5019 12.16C19.1114 12.2199 19.6923 12.4476 20.1801 12.8179L20.8705 13.342C21.2945 13.6638 21.5435 14.1655 21.5435 14.6978Z" fill="#3A484A"/>
<path d="M20.0587 6.56791C19.2975 6.41031 18.5269 6.68785 17.8857 7.12735L17.8111 7.17846C17.0846 7.67648 16.565 8.42276 16.3501 9.27698L15.596 12.2748C15.405 13.0343 15.9793 13.771 16.7625 13.771C16.8314 13.771 16.9012 13.7647 16.9693 13.7538C19.7033 13.3164 21.2324 14.5554 21.9442 15.4217C22.2401 15.7818 22.8089 15.7072 22.9979 15.2812C24.1203 12.7519 24.1642 7.41795 20.0587 6.56791Z" fill="#506366"/>
<path d="M15.6149 3.0912C14.4395 2.62829 12.6503 4.26152 11.5867 4.943C11.4565 5.02132 11.3769 5.1622 11.3771 5.31414L11.3774 5.63064C11.3776 5.88729 11.4774 6.13385 11.6556 6.31849L12.1237 6.8033C12.5354 7.22971 13.0776 7.50655 13.6644 7.58994L15.3091 7.82365C15.5467 7.85742 15.7871 7.86763 16.0268 7.85413L17.3913 7.77729C17.8705 7.7503 18.4455 7.16858 18.687 6.75379C18.9029 6.38314 18.7842 6.21148 18.5891 5.82946C18.0146 4.70384 17.0909 3.67257 15.6149 3.0912Z" fill="#7CB777"/>
<path d="M16.9775 11.2843C17.3915 8.97317 17.5202 6.25578 15.378 5.29475C14.6524 4.96922 13.7869 4.76394 12.7838 4.82349C11.8549 4.87864 11.0609 5.45469 10.471 6.17437C10.0086 6.7386 9.68789 7.40531 9.53574 8.11879L8.44318 13.2419C8.2797 14.0085 8.82573 14.7448 9.6068 14.8108L10.081 14.8509C10.0811 14.8509 10.0811 14.8509 10.0812 14.851C10.0812 14.8511 10.0812 14.8511 10.0812 14.8512L9.89325 15.7818C9.59429 17.2621 10.5411 18.7077 12.0176 19.0251L12.5887 19.1479C13.0437 19.2457 13.514 19.2476 13.9697 19.1536L16.9816 18.5324C17.234 18.4804 17.4641 18.3515 17.6404 18.1634C18.0828 17.6915 18.0773 16.966 17.7409 16.4135C16.7475 14.782 16.6813 12.9382 16.9775 11.2843Z" fill="#EFEDEE"/>
<path d="M11.9295 4.70296C13.1698 3.75486 11.7796 2.51625 10.2719 2.92151C5.07414 4.31861 1.59993 10.0993 0.628689 17.2397C0.567703 17.6881 0.763251 18.131 1.12734 18.3997C1.66719 18.7981 2.42388 18.7072 2.85411 18.1924L6.90903 13.3403C7.28778 12.8871 7.61508 12.3933 7.88493 11.8679L11.3765 5.07001C11.3767 5.06953 11.3771 5.06929 11.3775 5.06899C11.3776 5.06891 11.3778 5.06879 11.3779 5.06872C11.3971 5.05827 11.6406 4.92378 11.9295 4.70296Z" fill="#85E7FF"/>
<path d="M2.2706 18.8907C2.31054 18.8429 2.33469 18.7839 2.34 18.7218C2.36167 18.4683 2.38638 18.2162 2.41416 17.9656C3.27385 10.2145 7.04189 3.9105 12.7568 2.78017C12.7986 2.7719 12.8222 2.72695 12.8021 2.68935C12.7996 2.6848 12.7972 2.6802 12.7947 2.67566C12.768 2.6269 12.7149 2.59878 12.6593 2.59928C6.14333 2.65766 1.7419 9.05551 0.628689 17.2397C0.567703 17.6881 0.763252 18.131 1.12735 18.3997L1.85953 18.94C1.98804 19.0348 2.16818 19.0132 2.2706 18.8907Z" fill="#57D0E6"/>
<path d="M18.3943 20.228C18.3069 20.1075 18.1852 20.0163 18.045 19.9661L13.4707 18.3298C12.496 17.9811 11.6393 17.3646 10.9991 16.5511L10.3841 15.7694C10.3229 15.6917 10.2785 15.6023 10.2534 15.5067L10.0813 14.8511C10.0813 14.851 10.0812 14.8509 10.0811 14.851L10.0808 14.851C10.0808 14.851 10.0808 14.851 10.0808 14.851C10.0808 14.8509 10.0808 14.8509 10.0808 14.8509H10.081C10.0811 14.8509 10.0812 14.8508 10.0811 14.8507C9.56111 13.8141 9.67872 12.5127 10.4985 11.5776C10.5068 11.5685 10.5145 11.5594 10.5227 11.5502C11.9276 9.96364 12.7503 8.19342 12.8355 6.90448C12.9539 5.11451 10.4092 5.18713 8.94472 6.22314C4.7939 9.15956 4.59198 15.4339 1.91143 17.4004C1.19937 17.9228 0.466426 18.5613 0.411824 19.4428C0.345446 20.5143 1.22187 21.4012 2.29544 21.4012H16.4555H17.7961C18.3998 21.4012 18.7488 20.7166 18.3943 20.228Z" fill="#FADC60"/>
<path d="M18.5737 17.4958C19.5467 18.8863 17.8532 21.4555 16.1879 21.1282C9.8847 19.8891 10.0806 14.8565 10.0808 14.8511C10.0808 14.8509 10.0809 14.8511 10.0811 14.8511C10.0812 14.8511 10.0813 14.8511 10.0813 14.8512C10.2817 15.2515 10.5772 15.6124 10.9642 15.8973C12.2452 16.8412 14.2847 17.7419 17.2714 17.4815C18.0162 17.4165 18.1451 16.8833 18.5737 17.4958Z" fill="#506366"/>
<path d="M2.41411 17.9654C2.45203 17.6236 1.96597 17.3827 1.67163 17.5605C1.4527 17.6928 1.21781 17.798 0.963983 17.8725C0.717961 17.9448 0.518915 18.143 0.494346 18.3982C0.429006 19.077 0.385748 19.7664 0.365282 20.4637C0.350094 20.9813 0.771296 21.4011 1.28906 21.4011C1.80683 21.4011 2.22509 20.9813 2.24028 20.4637C2.26511 19.6177 2.32348 18.7834 2.41411 17.9654Z" fill="#F2C42C"/>
<path d="M13.2677 10.3531C13.4425 10.432 13.654 10.352 13.7328 10.1774C13.819 9.98664 13.9908 9.84016 14.2041 9.77556C14.4175 9.71092 14.6416 9.7375 14.8192 9.84845C14.9839 9.95134 15.2007 9.90123 15.3036 9.73661C15.4065 9.57194 15.3564 9.35505 15.1917 9.25216C14.8422 9.03372 14.4078 8.97925 14.0004 9.10262C13.5928 9.22605 13.2618 9.51227 13.0921 9.88792C13.0122 10.0649 13.0908 10.2731 13.2677 10.3531Z" fill="black"/>
<path d="M22.1822 7.20867C20.6361 5.88758 18.7315 4.70638 17.0919 3.50323C15.956 2.6697 14.495 2.24707 12.7493 2.24707C11.3683 2.24707 10.0384 2.52363 8.79647 3.06916C7.60983 3.59037 6.49955 4.35841 5.49647 5.35202C3.58636 7.24404 2.07581 9.95112 1.12814 13.1806C1.07348 13.3669 1.18017 13.5623 1.36655 13.617C1.5503 13.6708 1.74886 13.5627 1.80286 13.3786C2.71711 10.2629 4.16545 7.66015 5.99133 5.85162C7.88063 3.98023 10.0816 3.00555 12.5368 2.95259C12.5512 2.95226 12.5737 3.08923 12.5758 3.10451C12.6427 3.59379 12.2001 4.00666 11.871 4.29921C11.8706 4.29959 11.8702 4.29991 11.8698 4.30024C11.6499 4.48573 11.4262 4.63446 11.2751 4.72287C11.2299 4.74931 11.1794 4.76135 11.1294 4.77659C10.6878 4.91107 10.2576 5.08057 9.84286 5.28316C9.69089 5.35737 9.54141 5.43635 9.39459 5.52035C9.22603 5.61677 9.16758 5.83155 9.264 6.00007C9.35897 6.16605 9.57797 6.22507 9.74372 6.13062C9.9022 6.04034 10.0633 5.95559 10.2283 5.87777C10.4912 5.75374 10.7601 5.64298 11.0344 5.54707C11.291 5.45734 11.5711 5.39871 11.8285 5.4859C12.3292 5.65549 12.4858 6.17848 12.4907 6.65805C12.4952 7.10351 12.3877 7.64459 12.1723 8.22973C11.7135 9.47632 10.923 10.459 10.1157 11.4897C9.34796 12.47 9.19555 13.7896 9.72633 14.9245C9.72774 14.9275 9.72853 14.9308 9.72853 14.9341C9.73791 16.197 10.2161 17.4747 10.9545 18.4893C11.8274 19.6887 13.1162 20.5366 14.5012 21.0339C14.5094 21.0369 14.5071 21.0496 14.4984 21.0496H2.33596C1.43821 21.0496 0.70885 20.316 0.765604 19.42C0.790071 19.0338 0.821686 18.6498 0.860383 18.2694C0.860807 18.2652 0.863802 18.2616 0.867891 18.2607C1.87659 18.0272 2.67994 17.3047 3.24994 16.4673C3.88828 15.5276 4.38103 14.3189 4.90275 13.0393C5.77561 10.8983 6.76491 8.4717 8.66775 6.88024C8.81194 6.75968 8.83481 6.53201 8.71191 6.38501C8.58731 6.23604 8.36559 6.21631 8.21667 6.34085C6.17977 8.04438 5.15541 10.557 4.25166 12.7738C3.77016 13.9548 3.31706 15.1818 2.56102 16.2215C2.55811 16.2255 2.5552 16.2296 2.55225 16.2336C2.14706 16.7892 1.62141 17.2789 0.960234 17.5037C0.954565 17.5056 0.948884 17.5009 0.949647 17.495C1.06099 16.6307 1.21038 15.7791 1.39505 14.9568C1.43756 14.7673 1.3185 14.5793 1.12903 14.5368C0.939563 14.4943 0.7515 14.6134 0.708984 14.8028C0.482531 15.8112 0.307875 16.8622 0.18975 17.9267C0.0638437 19.0624 0 20.2313 0 21.4011C0 21.5953 0.157406 21.7527 0.351562 21.7527H19.2441C19.2445 21.7527 19.245 21.7527 19.2465 21.7527C19.4406 21.7527 19.598 21.5953 19.598 21.4011C19.598 21.3924 19.5977 21.3836 19.597 21.3751C19.5959 20.3844 19.5315 19.6165 19.4355 19.0219C19.307 18.2265 19.7348 17.3422 20.398 16.8847C20.9939 16.4736 21.3714 16.0038 21.5956 15.6502C21.6129 15.6229 21.6521 15.6198 21.6727 15.6448C22.126 16.1966 23.0295 16.0767 23.3193 15.4236C23.7536 14.4448 24.0017 13.1664 24 11.916C23.9986 10.8919 23.8275 9.41065 23.0209 8.17015C22.7814 7.80187 22.5008 7.48087 22.1822 7.20867ZM18.3353 21.0279C16.98 20.962 15.6077 20.7443 14.3482 20.2229C13.6626 19.9391 13.0094 19.563 12.4484 19.0749C11.5467 18.2903 10.9011 17.2621 10.6031 16.1028C10.5989 16.0862 10.6189 16.0735 10.6322 16.0842C10.6699 16.1143 10.7238 16.157 10.7557 16.1805C11.2492 16.544 11.7759 16.8493 12.3338 17.0966C13.5049 17.616 14.814 17.8784 16.2455 17.8784C16.7816 17.8784 17.3176 17.8401 17.8492 17.7717C18.1204 17.7367 18.3947 17.8559 18.4904 18.1121C18.4946 18.1233 18.4988 18.1347 18.503 18.1463C18.6484 18.5503 18.8166 19.2675 18.8737 20.4903C18.8879 20.7938 18.6387 21.0434 18.3353 21.0279ZM10.6777 11.9144C11.1393 11.3174 11.6277 10.7634 12.0239 10.1161C12.6374 9.1136 13.1737 7.93835 13.1931 6.74234C13.1996 6.34338 13.1378 5.98432 13.0017 5.68193C12.9829 5.64036 12.9625 5.59942 12.9405 5.55932C12.8519 5.3982 12.9438 5.16471 13.1277 5.16471C13.9213 5.16471 14.6759 5.33876 15.3839 5.68334C15.8242 5.89765 16.2465 6.17777 16.649 6.52348C17.0664 6.88212 17.4434 7.29241 17.7561 7.74574C17.7621 7.7544 17.763 7.76556 17.7586 7.77509C17.7406 7.8135 17.7229 7.85204 17.7052 7.89059C17.128 9.14824 16.5429 10.8387 16.4779 12.616C16.4737 12.7296 16.4712 12.8435 16.4715 12.9573C16.4718 13.9744 16.6518 14.9097 17.0098 15.7571C17.275 16.3849 16.9274 17.1752 16.2459 17.1752C14.9362 17.1752 13.7398 16.9404 12.6705 16.4759C11.7828 16.0903 10.8474 15.596 10.3955 14.6932C9.94645 13.796 10.0658 12.7056 10.6777 11.9144ZM18.4038 6.25365C18.4508 6.35695 18.4655 6.43652 18.4079 6.53433C18.278 6.75524 17.9401 6.82405 17.768 6.63414C17.5887 6.4363 17.3752 6.22199 17.1273 6.00748C16.6526 5.59662 16.1425 5.26441 15.607 5.01485C14.8243 4.64998 13.9874 4.46149 13.1275 4.46149C13.0167 4.46149 12.9022 4.46471 12.7891 4.47096C12.758 4.47268 12.7399 4.43542 12.7602 4.41185C12.7607 4.41124 12.7612 4.41063 12.7617 4.41002C12.9329 4.20776 13.0815 3.98965 13.1786 3.74177C13.3275 3.3617 13.6498 2.98197 14.0536 3.04221C16.1137 3.34959 17.5728 4.42571 18.4038 6.25365ZM18.5511 16.9405C18.5405 16.9424 18.485 16.8594 18.4789 16.8517C18.1579 16.4486 17.8266 15.9195 17.5774 15.2519C17.3431 14.624 17.8202 13.9795 18.4886 14.0304C20.165 14.158 20.5207 16.3076 18.9239 16.8339C18.8054 16.8729 18.6812 16.9087 18.5511 16.9405ZM22.6766 15.1385C22.5946 15.3233 22.3425 15.3525 22.2159 15.1984C21.5664 14.408 20.4222 13.4788 18.5785 13.3319C18.1256 13.2959 17.6702 13.3091 17.2193 13.3641C17.2016 13.3663 17.1856 13.3529 17.1847 13.335C17.1242 12.128 17.3292 10.3172 18.4328 7.99484C18.7894 7.24422 19.5953 6.77081 20.3898 7.01448C21.2539 7.2795 21.9375 7.79403 22.4314 8.55354C23.6098 10.3656 23.4815 13.3246 22.6766 15.1385Z" fill="black"/>
</g>
<defs>
<clipPath id="clip0">
<rect width="24" height="24" fill="white"/>
</clipPath>
</defs>
</svg>
