<svg width="24" height="24" viewBox="0 0 24 24" fill="none" xmlns="http://www.w3.org/2000/svg">
<g filter="url(#filter0_b)">
<g clip-path="url(#clip0)">
<path d="M7.46997 9.32764L5.47669 22.5711C5.37433 23.2502 5.84217 23.8838 6.52131 23.9861C7.20044 24.0883 7.83399 23.6205 7.93616 22.9413L9.98529 9.32764H7.46997Z" fill="#E7896E"/>
<path d="M9.9853 9.32764H7.46998L6.26148 17.3557C7.07227 17.1462 7.94001 16.9798 8.85114 16.8628L9.9853 9.32764Z" fill="#DD6642"/>
<path d="M16.5505 9.32764L18.5438 22.5711C18.646 23.2502 18.1784 23.8838 17.499 23.9861C16.8199 24.0883 16.1863 23.6205 16.0842 22.9413L14.035 9.32764H16.5505Z" fill="#E7896E"/>
<path d="M16.5505 9.32764H14.035L15.1692 16.8628C16.0803 16.9798 16.9482 17.1462 17.7589 17.3557L16.5505 9.32764Z" fill="#DD6642"/>
<path d="M12.0103 22.9167C11.3232 22.9167 10.7664 22.3599 10.7664 21.6729V1.24365C10.7664 0.556824 11.3232 0 12.0103 0C12.6971 0 13.2539 0.556824 13.2539 1.24365V21.6729C13.2539 22.3599 12.6971 22.9167 12.0103 22.9167Z" fill="#DD6642"/>
<path d="M13.2539 16.6941V1.24365C13.2539 0.556824 12.6971 0 12.0103 0C11.3232 0 10.7664 0.556824 10.7664 1.24365V16.6939C11.1753 16.6741 11.5902 16.6637 12.0103 16.6637C12.4303 16.6637 12.845 16.6741 13.2539 16.6941Z" fill="#B24E2F"/>
<path d="M19.5167 13.7675H4.50367V3.83307C4.50367 3.08051 5.11396 2.47021 5.86652 2.47021H18.1538C18.9066 2.47021 19.5167 3.08051 19.5167 3.83307V13.7675Z" fill="#C2EAFB"/>
<path d="M15.3439 10.0799C15.3439 11.4171 14.2597 12.5013 12.9225 12.5013C11.5853 12.5013 10.5013 11.4171 10.5013 10.0799C10.5013 8.74268 11.5853 7.65869 12.9225 7.65869C14.2597 7.65869 15.3439 8.74268 15.3439 10.0799Z" fill="#F9EE80"/>
<path d="M12.0103 11.4583L15.0255 9.31452C15.7703 8.7848 16.7816 8.83662 17.4688 9.43958L19.5167 11.2368V13.7676H12.0103V11.4583Z" fill="#29CE69"/>
<path d="M4.50367 11.4585L8.29066 8.78716C9.11793 8.20361 10.2479 8.31493 10.9453 9.04864L15.3986 13.7328H4.50367V11.4585Z" fill="#73DA8C"/>
<path d="M19.7693 15.1733H4.25098C3.63776 15.1733 3.14062 14.6762 3.14062 14.063C3.14062 13.4498 3.63776 12.9526 4.25098 12.9526H19.7693C20.3826 12.9526 20.8797 13.4498 20.8797 14.063C20.8797 14.6762 20.3826 15.1733 19.7693 15.1733Z" fill="#F2AD9A"/>
<path d="M5.76306 14.063C5.76306 13.4498 6.26019 12.9526 6.87341 12.9526H4.25098C3.63776 12.9526 3.14062 13.4498 3.14062 14.063C3.14062 14.6762 3.63776 15.1733 4.25098 15.1733H6.87341C6.26019 15.1733 5.76306 14.6762 5.76306 14.063Z" fill="#E7896E"/>
<path d="M9.31476 5.83722C9.31476 5.39886 8.86853 5.04346 8.31812 5.04346C7.76752 5.04346 7.32129 5.39886 7.32129 5.83722C7.32129 6.27557 7.76752 6.63098 8.31812 6.63098C8.86853 6.63098 9.31476 6.27557 9.31476 5.83722Z" fill="#FFB3C2"/>
<path d="M16.699 5.83722C16.699 5.39886 16.2528 5.04346 15.7024 5.04346C15.1518 5.04346 14.7056 5.39886 14.7056 5.83722C14.7056 6.27557 15.1518 6.63098 15.7024 6.63098C16.2528 6.63098 16.699 6.27557 16.699 5.83722Z" fill="#FFB3C2"/>
<path d="M14.9949 5.70361C14.7947 5.70361 14.6327 5.54138 14.6327 5.34143V4.74011C14.6327 4.54016 14.7947 4.37793 14.9949 4.37793C15.1948 4.37793 15.3571 4.54016 15.3571 4.74011V5.34143C15.3571 5.54138 15.1948 5.70361 14.9949 5.70361Z" fill="#454545"/>
<path d="M9.02564 5.70361C8.82551 5.70361 8.66346 5.54138 8.66346 5.34143V4.74011C8.66346 4.54016 8.82551 4.37793 9.02564 4.37793C9.22559 4.37793 9.38783 4.54016 9.38783 4.74011V5.34143C9.38783 5.54138 9.22559 5.70361 9.02564 5.70361Z" fill="#454545"/>
<path d="M12.2576 4.97977C12.1763 5.09897 12.0582 5.11325 12.0103 5.11325C11.9623 5.11325 11.842 5.10025 11.7629 4.97977C11.653 4.81259 11.4284 4.76608 11.2614 4.87595C11.0942 4.98563 11.0477 5.2103 11.1574 5.37747C11.3467 5.6655 11.6655 5.83762 12.0103 5.83762C12.3549 5.83762 12.6737 5.6655 12.863 5.37747C12.9729 5.2103 12.9263 4.98563 12.7592 4.87595C12.6978 4.83566 12.4268 4.73129 12.2576 4.97977Z" fill="#454545"/>
</g>
</g>
<defs>
<filter id="filter0_b" x="-4" y="-4" width="32" height="32" filterUnits="userSpaceOnUse" color-interpolation-filters="sRGB">
<feFlood flood-opacity="0" result="BackgroundImageFix"/>
<feGaussianBlur in="BackgroundImage" stdDeviation="2"/>
<feComposite in2="SourceAlpha" operator="in" result="effect1_backgroundBlur"/>
<feBlend mode="normal" in="SourceGraphic" in2="effect1_backgroundBlur" result="shape"/>
</filter>
<clipPath id="clip0">
<rect width="24" height="24" fill="white"/>
</clipPath>
</defs>
</svg>
