<svg width="98" height="98" viewBox="0 0 98 98" fill="none" xmlns="http://www.w3.org/2000/svg">
<g clip-path="url(#clip0)">
<path d="M84.312 76.5389C90.8615 68.6412 94.813 58.511 94.853 47.4584C94.9443 22.2583 74.1994 1.43497 48.9987 1.43555C23.7855 1.43612 3.32558 21.7867 3.14776 46.9583C2.97013 72.1302 23.349 92.8814 48.5204 93.1396C52.699 93.1825 56.7496 92.6645 60.6032 91.6585C62.7777 91.091 65.0836 91.3863 67.0277 92.5137C69.7603 94.0984 72.8995 95.4759 76.0534 96.3885C79.3733 97.3492 82.3968 94.1715 81.3433 90.88C80.504 88.2579 80.6933 85.6315 81.1559 83.1673C81.6145 80.7232 82.7245 78.4531 84.312 76.5389Z" fill="#F0F2FF"/>
<path d="M81.3433 90.88C80.504 88.258 80.6932 85.6315 81.1557 83.1673C81.6145 80.7232 82.7245 78.4533 84.312 76.5393C87.0141 73.2811 89.2721 69.6423 90.9976 65.7161C55.519 83.9787 12.6624 51.1221 34.7303 3.70276C16.493 9.66987 3.29036 26.7606 3.14776 46.9583C2.97013 72.1302 23.349 92.8816 48.5204 93.1396C52.699 93.1825 56.7496 92.6645 60.6032 91.6585C62.7777 91.0908 65.0836 91.3863 67.0277 92.5137C69.7603 94.0984 72.8995 95.4759 76.0534 96.3885C79.3731 97.3492 82.3966 94.1715 81.3433 90.88Z" fill="#DBE1FF"/>
<path d="M55.8136 65.696V36.6882C55.8136 34.2076 53.2785 32.5341 50.9977 33.5091C48.4713 34.5889 45.7734 35.2115 43.0292 35.3476L38.5047 35.5721C37.4468 35.6246 36.6161 36.4976 36.6161 37.5566V40.387C36.6161 41.4843 37.5057 42.374 38.6031 42.374H42.5734C43.4828 42.374 44.2201 43.1113 44.2201 44.0206V65.6961H40.1554C38.2007 65.6961 36.6161 67.2808 36.6161 69.2355V70.6766C36.6161 72.6312 38.2007 74.2159 40.1554 74.2159H59.8786C61.8332 74.2159 63.4179 72.6312 63.4179 70.6766V69.2355C63.4179 67.2808 61.8332 65.6961 59.8786 65.6961H55.8136V65.696Z" fill="#7F9AE6"/>
<path d="M50.0171 26.7543C53.219 26.7543 55.8147 24.1587 55.8147 20.9568C55.8147 17.7549 53.219 15.1593 50.0171 15.1593C46.8152 15.1593 44.2196 17.7549 44.2196 20.9568C44.2196 24.1587 46.8152 26.7543 50.0171 26.7543Z" fill="#7F9AE6"/>
<path d="M22.7563 83.0745C17.207 78.9866 12.6124 73.596 9.46916 67.4855C6.2227 61.1737 4.53315 54.079 4.58349 46.9684C4.66676 35.1716 9.32369 24.0941 17.6968 15.7761C26.0737 7.45454 37.1904 2.87149 48.9987 2.87111C55.965 2.87091 62.6548 4.47395 68.8832 7.63523C69.5905 7.99411 70.4543 7.71198 70.813 7.00492C71.1719 6.29806 70.8896 5.43385 70.1827 5.07516C63.5481 1.70735 56.4207 -0.000191391 48.9987 1.609e-08C36.4271 0.00038283 24.5918 4.87973 15.6732 13.7394C6.75922 22.5946 1.80101 34.3884 1.71258 46.9483C1.65918 54.5208 3.4586 62.0765 6.91617 68.799C10.261 75.3012 15.1495 81.0371 21.0533 85.3863C21.3096 85.575 21.6078 85.6661 21.9035 85.6661C22.3442 85.6661 22.779 85.4638 23.0604 85.0819C23.5309 84.4434 23.3946 83.5448 22.7563 83.0745ZM40.1551 64.2603C37.4121 64.2603 35.1807 66.4919 35.1807 69.235V70.6759C35.1807 73.4189 37.4123 75.6506 40.1551 75.6506H59.8783C62.6215 75.6506 64.853 73.4187 64.853 70.6759V69.235C64.853 66.4917 62.6214 64.2603 59.8783 64.2603H57.2491V36.6881C57.2491 35.0393 56.4276 33.5129 55.0518 32.6045C53.6759 31.6962 51.9496 31.5408 50.4337 32.1889C48.0557 33.2053 45.541 33.7854 42.9581 33.9137L38.4334 34.1382C36.6095 34.2287 35.1807 35.7303 35.1807 37.5565V40.3869C35.1807 42.2742 36.7159 43.8094 38.6032 43.8094H42.5736C42.6899 43.8094 42.7847 43.9042 42.7847 44.0205V64.2607H40.1553V64.2603H40.1551ZM42.5734 40.9381H38.603C38.2989 40.9381 38.0516 40.6908 38.0516 40.3867V37.5564C38.0516 37.262 38.2818 37.02 38.5757 37.0055L43.1003 36.781C46.0233 36.6359 48.8703 35.9792 51.5619 34.8288C52.1973 34.557 52.8929 34.6196 53.47 35.0005C54.0471 35.3814 54.378 35.9964 54.378 36.6879V65.6957C54.378 66.4885 55.0208 67.1312 55.8136 67.1312H59.8783C61.0382 67.1312 61.9821 68.0749 61.9821 69.235V70.6759C61.9821 71.8358 61.0382 72.7796 59.8783 72.7796H40.1551C38.9954 72.7796 38.0516 71.8358 38.0516 70.6759V69.235C38.0516 68.0749 38.9954 67.1312 40.1551 67.1312H44.2199C45.0129 67.1312 45.6554 66.4885 45.6554 65.6957V44.0202C45.6556 42.3207 44.2729 40.9381 42.5734 40.9381ZM85.417 77.4553C92.3878 69.0493 96.2489 58.3981 96.2885 47.4636C96.3436 32.2569 88.9012 17.8181 76.3797 8.84032C75.7358 8.37865 74.8385 8.52603 74.3766 9.1705C73.9146 9.81478 74.0623 10.7117 74.7068 11.1736C86.4745 19.611 93.4691 33.1735 93.4174 47.4529C93.3803 57.7234 89.7539 67.7275 83.207 75.6222C81.4346 77.7591 80.2373 80.2763 79.7446 82.902C79.354 84.9839 78.9528 88.1213 79.9758 91.3172C80.3112 92.3654 80.0526 93.4629 79.2845 94.253C78.5357 95.0232 77.477 95.3059 76.452 95.0093C73.5015 94.1554 70.4916 92.863 67.7472 91.2715C65.476 89.9544 62.8103 89.598 60.2401 90.2691C56.4374 91.2617 52.4967 91.7433 48.5348 91.7037C41.4596 91.6311 34.7033 89.9284 28.4537 86.6429C27.751 86.2736 26.8838 86.5439 26.5149 87.2454C26.1459 87.9471 26.4158 88.8151 27.1175 89.1842C33.7742 92.6839 40.97 94.4973 48.5051 94.5746C52.7271 94.6159 56.9163 94.1041 60.9653 93.0472C62.7976 92.5688 64.6949 92.8203 66.3069 93.7552C69.2502 95.4621 72.4821 96.8495 75.6537 97.7673C76.194 97.9236 76.7386 98 77.2757 98C78.7868 97.9998 80.2354 97.3934 81.3429 96.2544C82.8406 94.7139 83.3647 92.4867 82.7101 90.4421C82.0739 88.4543 82.0294 86.2922 82.5663 83.4318C82.9694 81.2846 83.955 79.218 85.417 77.4553ZM50.0168 28.1893C54.005 28.1893 57.2493 24.9447 57.2493 20.957C57.2493 16.9692 54.0048 13.7245 50.0168 13.7245C46.0289 13.7245 42.7845 16.969 42.7845 20.957C42.7845 24.9447 46.029 28.1893 50.0168 28.1893ZM50.0168 16.5954C52.4218 16.5954 54.3782 18.5519 54.3782 20.957C54.3782 23.3618 52.4215 25.3184 50.0168 25.3184C47.612 25.3184 45.6554 23.3618 45.6554 20.957C45.6556 18.5519 47.6118 16.5954 50.0168 16.5954Z" fill="black"/>
</g>
<defs>
<clipPath id="clip0">
<rect width="98" height="98" fill="white"/>
</clipPath>
</defs>
</svg>
